{
    "patcher": {
        "fileversion": 1,
        "appversion": {
            "major": 9,
            "minor": 2,
            "revision": 0,
            "architecture": "x64",
            "modernui": 1
        },
        "classnamespace": "box",
        "rect": [ 66.0, 100.0, 1264.0, 848.0 ],
        "boxes": [
            {
                "box": {
                    "id": "obj-84",
                    "maxclass": "newobj",
                    "numinlets": 2,
                    "numoutlets": 1,
                    "outlettype": [ "int" ],
                    "patching_rect": [ 1071.0, 864.0, 29.5, 22.0 ],
                    "text": "int"
                }
            },
            {
                "box": {
                    "id": "obj-82",
                    "maxclass": "newobj",
                    "numinlets": 1,
                    "numoutlets": 1,
                    "outlettype": [ "" ],
                    "patching_rect": [ 1064.0, 891.0, 96.0, 22.0 ],
                    "text": "prepend remove"
                }
            },
            {
                "box": {
                    "id": "obj-81",
                    "maxclass": "newobj",
                    "numinlets": 2,
                    "numoutlets": 2,
                    "outlettype": [ "bang", "" ],
                    "patching_rect": [ 1075.0, 831.0, 100.0, 22.0 ],
                    "text": "sel bang"
                }
            },
            {
                "box": {
                    "id": "obj-80",
                    "maxclass": "newobj",
                    "numinlets": 2,
                    "numoutlets": 2,
                    "outlettype": [ "", "" ],
                    "patching_rect": [ 1075.0, 800.0, 58.0, 22.0 ],
                    "text": "route null"
                }
            },
            {
                "box": {
                    "id": "obj-65",
                    "maxclass": "newobj",
                    "numinlets": 1,
                    "numoutlets": 2,
                    "outlettype": [ "int", "null" ],
                    "patching_rect": [ 1022.0, 579.0, 56.0, 22.0 ],
                    "text": "t i null"
                }
            },
            {
                "box": {
                    "id": "obj-63",
                    "maxclass": "comment",
                    "numinlets": 1,
                    "numoutlets": 0,
                    "patching_rect": [ 1021.0, 931.0, 150.0, 20.0 ],
                    "text": "remove from remotes"
                }
            },
            {
                "box": {
                    "id": "obj-62",
                    "maxclass": "comment",
                    "numinlets": 1,
                    "numoutlets": 0,
                    "patching_rect": [ 754.0, 822.0, 150.0, 20.0 ],
                    "text": "add to remotes"
                }
            },
            {
                "box": {
                    "id": "obj-52",
                    "maxclass": "newobj",
                    "numinlets": 1,
                    "numoutlets": 2,
                    "outlettype": [ "int", "int" ],
                    "patching_rect": [ 784.0, 731.0, 59.0, 22.0 ],
                    "text": "t #0 1"
                }
            },
            {
                "box": {
                    "id": "obj-48",
                    "maxclass": "newobj",
                    "numinlets": 2,
                    "numoutlets": 2,
                    "outlettype": [ "", "" ],
                    "patching_rect": [ 784.0, 695.0, 58.0, 22.0 ],
                    "text": "route null"
                }
            },
            {
                "box": {
                    "id": "obj-47",
                    "maxclass": "newobj",
                    "numinlets": 2,
                    "numoutlets": 2,
                    "outlettype": [ "", "" ],
                    "patching_rect": [ 784.0, 664.0, 38.0, 22.0 ],
                    "text": "zl.reg"
                }
            },
            {
                "box": {
                    "id": "obj-9",
                    "maxclass": "newobj",
                    "numinlets": 1,
                    "numoutlets": 4,
                    "outlettype": [ "bang", "int", "null", "int" ],
                    "patching_rect": [ 784.0, 569.0, 56.0, 22.0 ],
                    "text": "t b i null i"
                }
            },
            {
                "box": {
                    "id": "obj-75",
                    "maxclass": "newobj",
                    "numinlets": 1,
                    "numoutlets": 2,
                    "outlettype": [ "bang", "" ],
                    "patching_rect": [ 1021.0, 647.0, 100.0, 22.0 ],
                    "text": "t b l"
                }
            },
            {
                "box": {
                    "id": "obj-74",
                    "maxclass": "newobj",
                    "numinlets": 2,
                    "numoutlets": 2,
                    "outlettype": [ "", "" ],
                    "patching_rect": [ 1075.0, 769.0, 51.0, 22.0 ],
                    "text": "zl.group"
                }
            },
            {
                "box": {
                    "id": "obj-73",
                    "maxclass": "newobj",
                    "numinlets": 1,
                    "numoutlets": 1,
                    "outlettype": [ "" ],
                    "patching_rect": [ 1221.0, 816.0, 100.0, 22.0 ],
                    "text": "prepend set"
                }
            },
            {
                "box": {
                    "id": "obj-72",
                    "maxclass": "newobj",
                    "numinlets": 1,
                    "numoutlets": 1,
                    "outlettype": [ "" ],
                    "patching_rect": [ 1168.0, 891.0, 73.0, 22.0 ],
                    "text": "prepend"
                }
            },
            {
                "box": {
                    "id": "obj-67",
                    "maxclass": "newobj",
                    "numinlets": 2,
                    "numoutlets": 2,
                    "outlettype": [ "", "" ],
                    "patching_rect": [ 1021.0, 731.0, 73.0, 22.0 ],
                    "text": "route #0"
                }
            },
            {
                "box": {
                    "id": "obj-64",
                    "maxclass": "newobj",
                    "numinlets": 2,
                    "numoutlets": 2,
                    "outlettype": [ "", "" ],
                    "patching_rect": [ 1021.0, 704.0, 47.0, 22.0 ],
                    "text": "zl.iter 2"
                }
            },
            {
                "box": {
                    "id": "obj-61",
                    "maxclass": "newobj",
                    "numinlets": 2,
                    "numoutlets": 1,
                    "outlettype": [ "int" ],
                    "patching_rect": [ 1021.0, 542.0, 29.5, 22.0 ],
                    "text": "int"
                }
            },
            {
                "box": {
                    "id": "obj-60",
                    "maxclass": "newobj",
                    "numinlets": 1,
                    "numoutlets": 4,
                    "outlettype": [ "", "", "", "" ],
                    "patching_rect": [ 1021.0, 623.0, 357.0, 22.0 ],
                    "saved_object_attributes": {
                        "embed": 0,
                        "precision": 6
                    },
                    "text": "coll"
                }
            },
            {
                "box": {
                    "id": "obj-59",
                    "maxclass": "newobj",
                    "numinlets": 1,
                    "numoutlets": 1,
                    "outlettype": [ "bang" ],
                    "patching_rect": [ 1021.0, 503.0, 56.0, 22.0 ],
                    "text": "freebang"
                }
            },
            {
                "box": {
                    "id": "obj-56",
                    "maxclass": "newobj",
                    "numinlets": 1,
                    "numoutlets": 1,
                    "outlettype": [ "" ],
                    "patching_rect": [ 876.5, 709.0, 100.0, 22.0 ],
                    "text": "prepend set"
                }
            },
            {
                "box": {
                    "id": "obj-55",
                    "maxclass": "newobj",
                    "numinlets": 1,
                    "numoutlets": 1,
                    "outlettype": [ "" ],
                    "patching_rect": [ 784.0, 785.0, 95.0, 22.0 ],
                    "text": "prepend"
                }
            },
            {
                "box": {
                    "id": "obj-53",
                    "maxclass": "newobj",
                    "numinlets": 1,
                    "numoutlets": 1,
                    "outlettype": [ "" ],
                    "patching_rect": [ 847.0, 735.0, 95.0, 22.0 ],
                    "text": "append #0 1"
                }
            },
            {
                "box": {
                    "id": "obj-50",
                    "maxclass": "newobj",
                    "numinlets": 1,
                    "numoutlets": 2,
                    "outlettype": [ "int", "int" ],
                    "patching_rect": [ 784.0, 526.0, 100.0, 22.0 ],
                    "text": "unpack 0 1234"
                }
            },
            {
                "box": {
                    "id": "obj-49",
                    "maxclass": "newobj",
                    "numinlets": 2,
                    "numoutlets": 2,
                    "outlettype": [ "", "" ],
                    "patching_rect": [ 784.0, 496.0, 100.0, 22.0 ],
                    "text": "zl.rev"
                }
            },
            {
                "box": {
                    "id": "obj-30",
                    "maxclass": "newobj",
                    "numinlets": 1,
                    "numoutlets": 1,
                    "outlettype": [ "" ],
                    "patching_rect": [ 784.0, 465.0, 63.0, 22.0 ],
                    "text": "array.tolist"
                }
            },
            {
                "box": {
                    "id": "obj-29",
                    "maxclass": "newobj",
                    "numinlets": 1,
                    "numoutlets": 1,
                    "outlettype": [ "" ],
                    "patching_rect": [ 865.0, 583.0, 81.0, 22.0 ],
                    "text": "prepend refer"
                }
            },
            {
                "box": {
                    "id": "obj-2",
                    "maxclass": "newobj",
                    "numinlets": 1,
                    "numoutlets": 4,
                    "outlettype": [ "", "", "", "" ],
                    "patching_rect": [ 796.3333333333334, 623.0, 174.0, 22.0 ],
                    "saved_object_attributes": {
                        "embed": 0,
                        "precision": 6
                    },
                    "text": "coll"
                }
            },
            {
                "box": {
                    "id": "obj-45",
                    "maxclass": "newobj",
                    "numinlets": 2,
                    "numoutlets": 1,
                    "outlettype": [ "" ],
                    "patching_rect": [ 41.5, 234.0, 52.0, 22.0 ],
                    "text": "gate 1 0"
                }
            },
            {
                "box": {
                    "id": "obj-25",
                    "maxclass": "newobj",
                    "numinlets": 1,
                    "numoutlets": 1,
                    "outlettype": [ "" ],
                    "patching_rect": [ 450.0, 326.0, 73.0, 22.0 ],
                    "text": "prepend get"
                }
            },
            {
                "box": {
                    "id": "obj-26",
                    "maxclass": "newobj",
                    "numinlets": 2,
                    "numoutlets": 2,
                    "outlettype": [ "", "" ],
                    "patching_rect": [ 450.0, 298.0, 38.0, 22.0 ],
                    "text": "zl.reg"
                }
            },
            {
                "box": {
                    "id": "obj-32",
                    "maxclass": "newobj",
                    "numinlets": 2,
                    "numoutlets": 2,
                    "outlettype": [ "bang", "" ],
                    "patching_rect": [ 363.0, 398.0, 34.0, 22.0 ],
                    "text": "sel 1"
                }
            },
            {
                "box": {
                    "id": "obj-33",
                    "maxclass": "newobj",
                    "numinlets": 1,
                    "numoutlets": 3,
                    "outlettype": [ "", "", "send" ],
                    "patching_rect": [ 316.0, 267.0, 324.0, 22.0 ],
                    "text": "t s s send"
                }
            },
            {
                "box": {
                    "id": "obj-34",
                    "maxclass": "newobj",
                    "numinlets": 1,
                    "numoutlets": 1,
                    "outlettype": [ "" ],
                    "patching_rect": [ 296.0, 562.0, 72.0, 22.0 ],
                    "text": "prepend set"
                }
            },
            {
                "box": {
                    "id": "obj-35",
                    "maxclass": "newobj",
                    "numinlets": 2,
                    "numoutlets": 2,
                    "outlettype": [ "", "" ],
                    "patching_rect": [ 375.0, 562.0, 95.0, 22.0 ],
                    "text": "combine 1234 .r"
                }
            },
            {
                "box": {
                    "id": "obj-37",
                    "maxclass": "newobj",
                    "numinlets": 1,
                    "numoutlets": 1,
                    "outlettype": [ "" ],
                    "patching_rect": [ 254.0, 599.0, 49.0, 22.0 ],
                    "text": "append"
                }
            },
            {
                "box": {
                    "id": "obj-38",
                    "maxclass": "newobj",
                    "numinlets": 1,
                    "numoutlets": 1,
                    "outlettype": [ "" ],
                    "patching_rect": [ 375.0, 598.0, 82.0, 22.0 ],
                    "text": "prepend send"
                }
            },
            {
                "box": {
                    "id": "obj-39",
                    "maxclass": "newobj",
                    "numinlets": 1,
                    "numoutlets": 2,
                    "outlettype": [ "int", "int" ],
                    "patching_rect": [ 375.0, 512.0, 87.0, 22.0 ],
                    "text": "unpack 1234 1"
                }
            },
            {
                "box": {
                    "id": "obj-40",
                    "maxclass": "newobj",
                    "numinlets": 1,
                    "numoutlets": 1,
                    "outlettype": [ "" ],
                    "patching_rect": [ 375.0, 485.0, 63.0, 22.0 ],
                    "text": "array.tolist"
                }
            },
            {
                "box": {
                    "id": "obj-41",
                    "maxclass": "newobj",
                    "numinlets": 2,
                    "numoutlets": 2,
                    "outlettype": [ "", "" ],
                    "patching_rect": [ 339.0, 457.0, 55.0, 22.0 ],
                    "text": "zl.slice 1"
                }
            },
            {
                "box": {
                    "id": "obj-42",
                    "maxclass": "newobj",
                    "numinlets": 1,
                    "numoutlets": 1,
                    "outlettype": [ "" ],
                    "patching_rect": [ 316.0, 297.0, 101.0, 22.0 ],
                    "text": "prepend contains"
                }
            },
            {
                "box": {
                    "id": "obj-43",
                    "linecount": 2,
                    "maxclass": "newobj",
                    "numinlets": 2,
                    "numoutlets": 5,
                    "outlettype": [ "dictionary", "", "", "", "" ],
                    "patching_rect": [ 316.0, 353.0, 113.0, 35.0 ],
                    "saved_object_attributes": {
                        "legacy": 0,
                        "parameter_enable": 0,
                        "parameter_mappable": 0
                    },
                    "text": "dict mvc.inputs.dict @quiet 1"
                }
            },
            {
                "box": {
                    "id": "obj-44",
                    "maxclass": "newobj",
                    "numinlets": 1,
                    "numoutlets": 0,
                    "patching_rect": [ 254.0, 654.0, 49.0, 22.0 ],
                    "text": "forward"
                }
            },
            {
                "box": {
                    "id": "obj-28",
                    "maxclass": "newobj",
                    "numinlets": 2,
                    "numoutlets": 2,
                    "outlettype": [ "", "" ],
                    "patching_rect": [ 41.5, 448.0, 100.0, 22.0 ],
                    "text": "mvc.dllb"
                }
            },
            {
                "box": {
                    "id": "obj-58",
                    "maxclass": "newobj",
                    "numinlets": 2,
                    "numoutlets": 2,
                    "outlettype": [ "", "" ],
                    "patching_rect": [ 865.0, 554.0, 123.0, 22.0 ],
                    "text": "combine uid .remotes"
                }
            },
            {
                "box": {
                    "id": "obj-57",
                    "maxclass": "newobj",
                    "numinlets": 2,
                    "numoutlets": 2,
                    "outlettype": [ "", "" ],
                    "patching_rect": [ 742.5, 437.0, 55.0, 22.0 ],
                    "text": "zl.slice 1"
                }
            },
            {
                "box": {
                    "id": "obj-20",
                    "maxclass": "newobj",
                    "numinlets": 1,
                    "numoutlets": 1,
                    "outlettype": [ "" ],
                    "patching_rect": [ 707.0, 334.0, 73.0, 22.0 ],
                    "text": "prepend get"
                }
            },
            {
                "box": {
                    "id": "obj-24",
                    "maxclass": "newobj",
                    "numinlets": 2,
                    "numoutlets": 5,
                    "outlettype": [ "dictionary", "", "", "", "" ],
                    "patching_rect": [ 707.0, 410.0, 161.0, 22.0 ],
                    "saved_object_attributes": {
                        "legacy": 0,
                        "parameter_enable": 0,
                        "parameter_mappable": 0
                    },
                    "text": "dict mvc.inputs.dict @quiet 1"
                }
            },
            {
                "box": {
                    "id": "obj-4",
                    "maxclass": "newobj",
                    "numinlets": 2,
                    "numoutlets": 2,
                    "outlettype": [ "", "" ],
                    "patching_rect": [ 122.5, 402.0, 159.0, 22.0 ],
                    "text": "zl.ecils 1 @zlmaxsize 32000"
                }
            },
            {
                "box": {
                    "comment": "",
                    "id": "obj-5",
                    "index": 1,
                    "maxclass": "outlet",
                    "numinlets": 1,
                    "numoutlets": 0,
                    "patching_rect": [ 41.5, 546.0, 30.0, 30.0 ]
                }
            },
            {
                "box": {
                    "id": "obj-15",
                    "maxclass": "newobj",
                    "numinlets": 0,
                    "numoutlets": 1,
                    "outlettype": [ "" ],
                    "patching_rect": [ 122.5, 367.0, 125.0, 22.0 ],
                    "text": "receive #0.remote"
                }
            },
            {
                "box": {
                    "id": "obj-36",
                    "maxclass": "comment",
                    "numinlets": 1,
                    "numoutlets": 0,
                    "patching_rect": [ 460.0, 33.0, 73.0, 20.0 ],
                    "text": "auto-update"
                }
            },
            {
                "box": {
                    "id": "obj-16",
                    "maxclass": "newobj",
                    "numinlets": 2,
                    "numoutlets": 2,
                    "outlettype": [ "", "" ],
                    "patching_rect": [ 316.0, 177.0, 38.0, 22.0 ],
                    "text": "zl.reg"
                }
            },
            {
                "box": {
                    "id": "obj-21",
                    "maxclass": "newobj",
                    "numinlets": 2,
                    "numoutlets": 1,
                    "outlettype": [ "" ],
                    "patching_rect": [ 460.0, 86.0, 54.0, 22.0 ],
                    "text": "qlim 100"
                }
            },
            {
                "box": {
                    "id": "obj-12",
                    "maxclass": "newobj",
                    "numinlets": 0,
                    "numoutlets": 1,
                    "outlettype": [ "" ],
                    "patching_rect": [ 460.0, 55.0, 141.0, 22.0 ],
                    "text": "r MVC.models.initializers"
                }
            },
            {
                "box": {
                    "id": "obj-11",
                    "maxclass": "newobj",
                    "numinlets": 2,
                    "numoutlets": 2,
                    "outlettype": [ "", "" ],
                    "patching_rect": [ 369.0, 126.0, 82.0, 22.0 ],
                    "text": "route address"
                }
            },
            {
                "box": {
                    "comment": "",
                    "id": "obj-6",
                    "index": 2,
                    "maxclass": "inlet",
                    "numinlets": 0,
                    "numoutlets": 1,
                    "outlettype": [ "" ],
                    "patching_rect": [ 401.0, 78.0, 30.0, 30.0 ]
                }
            },
            {
                "box": {
                    "comment": "",
                    "id": "obj-22",
                    "index": 1,
                    "maxclass": "inlet",
                    "numinlets": 0,
                    "numoutlets": 1,
                    "outlettype": [ "" ],
                    "patching_rect": [ 74.5, 82.0, 30.0, 30.0 ]
                }
            },
            {
                "box": {
                    "id": "obj-10",
                    "maxclass": "newobj",
                    "numinlets": 2,
                    "numoutlets": 2,
                    "outlettype": [ "", "" ],
                    "patching_rect": [ 316.0, 234.0, 126.0, 22.0 ],
                    "text": "combine address ::uid"
                }
            },
            {
                "box": {
                    "id": "obj-7",
                    "maxclass": "button",
                    "numinlets": 1,
                    "numoutlets": 1,
                    "outlettype": [ "bang" ],
                    "parameter_enable": 0,
                    "patching_rect": [ 460.0, 125.0, 24.0, 24.0 ]
                }
            },
            {
                "box": {
                    "id": "obj-3",
                    "maxclass": "newobj",
                    "numinlets": 1,
                    "numoutlets": 1,
                    "outlettype": [ "" ],
                    "patching_rect": [ 316.0, 204.0, 78.0, 22.0 ],
                    "text": "mvc.osc2dict"
                }
            },
            {
                "box": {
                    "id": "obj-1",
                    "maxclass": "newobj",
                    "numinlets": 1,
                    "numoutlets": 2,
                    "outlettype": [ "", "" ],
                    "patching_rect": [ 316.0, 86.0, 72.0, 22.0 ],
                    "text": "patcherargs"
                }
            }
        ],
        "lines": [
            {
                "patchline": {
                    "destination": [ "obj-11", 0 ],
                    "source": [ "obj-1", 1 ]
                }
            },
            {
                "patchline": {
                    "destination": [ "obj-16", 0 ],
                    "source": [ "obj-1", 0 ]
                }
            },
            {
                "patchline": {
                    "destination": [ "obj-20", 0 ],
                    "midpoints": [ 325.5, 257.46875, 716.5, 257.46875 ],
                    "order": 0,
                    "source": [ "obj-10", 0 ]
                }
            },
            {
                "patchline": {
                    "destination": [ "obj-33", 0 ],
                    "order": 1,
                    "source": [ "obj-10", 0 ]
                }
            },
            {
                "patchline": {
                    "destination": [ "obj-16", 0 ],
                    "source": [ "obj-11", 0 ]
                }
            },
            {
                "patchline": {
                    "destination": [ "obj-21", 0 ],
                    "source": [ "obj-12", 0 ]
                }
            },
            {
                "patchline": {
                    "destination": [ "obj-4", 0 ],
                    "source": [ "obj-15", 0 ]
                }
            },
            {
                "patchline": {
                    "destination": [ "obj-3", 0 ],
                    "source": [ "obj-16", 0 ]
                }
            },
            {
                "patchline": {
                    "destination": [ "obj-47", 1 ],
                    "source": [ "obj-2", 0 ]
                }
            },
            {
                "patchline": {
                    "destination": [ "obj-24", 0 ],
                    "source": [ "obj-20", 0 ]
                }
            },
            {
                "patchline": {
                    "destination": [ "obj-7", 0 ],
                    "source": [ "obj-21", 0 ]
                }
            },
            {
                "patchline": {
                    "destination": [ "obj-45", 1 ],
                    "source": [ "obj-22", 0 ]
                }
            },
            {
                "patchline": {
                    "destination": [ "obj-57", 0 ],
                    "source": [ "obj-24", 1 ]
                }
            },
            {
                "patchline": {
                    "destination": [ "obj-43", 0 ],
                    "source": [ "obj-25", 0 ]
                }
            },
            {
                "patchline": {
                    "destination": [ "obj-25", 0 ],
                    "source": [ "obj-26", 0 ]
                }
            },
            {
                "patchline": {
                    "destination": [ "obj-37", 0 ],
                    "source": [ "obj-28", 1 ]
                }
            },
            {
                "patchline": {
                    "destination": [ "obj-5", 0 ],
                    "source": [ "obj-28", 0 ]
                }
            },
            {
                "patchline": {
                    "destination": [ "obj-2", 0 ],
                    "order": 1,
                    "source": [ "obj-29", 0 ]
                }
            },
            {
                "patchline": {
                    "destination": [ "obj-60", 0 ],
                    "order": 0,
                    "source": [ "obj-29", 0 ]
                }
            },
            {
                "patchline": {
                    "destination": [ "obj-10", 0 ],
                    "source": [ "obj-3", 0 ]
                }
            },
            {
                "patchline": {
                    "destination": [ "obj-49", 0 ],
                    "source": [ "obj-30", 0 ]
                }
            },
            {
                "patchline": {
                    "destination": [ "obj-26", 0 ],
                    "source": [ "obj-32", 0 ]
                }
            },
            {
                "patchline": {
                    "destination": [ "obj-26", 1 ],
                    "source": [ "obj-33", 1 ]
                }
            },
            {
                "patchline": {
                    "destination": [ "obj-42", 0 ],
                    "source": [ "obj-33", 0 ]
                }
            },
            {
                "patchline": {
                    "destination": [ "obj-44", 0 ],
                    "midpoints": [ 630.5, 644.6953125, 263.5, 644.6953125 ],
                    "source": [ "obj-33", 2 ]
                }
            },
            {
                "patchline": {
                    "destination": [ "obj-37", 0 ],
                    "source": [ "obj-34", 0 ]
                }
            },
            {
                "patchline": {
                    "destination": [ "obj-38", 0 ],
                    "source": [ "obj-35", 0 ]
                }
            },
            {
                "patchline": {
                    "destination": [ "obj-44", 0 ],
                    "source": [ "obj-37", 0 ]
                }
            },
            {
                "patchline": {
                    "destination": [ "obj-44", 0 ],
                    "midpoints": [ 384.5, 637.5, 263.5, 637.5 ],
                    "source": [ "obj-38", 0 ]
                }
            },
            {
                "patchline": {
                    "destination": [ "obj-34", 0 ],
                    "source": [ "obj-39", 1 ]
                }
            },
            {
                "patchline": {
                    "destination": [ "obj-35", 0 ],
                    "source": [ "obj-39", 0 ]
                }
            },
            {
                "patchline": {
                    "destination": [ "obj-28", 1 ],
                    "source": [ "obj-4", 0 ]
                }
            },
            {
                "patchline": {
                    "destination": [ "obj-39", 0 ],
                    "source": [ "obj-40", 0 ]
                }
            },
            {
                "patchline": {
                    "destination": [ "obj-40", 0 ],
                    "source": [ "obj-41", 1 ]
                }
            },
            {
                "patchline": {
                    "destination": [ "obj-43", 0 ],
                    "source": [ "obj-42", 0 ]
                }
            },
            {
                "patchline": {
                    "destination": [ "obj-32", 0 ],
                    "order": 0,
                    "source": [ "obj-43", 2 ]
                }
            },
            {
                "patchline": {
                    "destination": [ "obj-41", 0 ],
                    "source": [ "obj-43", 1 ]
                }
            },
            {
                "patchline": {
                    "destination": [ "obj-45", 0 ],
                    "order": 1,
                    "source": [ "obj-43", 2 ]
                }
            },
            {
                "patchline": {
                    "destination": [ "obj-28", 0 ],
                    "source": [ "obj-45", 0 ]
                }
            },
            {
                "patchline": {
                    "destination": [ "obj-48", 0 ],
                    "source": [ "obj-47", 0 ]
                }
            },
            {
                "patchline": {
                    "destination": [ "obj-52", 0 ],
                    "source": [ "obj-48", 0 ]
                }
            },
            {
                "patchline": {
                    "destination": [ "obj-53", 0 ],
                    "source": [ "obj-48", 1 ]
                }
            },
            {
                "patchline": {
                    "destination": [ "obj-50", 0 ],
                    "source": [ "obj-49", 0 ]
                }
            },
            {
                "patchline": {
                    "destination": [ "obj-58", 0 ],
                    "source": [ "obj-50", 1 ]
                }
            },
            {
                "patchline": {
                    "destination": [ "obj-61", 1 ],
                    "order": 0,
                    "source": [ "obj-50", 0 ]
                }
            },
            {
                "patchline": {
                    "destination": [ "obj-9", 0 ],
                    "order": 1,
                    "source": [ "obj-50", 0 ]
                }
            },
            {
                "patchline": {
                    "destination": [ "obj-55", 0 ],
                    "source": [ "obj-52", 0 ]
                }
            },
            {
                "patchline": {
                    "destination": [ "obj-55", 0 ],
                    "source": [ "obj-53", 0 ]
                }
            },
            {
                "patchline": {
                    "destination": [ "obj-2", 0 ],
                    "midpoints": [ 793.5, 812.23046875, 766.484375, 812.23046875, 766.484375, 611.97265625, 805.8333333333334, 611.97265625 ],
                    "source": [ "obj-55", 0 ]
                }
            },
            {
                "patchline": {
                    "destination": [ "obj-55", 0 ],
                    "source": [ "obj-56", 0 ]
                }
            },
            {
                "patchline": {
                    "destination": [ "obj-30", 0 ],
                    "source": [ "obj-57", 1 ]
                }
            },
            {
                "patchline": {
                    "destination": [ "obj-29", 0 ],
                    "source": [ "obj-58", 0 ]
                }
            },
            {
                "patchline": {
                    "destination": [ "obj-61", 0 ],
                    "source": [ "obj-59", 0 ]
                }
            },
            {
                "patchline": {
                    "destination": [ "obj-11", 0 ],
                    "source": [ "obj-6", 0 ]
                }
            },
            {
                "patchline": {
                    "destination": [ "obj-73", 0 ],
                    "order": 0,
                    "source": [ "obj-60", 1 ]
                }
            },
            {
                "patchline": {
                    "destination": [ "obj-75", 0 ],
                    "source": [ "obj-60", 0 ]
                }
            },
            {
                "patchline": {
                    "destination": [ "obj-84", 1 ],
                    "order": 1,
                    "source": [ "obj-60", 1 ]
                }
            },
            {
                "patchline": {
                    "destination": [ "obj-65", 0 ],
                    "source": [ "obj-61", 0 ]
                }
            },
            {
                "patchline": {
                    "destination": [ "obj-67", 0 ],
                    "source": [ "obj-64", 0 ]
                }
            },
            {
                "patchline": {
                    "destination": [ "obj-60", 0 ],
                    "source": [ "obj-65", 0 ]
                }
            },
            {
                "patchline": {
                    "destination": [ "obj-74", 0 ],
                    "source": [ "obj-65", 1 ]
                }
            },
            {
                "patchline": {
                    "destination": [ "obj-74", 0 ],
                    "source": [ "obj-67", 1 ]
                }
            },
            {
                "patchline": {
                    "destination": [ "obj-16", 0 ],
                    "source": [ "obj-7", 0 ]
                }
            },
            {
                "patchline": {
                    "destination": [ "obj-60", 0 ],
                    "midpoints": [ 1177.5, 917.16796875, 1008.0, 917.16796875, 1008.0, 618.0, 1030.5, 618.0 ],
                    "source": [ "obj-72", 0 ]
                }
            },
            {
                "patchline": {
                    "destination": [ "obj-72", 0 ],
                    "source": [ "obj-73", 0 ]
                }
            },
            {
                "patchline": {
                    "destination": [ "obj-80", 0 ],
                    "source": [ "obj-74", 0 ]
                }
            },
            {
                "patchline": {
                    "destination": [ "obj-64", 0 ],
                    "source": [ "obj-75", 1 ]
                }
            },
            {
                "patchline": {
                    "destination": [ "obj-74", 0 ],
                    "source": [ "obj-75", 0 ]
                }
            },
            {
                "patchline": {
                    "destination": [ "obj-81", 0 ],
                    "source": [ "obj-80", 0 ]
                }
            },
            {
                "patchline": {
                    "destination": [ "obj-72", 0 ],
                    "source": [ "obj-81", 1 ]
                }
            },
            {
                "patchline": {
                    "destination": [ "obj-84", 0 ],
                    "source": [ "obj-81", 0 ]
                }
            },
            {
                "patchline": {
                    "destination": [ "obj-60", 0 ],
                    "midpoints": [ 1073.5, 915.0, 1008.0, 915.0, 1008.0, 618.0, 1030.5, 618.0 ],
                    "source": [ "obj-82", 0 ]
                }
            },
            {
                "patchline": {
                    "destination": [ "obj-82", 0 ],
                    "source": [ "obj-84", 0 ]
                }
            },
            {
                "patchline": {
                    "destination": [ "obj-2", 0 ],
                    "source": [ "obj-9", 1 ]
                }
            },
            {
                "patchline": {
                    "destination": [ "obj-47", 1 ],
                    "source": [ "obj-9", 2 ]
                }
            },
            {
                "patchline": {
                    "destination": [ "obj-47", 0 ],
                    "source": [ "obj-9", 0 ]
                }
            },
            {
                "patchline": {
                    "destination": [ "obj-56", 0 ],
                    "source": [ "obj-9", 3 ]
                }
            }
        ]
    }
}