{
    "patcher": {
        "fileversion": 1,
        "appversion": {
            "major": 9,
            "minor": 1,
            "revision": 2,
            "architecture": "x64",
            "modernui": 1
        },
        "classnamespace": "box",
        "rect": [ 143.0, 535.0, 475.0, 340.0 ],
        "boxes": [
            {
                "box": {
                    "id": "obj-44",
                    "maxclass": "newobj",
                    "numinlets": 3,
                    "numoutlets": 5,
                    "outlettype": [ "", "", "bang", "int", "" ],
                    "patching_rect": [ 48.0, 155.0, 301.0, 22.0 ],
                    "text": "mvc.miniparameter.parser #0"
                }
            },
            {
                "box": {
                    "id": "obj-23",
                    "linecount": 5,
                    "maxclass": "newobj",
                    "numinlets": 1,
                    "numoutlets": 2,
                    "outlettype": [ "", "" ],
                    "patching_rect": [ 48.0, 71.0, 160.0, 76.0 ],
                    "text": "patcherargs @mvc-type parameter @type string @description \"this model's preset description @default undefined @unit none\""
                }
            },
            {
                "box": {
                    "fontsize": 14.0,
                    "id": "obj-8",
                    "linecount": 2,
                    "maxclass": "newobj",
                    "numinlets": 3,
                    "numoutlets": 0,
                    "patching_rect": [ 118.5, 256.0, 174.0, 40.0 ],
                    "text": "mvc.core.param.sender #0"
                }
            },
            {
                "box": {
                    "fontsize": 14.0,
                    "id": "obj-45",
                    "maxclass": "newobj",
                    "numinlets": 1,
                    "numoutlets": 1,
                    "outlettype": [ "" ],
                    "patcher": {
                        "fileversion": 1,
                        "appversion": {
                            "major": 9,
                            "minor": 1,
                            "revision": 2,
                            "architecture": "x64",
                            "modernui": 1
                        },
                        "classnamespace": "box",
                        "rect": [ 1002.0, 193.0, 155.0, 255.0 ],
                        "boxes": [
                            {
                                "box": {
                                    "id": "obj-3",
                                    "maxclass": "newobj",
                                    "numinlets": 1,
                                    "numoutlets": 1,
                                    "outlettype": [ "" ],
                                    "patching_rect": [ 20.666667, 96.0, 57.0, 22.0 ],
                                    "text": "tosymbol"
                                }
                            },
                            {
                                "box": {
                                    "comment": "",
                                    "id": "obj-43",
                                    "index": 1,
                                    "maxclass": "inlet",
                                    "numinlets": 0,
                                    "numoutlets": 1,
                                    "outlettype": [ "" ],
                                    "patching_rect": [ 20.666667, 39.0, 30.0, 30.0 ]
                                }
                            },
                            {
                                "box": {
                                    "comment": "",
                                    "id": "obj-44",
                                    "index": 1,
                                    "maxclass": "outlet",
                                    "numinlets": 1,
                                    "numoutlets": 0,
                                    "patching_rect": [ 20.666667, 131.0, 30.0, 30.0 ]
                                }
                            }
                        ],
                        "lines": [
                            {
                                "patchline": {
                                    "destination": [ "obj-44", 0 ],
                                    "source": [ "obj-3", 0 ]
                                }
                            },
                            {
                                "patchline": {
                                    "destination": [ "obj-3", 0 ],
                                    "source": [ "obj-43", 0 ]
                                }
                            }
                        ]
                    },
                    "patching_rect": [ 118.5, 226.0, 47.0, 24.0 ],
                    "text": "p type"
                }
            },
            {
                "box": {
                    "fontsize": 14.0,
                    "id": "obj-24",
                    "maxclass": "newobj",
                    "numinlets": 1,
                    "numoutlets": 2,
                    "outlettype": [ "", "int" ],
                    "patcher": {
                        "fileversion": 1,
                        "appversion": {
                            "major": 9,
                            "minor": 1,
                            "revision": 2,
                            "architecture": "x64",
                            "modernui": 1
                        },
                        "classnamespace": "box",
                        "rect": [ 694.0, 594.0, 359.0, 233.0 ],
                        "boxes": [
                            {
                                "box": {
                                    "comment": "parameter address in OSC format",
                                    "id": "obj-14",
                                    "index": 2,
                                    "maxclass": "outlet",
                                    "numinlets": 1,
                                    "numoutlets": 0,
                                    "patching_rect": [ 165.5, 114.0, 30.0, 30.0 ]
                                }
                            },
                            {
                                "box": {
                                    "comment": "",
                                    "id": "obj-5",
                                    "index": 1,
                                    "maxclass": "inlet",
                                    "numinlets": 0,
                                    "numoutlets": 1,
                                    "outlettype": [ "" ],
                                    "patching_rect": [ 165.5, 22.0, 30.0, 30.0 ]
                                }
                            },
                            {
                                "box": {
                                    "id": "obj-25",
                                    "maxclass": "newobj",
                                    "numinlets": 2,
                                    "numoutlets": 2,
                                    "outlettype": [ "", "int" ],
                                    "patcher": {
                                        "fileversion": 1,
                                        "appversion": {
                                            "major": 9,
                                            "minor": 1,
                                            "revision": 2,
                                            "architecture": "x64",
                                            "modernui": 1
                                        },
                                        "classnamespace": "box",
                                        "rect": [ 53.0, 506.0, 385.0, 322.0 ],
                                        "boxes": [
                                            {
                                                "box": {
                                                    "id": "obj-5",
                                                    "maxclass": "newobj",
                                                    "numinlets": 1,
                                                    "numoutlets": 2,
                                                    "outlettype": [ "int", "int" ],
                                                    "patching_rect": [ 173.5, 133.0, 39.5, 22.0 ],
                                                    "text": "t 1 i"
                                                }
                                            },
                                            {
                                                "box": {
                                                    "id": "obj-4",
                                                    "maxclass": "newobj",
                                                    "numinlets": 1,
                                                    "numoutlets": 1,
                                                    "outlettype": [ "int" ],
                                                    "patching_rect": [ 194.0, 194.0, 22.0, 22.0 ],
                                                    "text": "t 0"
                                                }
                                            },
                                            {
                                                "box": {
                                                    "id": "obj-3",
                                                    "maxclass": "newobj",
                                                    "numinlets": 1,
                                                    "numoutlets": 2,
                                                    "outlettype": [ "int", "int" ],
                                                    "patching_rect": [ 153.0, 194.0, 29.5, 22.0 ],
                                                    "text": "t 1 i"
                                                }
                                            },
                                            {
                                                "box": {
                                                    "comment": "",
                                                    "id": "obj-2",
                                                    "index": 2,
                                                    "maxclass": "inlet",
                                                    "numinlets": 0,
                                                    "numoutlets": 1,
                                                    "outlettype": [ "" ],
                                                    "patching_rect": [ 173.5, 66.0, 30.0, 30.0 ]
                                                }
                                            },
                                            {
                                                "box": {
                                                    "id": "obj-1",
                                                    "maxclass": "newobj",
                                                    "numinlets": 3,
                                                    "numoutlets": 2,
                                                    "outlettype": [ "int", "int" ],
                                                    "patching_rect": [ 153.0, 165.0, 60.0, 22.0 ],
                                                    "text": "split 0 0"
                                                }
                                            },
                                            {
                                                "box": {
                                                    "bubble": 1,
                                                    "bubblepoint": 0.0,
                                                    "bubbleside": 2,
                                                    "id": "obj-24",
                                                    "linecount": 3,
                                                    "maxclass": "comment",
                                                    "numinlets": 1,
                                                    "numoutlets": 0,
                                                    "patching_rect": [ 225.0, 106.0, 103.0, 66.0 ],
                                                    "text": "Don't output if address is not in the namespace."
                                                }
                                            },
                                            {
                                                "box": {
                                                    "id": "obj-16",
                                                    "maxclass": "newobj",
                                                    "numinlets": 2,
                                                    "numoutlets": 1,
                                                    "outlettype": [ "" ],
                                                    "patching_rect": [ 64.0, 237.0, 52.0, 22.0 ],
                                                    "text": "gate 1 0"
                                                }
                                            },
                                            {
                                                "box": {
                                                    "id": "obj-9",
                                                    "linecount": 3,
                                                    "maxclass": "newobj",
                                                    "numinlets": 2,
                                                    "numoutlets": 2,
                                                    "outlettype": [ "", "" ],
                                                    "patching_rect": [ 97.0, 106.0, 77.0, 49.0 ],
                                                    "text": "zl ecils 1 @zlmaxsize 16384"
                                                }
                                            },
                                            {
                                                "box": {
                                                    "comment": "",
                                                    "id": "obj-8",
                                                    "index": 1,
                                                    "maxclass": "inlet",
                                                    "numinlets": 0,
                                                    "numoutlets": 1,
                                                    "outlettype": [ "" ],
                                                    "patching_rect": [ 97.0, 66.0, 30.0, 30.0 ]
                                                }
                                            },
                                            {
                                                "box": {
                                                    "comment": "",
                                                    "id": "obj-11",
                                                    "index": 1,
                                                    "maxclass": "outlet",
                                                    "numinlets": 1,
                                                    "numoutlets": 0,
                                                    "patching_rect": [ 64.0, 263.0, 30.0, 30.0 ]
                                                }
                                            },
                                            {
                                                "box": {
                                                    "comment": "",
                                                    "id": "obj-19",
                                                    "index": 2,
                                                    "maxclass": "outlet",
                                                    "numinlets": 1,
                                                    "numoutlets": 0,
                                                    "patching_rect": [ 163.5, 263.0, 30.0, 30.0 ]
                                                }
                                            }
                                        ],
                                        "lines": [
                                            {
                                                "patchline": {
                                                    "destination": [ "obj-3", 0 ],
                                                    "source": [ "obj-1", 0 ]
                                                }
                                            },
                                            {
                                                "patchline": {
                                                    "destination": [ "obj-4", 0 ],
                                                    "source": [ "obj-1", 1 ]
                                                }
                                            },
                                            {
                                                "patchline": {
                                                    "destination": [ "obj-11", 0 ],
                                                    "source": [ "obj-16", 0 ]
                                                }
                                            },
                                            {
                                                "patchline": {
                                                    "destination": [ "obj-5", 0 ],
                                                    "source": [ "obj-2", 0 ]
                                                }
                                            },
                                            {
                                                "patchline": {
                                                    "destination": [ "obj-16", 0 ],
                                                    "source": [ "obj-3", 0 ]
                                                }
                                            },
                                            {
                                                "patchline": {
                                                    "destination": [ "obj-19", 0 ],
                                                    "source": [ "obj-3", 1 ]
                                                }
                                            },
                                            {
                                                "patchline": {
                                                    "destination": [ "obj-16", 0 ],
                                                    "source": [ "obj-4", 0 ]
                                                }
                                            },
                                            {
                                                "patchline": {
                                                    "destination": [ "obj-1", 2 ],
                                                    "source": [ "obj-5", 1 ]
                                                }
                                            },
                                            {
                                                "patchline": {
                                                    "destination": [ "obj-1", 1 ],
                                                    "source": [ "obj-5", 0 ]
                                                }
                                            },
                                            {
                                                "patchline": {
                                                    "destination": [ "obj-9", 0 ],
                                                    "source": [ "obj-8", 0 ]
                                                }
                                            },
                                            {
                                                "patchline": {
                                                    "destination": [ "obj-1", 0 ],
                                                    "source": [ "obj-9", 1 ]
                                                }
                                            },
                                            {
                                                "patchline": {
                                                    "destination": [ "obj-16", 1 ],
                                                    "source": [ "obj-9", 0 ]
                                                }
                                            }
                                        ]
                                    },
                                    "patching_rect": [ 47.5, 63.57180138690387, 137.0, 22.0 ],
                                    "text": "p in-namespace?"
                                }
                            },
                            {
                                "box": {
                                    "id": "obj-4",
                                    "maxclass": "newobj",
                                    "numinlets": 0,
                                    "numoutlets": 1,
                                    "outlettype": [ "" ],
                                    "patching_rect": [ 47.5, 30.0, 103.0, 22.0 ],
                                    "text": "r #0.r"
                                }
                            },
                            {
                                "box": {
                                    "comment": "parameter value",
                                    "id": "obj-22",
                                    "index": 1,
                                    "maxclass": "outlet",
                                    "numinlets": 1,
                                    "numoutlets": 0,
                                    "patching_rect": [ 47.5, 114.0, 30.0, 30.0 ]
                                }
                            }
                        ],
                        "lines": [
                            {
                                "patchline": {
                                    "destination": [ "obj-14", 0 ],
                                    "source": [ "obj-25", 1 ]
                                }
                            },
                            {
                                "patchline": {
                                    "destination": [ "obj-22", 0 ],
                                    "source": [ "obj-25", 0 ]
                                }
                            },
                            {
                                "patchline": {
                                    "destination": [ "obj-25", 0 ],
                                    "source": [ "obj-4", 0 ]
                                }
                            },
                            {
                                "patchline": {
                                    "destination": [ "obj-25", 1 ],
                                    "source": [ "obj-5", 0 ]
                                }
                            }
                        ]
                    },
                    "patching_rect": [ 118.5, 199.0, 96.5, 24.0 ],
                    "text": "p receive"
                }
            }
        ],
        "lines": [
            {
                "patchline": {
                    "destination": [ "obj-44", 1 ],
                    "source": [ "obj-23", 1 ]
                }
            },
            {
                "patchline": {
                    "destination": [ "obj-44", 0 ],
                    "source": [ "obj-23", 0 ]
                }
            },
            {
                "patchline": {
                    "destination": [ "obj-45", 0 ],
                    "source": [ "obj-24", 0 ]
                }
            },
            {
                "patchline": {
                    "destination": [ "obj-8", 1 ],
                    "source": [ "obj-24", 1 ]
                }
            },
            {
                "patchline": {
                    "destination": [ "obj-24", 0 ],
                    "order": 1,
                    "source": [ "obj-44", 1 ]
                }
            },
            {
                "patchline": {
                    "destination": [ "obj-8", 2 ],
                    "midpoints": [ 128.0, 187.5234375, 283.0, 187.5234375 ],
                    "order": 0,
                    "source": [ "obj-44", 1 ]
                }
            },
            {
                "patchline": {
                    "destination": [ "obj-8", 0 ],
                    "source": [ "obj-45", 0 ]
                }
            }
        ]
    }
}