{
    "patcher": {
        "fileversion": 1,
        "appversion": {
            "major": 9,
            "minor": 1,
            "revision": 2,
            "architecture": "x64",
            "modernui": 1
        },
        "classnamespace": "box",
        "rect": [ 169.0, -806.0, 509.0, 391.0 ],
        "boxes": [
            {
                "box": {
                    "id": "obj-25",
                    "maxclass": "newobj",
                    "numinlets": 2,
                    "numoutlets": 0,
                    "patcher": {
                        "fileversion": 1,
                        "appversion": {
                            "major": 9,
                            "minor": 1,
                            "revision": 2,
                            "architecture": "x64",
                            "modernui": 1
                        },
                        "classnamespace": "box",
                        "rect": [ 59.0, 119.0, 405.0, 229.0 ],
                        "boxes": [
                            {
                                "box": {
                                    "id": "obj-19",
                                    "maxclass": "newobj",
                                    "numinlets": 1,
                                    "numoutlets": 0,
                                    "patching_rect": [ 50.0, 163.0, 185.0, 22.0 ],
                                    "text": "s mvc.remote.central.parameter"
                                }
                            },
                            {
                                "box": {
                                    "id": "obj-18",
                                    "maxclass": "newobj",
                                    "numinlets": 1,
                                    "numoutlets": 1,
                                    "outlettype": [ "" ],
                                    "patching_rect": [ 50.0, 133.0, 100.0, 22.0 ],
                                    "text": "prepend"
                                }
                            },
                            {
                                "box": {
                                    "id": "obj-9",
                                    "maxclass": "newobj",
                                    "numinlets": 1,
                                    "numoutlets": 1,
                                    "outlettype": [ "" ],
                                    "patching_rect": [ 86.0, 100.0, 234.0, 22.0 ],
                                    "text": "prepend set #1"
                                }
                            },
                            {
                                "box": {
                                    "comment": "",
                                    "id": "obj-20",
                                    "index": 1,
                                    "maxclass": "inlet",
                                    "numinlets": 0,
                                    "numoutlets": 1,
                                    "outlettype": [ "" ],
                                    "patching_rect": [ 50.0, 40.0, 30.0, 30.0 ]
                                }
                            },
                            {
                                "box": {
                                    "comment": "",
                                    "id": "obj-21",
                                    "index": 2,
                                    "maxclass": "inlet",
                                    "numinlets": 0,
                                    "numoutlets": 1,
                                    "outlettype": [ "" ],
                                    "patching_rect": [ 86.0, 40.0, 30.0, 30.0 ]
                                }
                            }
                        ],
                        "lines": [
                            {
                                "patchline": {
                                    "destination": [ "obj-19", 0 ],
                                    "source": [ "obj-18", 0 ]
                                }
                            },
                            {
                                "patchline": {
                                    "destination": [ "obj-18", 0 ],
                                    "source": [ "obj-20", 0 ]
                                }
                            },
                            {
                                "patchline": {
                                    "destination": [ "obj-9", 0 ],
                                    "source": [ "obj-21", 0 ]
                                }
                            },
                            {
                                "patchline": {
                                    "destination": [ "obj-18", 0 ],
                                    "source": [ "obj-9", 0 ]
                                }
                            }
                        ]
                    },
                    "patching_rect": [ 40.0, 276.0, 136.0, 22.0 ],
                    "text": "p central"
                }
            },
            {
                "box": {
                    "id": "obj-6",
                    "maxclass": "newobj",
                    "numinlets": 2,
                    "numoutlets": 2,
                    "outlettype": [ "bang", "" ],
                    "patching_rect": [ 167.0, 92.0, 34.0, 22.0 ],
                    "text": "sel 0"
                }
            },
            {
                "box": {
                    "id": "obj-23",
                    "maxclass": "newobj",
                    "numinlets": 2,
                    "numoutlets": 2,
                    "outlettype": [ "", "" ],
                    "patching_rect": [ 271.0, 146.0, 127.0, 22.0 ],
                    "text": "zl.reg get childrenmap"
                }
            },
            {
                "box": {
                    "id": "obj-17",
                    "maxclass": "newobj",
                    "numinlets": 2,
                    "numoutlets": 2,
                    "outlettype": [ "", "" ],
                    "patching_rect": [ 359.0, 179.0, 95.0, 22.0 ],
                    "text": "zl.reg get parent"
                }
            },
            {
                "box": {
                    "id": "obj-5",
                    "maxclass": "newobj",
                    "numinlets": 1,
                    "numoutlets": 3,
                    "outlettype": [ "int", "bang", "bang" ],
                    "patching_rect": [ 182.0, 119.0, 196.33333333333337, 22.0 ],
                    "text": "t i b b"
                }
            },
            {
                "box": {
                    "id": "obj-16",
                    "maxclass": "newobj",
                    "numinlets": 3,
                    "numoutlets": 3,
                    "outlettype": [ "", "", "" ],
                    "patching_rect": [ 318.0, 247.0, 142.0, 22.0 ],
                    "text": "route childrenmap parent"
                }
            },
            {
                "box": {
                    "id": "obj-1",
                    "maxclass": "newobj",
                    "numinlets": 2,
                    "numoutlets": 5,
                    "outlettype": [ "dictionary", "", "", "", "" ],
                    "patching_rect": [ 271.0, 216.0, 206.0, 22.0 ],
                    "saved_object_attributes": {
                        "legacy": 1,
                        "parameter_enable": 0,
                        "parameter_mappable": 0
                    },
                    "text": "dict #1.attr @legacy 1 @quiet 1"
                }
            },
            {
                "box": {
                    "id": "obj-34",
                    "maxclass": "newobj",
                    "numinlets": 2,
                    "numoutlets": 1,
                    "outlettype": [ "" ],
                    "patcher": {
                        "fileversion": 1,
                        "appversion": {
                            "major": 9,
                            "minor": 1,
                            "revision": 2,
                            "architecture": "x64",
                            "modernui": 1
                        },
                        "classnamespace": "box",
                        "rect": [ 259.0, 247.0, 302.0, 227.0 ],
                        "boxes": [
                            {
                                "box": {
                                    "id": "obj-7",
                                    "maxclass": "newobj",
                                    "numinlets": 2,
                                    "numoutlets": 2,
                                    "outlettype": [ "", "" ],
                                    "patching_rect": [ 49.0, 99.0, 150.0, 22.0 ],
                                    "text": "zl 32000 reg"
                                }
                            },
                            {
                                "box": {
                                    "comment": "parent index",
                                    "id": "obj-9",
                                    "index": 1,
                                    "maxclass": "outlet",
                                    "numinlets": 1,
                                    "numoutlets": 0,
                                    "patching_rect": [ 48.0, 164.0, 30.0, 30.0 ]
                                }
                            },
                            {
                                "box": {
                                    "id": "obj-8",
                                    "maxclass": "newobj",
                                    "numinlets": 2,
                                    "numoutlets": 2,
                                    "outlettype": [ "", "" ],
                                    "patching_rect": [ 48.0, 128.0, 93.0, 22.0 ],
                                    "text": "zl nth mth"
                                }
                            },
                            {
                                "box": {
                                    "comment": "",
                                    "id": "obj-6",
                                    "index": 2,
                                    "maxclass": "inlet",
                                    "numinlets": 0,
                                    "numoutlets": 1,
                                    "outlettype": [ "" ],
                                    "patching_rect": [ 180.0, 23.0, 30.0, 30.0 ]
                                }
                            },
                            {
                                "box": {
                                    "id": "obj-4",
                                    "maxclass": "newobj",
                                    "numinlets": 1,
                                    "numoutlets": 2,
                                    "outlettype": [ "bang", "int" ],
                                    "patching_rect": [ 48.0, 60.0, 93.0, 22.0 ],
                                    "text": "t b i"
                                }
                            },
                            {
                                "box": {
                                    "comment": "",
                                    "id": "obj-32",
                                    "index": 1,
                                    "maxclass": "inlet",
                                    "numinlets": 0,
                                    "numoutlets": 1,
                                    "outlettype": [ "" ],
                                    "patching_rect": [ 48.0, 22.0, 30.0, 30.0 ]
                                }
                            }
                        ],
                        "lines": [
                            {
                                "patchline": {
                                    "destination": [ "obj-4", 0 ],
                                    "source": [ "obj-32", 0 ]
                                }
                            },
                            {
                                "patchline": {
                                    "destination": [ "obj-7", 0 ],
                                    "source": [ "obj-4", 0 ]
                                }
                            },
                            {
                                "patchline": {
                                    "destination": [ "obj-8", 1 ],
                                    "source": [ "obj-4", 1 ]
                                }
                            },
                            {
                                "patchline": {
                                    "destination": [ "obj-7", 1 ],
                                    "source": [ "obj-6", 0 ]
                                }
                            },
                            {
                                "patchline": {
                                    "destination": [ "obj-8", 0 ],
                                    "source": [ "obj-7", 0 ]
                                }
                            },
                            {
                                "patchline": {
                                    "destination": [ "obj-9", 0 ],
                                    "source": [ "obj-8", 0 ]
                                }
                            }
                        ]
                    },
                    "patching_rect": [ 182.0, 276.0, 155.0, 22.0 ],
                    "text": "p get-address"
                }
            },
            {
                "box": {
                    "id": "obj-7",
                    "linecount": 2,
                    "maxclass": "newobj",
                    "numinlets": 1,
                    "numoutlets": 1,
                    "outlettype": [ "" ],
                    "patching_rect": [ 182.0, 191.0, 61.0, 35.0 ],
                    "text": "prepend chans"
                }
            },
            {
                "box": {
                    "id": "obj-2",
                    "maxclass": "message",
                    "numinlets": 2,
                    "numoutlets": 1,
                    "outlettype": [ "" ],
                    "patching_rect": [ 379.0, 276.0, 87.0, 22.0 ],
                    "text": "send $1.edited"
                }
            },
            {
                "box": {
                    "id": "obj-12",
                    "maxclass": "newobj",
                    "numinlets": 1,
                    "numoutlets": 0,
                    "patching_rect": [ 182.0, 320.0, 49.0, 22.0 ],
                    "text": "forward"
                }
            },
            {
                "box": {
                    "comment": "param index",
                    "id": "obj-4",
                    "index": 2,
                    "maxclass": "inlet",
                    "numinlets": 0,
                    "numoutlets": 1,
                    "outlettype": [ "int" ],
                    "patching_rect": [ 111.0, 53.0, 30.0, 30.0 ]
                }
            },
            {
                "box": {
                    "comment": "address count",
                    "id": "obj-10",
                    "index": 3,
                    "maxclass": "inlet",
                    "numinlets": 0,
                    "numoutlets": 1,
                    "outlettype": [ "int" ],
                    "patching_rect": [ 167.0, 53.0, 30.0, 30.0 ]
                }
            },
            {
                "box": {
                    "id": "obj-44",
                    "maxclass": "newobj",
                    "numinlets": 3,
                    "numoutlets": 2,
                    "outlettype": [ "", "" ],
                    "patcher": {
                        "fileversion": 1,
                        "appversion": {
                            "major": 9,
                            "minor": 1,
                            "revision": 2,
                            "architecture": "x64",
                            "modernui": 1
                        },
                        "classnamespace": "box",
                        "rect": [ 425.0, 401.0, 452.0, 308.0 ],
                        "boxes": [
                            {
                                "box": {
                                    "id": "obj-30",
                                    "maxclass": "newobj",
                                    "numinlets": 2,
                                    "numoutlets": 2,
                                    "outlettype": [ "", "" ],
                                    "patching_rect": [ 186.0, 198.0, 67.0, 22.0 ],
                                    "text": "route voice"
                                }
                            },
                            {
                                "box": {
                                    "comment": "",
                                    "id": "obj-4",
                                    "index": 2,
                                    "maxclass": "outlet",
                                    "numinlets": 1,
                                    "numoutlets": 0,
                                    "patching_rect": [ 186.0, 231.0, 30.0, 30.0 ]
                                }
                            },
                            {
                                "box": {
                                    "id": "obj-12",
                                    "linecount": 5,
                                    "maxclass": "comment",
                                    "numinlets": 1,
                                    "numoutlets": 0,
                                    "patching_rect": [ 216.0, 51.0, 151.0, 74.0 ],
                                    "text": "This qlim acts on a per-address basis and will *also* works for prevent high rates of \"setvalue\"  messages."
                                }
                            },
                            {
                                "box": {
                                    "id": "obj-11",
                                    "maxclass": "newobj",
                                    "numinlets": 1,
                                    "numoutlets": 1,
                                    "outlettype": [ "" ],
                                    "patching_rect": [ 23.0, 133.0, 53.0, 22.0 ],
                                    "text": "prepend"
                                }
                            },
                            {
                                "box": {
                                    "id": "obj-8",
                                    "maxclass": "newobj",
                                    "numinlets": 2,
                                    "numoutlets": 2,
                                    "outlettype": [ "", "" ],
                                    "patching_rect": [ 23.0, 167.84545454545457, 182.0, 22.0 ],
                                    "text": "mc.qlim 0 @chans 1"
                                }
                            },
                            {
                                "box": {
                                    "comment": "",
                                    "id": "obj-2",
                                    "index": 2,
                                    "maxclass": "inlet",
                                    "numinlets": 0,
                                    "numoutlets": 1,
                                    "outlettype": [ "int" ],
                                    "patching_rect": [ 65.5, 51.0, 30.0, 30.0 ]
                                }
                            },
                            {
                                "box": {
                                    "comment": "",
                                    "id": "obj-6",
                                    "index": 3,
                                    "maxclass": "inlet",
                                    "numinlets": 0,
                                    "numoutlets": 1,
                                    "outlettype": [ "" ],
                                    "patching_rect": [ 165.0, 51.0, 30.0, 30.0 ]
                                }
                            },
                            {
                                "box": {
                                    "id": "obj-31",
                                    "linecount": 2,
                                    "maxclass": "newobj",
                                    "numinlets": 1,
                                    "numoutlets": 1,
                                    "outlettype": [ "" ],
                                    "patching_rect": [ 65.5, 86.0, 79.0, 35.0 ],
                                    "text": "prepend set setvalue"
                                }
                            },
                            {
                                "box": {
                                    "comment": "",
                                    "id": "obj-42",
                                    "index": 1,
                                    "maxclass": "inlet",
                                    "numinlets": 0,
                                    "numoutlets": 1,
                                    "outlettype": [ "int" ],
                                    "patching_rect": [ 23.0, 50.0, 30.0, 30.0 ]
                                }
                            },
                            {
                                "box": {
                                    "comment": "",
                                    "id": "obj-43",
                                    "index": 1,
                                    "maxclass": "outlet",
                                    "numinlets": 1,
                                    "numoutlets": 0,
                                    "patching_rect": [ 23.0, 231.0, 30.0, 30.0 ]
                                }
                            }
                        ],
                        "lines": [
                            {
                                "patchline": {
                                    "destination": [ "obj-8", 0 ],
                                    "source": [ "obj-11", 0 ]
                                }
                            },
                            {
                                "patchline": {
                                    "destination": [ "obj-31", 0 ],
                                    "source": [ "obj-2", 0 ]
                                }
                            },
                            {
                                "patchline": {
                                    "destination": [ "obj-4", 0 ],
                                    "source": [ "obj-30", 0 ]
                                }
                            },
                            {
                                "patchline": {
                                    "destination": [ "obj-11", 0 ],
                                    "midpoints": [ 75.0, 127.75, 32.5, 127.75 ],
                                    "source": [ "obj-31", 0 ]
                                }
                            },
                            {
                                "patchline": {
                                    "destination": [ "obj-11", 0 ],
                                    "source": [ "obj-42", 0 ]
                                }
                            },
                            {
                                "patchline": {
                                    "destination": [ "obj-8", 0 ],
                                    "midpoints": [ 174.5, 159.5, 32.5, 159.5 ],
                                    "source": [ "obj-6", 0 ]
                                }
                            },
                            {
                                "patchline": {
                                    "destination": [ "obj-30", 0 ],
                                    "source": [ "obj-8", 1 ]
                                }
                            },
                            {
                                "patchline": {
                                    "destination": [ "obj-43", 0 ],
                                    "source": [ "obj-8", 0 ]
                                }
                            }
                        ]
                    },
                    "patching_rect": [ 40.0, 235.0, 161.0, 22.0 ],
                    "text": "p qlim?"
                }
            },
            {
                "box": {
                    "comment": "value",
                    "id": "obj-15",
                    "index": 1,
                    "maxclass": "inlet",
                    "numinlets": 0,
                    "numoutlets": 1,
                    "outlettype": [ "int" ],
                    "patching_rect": [ 40.0, 53.0, 30.0, 30.0 ]
                }
            }
        ],
        "lines": [
            {
                "patchline": {
                    "destination": [ "obj-16", 0 ],
                    "source": [ "obj-1", 1 ]
                }
            },
            {
                "patchline": {
                    "destination": [ "obj-6", 0 ],
                    "source": [ "obj-10", 0 ]
                }
            },
            {
                "patchline": {
                    "destination": [ "obj-44", 0 ],
                    "source": [ "obj-15", 0 ]
                }
            },
            {
                "patchline": {
                    "destination": [ "obj-2", 0 ],
                    "source": [ "obj-16", 1 ]
                }
            },
            {
                "patchline": {
                    "destination": [ "obj-34", 1 ],
                    "source": [ "obj-16", 0 ]
                }
            },
            {
                "patchline": {
                    "destination": [ "obj-1", 0 ],
                    "source": [ "obj-17", 0 ]
                }
            },
            {
                "patchline": {
                    "destination": [ "obj-12", 0 ],
                    "source": [ "obj-2", 0 ]
                }
            },
            {
                "patchline": {
                    "destination": [ "obj-1", 0 ],
                    "source": [ "obj-23", 0 ]
                }
            },
            {
                "patchline": {
                    "destination": [ "obj-12", 0 ],
                    "source": [ "obj-34", 0 ]
                }
            },
            {
                "patchline": {
                    "destination": [ "obj-44", 1 ],
                    "source": [ "obj-4", 0 ]
                }
            },
            {
                "patchline": {
                    "destination": [ "obj-25", 1 ],
                    "order": 1,
                    "source": [ "obj-44", 1 ]
                }
            },
            {
                "patchline": {
                    "destination": [ "obj-25", 0 ],
                    "source": [ "obj-44", 0 ]
                }
            },
            {
                "patchline": {
                    "destination": [ "obj-34", 0 ],
                    "order": 0,
                    "source": [ "obj-44", 1 ]
                }
            },
            {
                "patchline": {
                    "destination": [ "obj-17", 0 ],
                    "source": [ "obj-5", 2 ]
                }
            },
            {
                "patchline": {
                    "destination": [ "obj-23", 0 ],
                    "source": [ "obj-5", 1 ]
                }
            },
            {
                "patchline": {
                    "destination": [ "obj-7", 0 ],
                    "source": [ "obj-5", 0 ]
                }
            },
            {
                "patchline": {
                    "destination": [ "obj-5", 0 ],
                    "source": [ "obj-6", 1 ]
                }
            },
            {
                "patchline": {
                    "destination": [ "obj-44", 2 ],
                    "source": [ "obj-7", 0 ]
                }
            }
        ]
    }
}