{
    "patcher": {
        "fileversion": 1,
        "appversion": {
            "major": 9,
            "minor": 1,
            "revision": 2,
            "architecture": "x64",
            "modernui": 1
        },
        "classnamespace": "box",
        "rect": [ 176.0, 351.0, 1191.0, 554.0 ],
        "boxes": [
            {
                "box": {
                    "id": "obj-12",
                    "maxclass": "newobj",
                    "numinlets": 0,
                    "numoutlets": 1,
                    "outlettype": [ "" ],
                    "patcher": {
                        "fileversion": 1,
                        "appversion": {
                            "major": 9,
                            "minor": 1,
                            "revision": 2,
                            "architecture": "x64",
                            "modernui": 1
                        },
                        "classnamespace": "box",
                        "rect": [ 59.0, 119.0, 352.0, 364.0 ],
                        "boxes": [
                            {
                                "box": {
                                    "id": "obj-1",
                                    "maxclass": "newobj",
                                    "numinlets": 2,
                                    "numoutlets": 2,
                                    "outlettype": [ "", "" ],
                                    "patching_rect": [ 50.0, 200.0, 163.0, 22.0 ],
                                    "text": "zl.reg replace type undefined"
                                }
                            },
                            {
                                "box": {
                                    "id": "obj-34",
                                    "maxclass": "newobj",
                                    "numinlets": 2,
                                    "numoutlets": 2,
                                    "outlettype": [ "", "" ],
                                    "patching_rect": [ 73.0, 171.0, 137.0, 22.0 ],
                                    "text": "zl.reg replace uid #1"
                                }
                            },
                            {
                                "box": {
                                    "id": "obj-6",
                                    "maxclass": "newobj",
                                    "numinlets": 1,
                                    "numoutlets": 1,
                                    "outlettype": [ "bang" ],
                                    "patching_rect": [ 50.0, 137.0, 58.0, 22.0 ],
                                    "text": "loadbang"
                                }
                            },
                            {
                                "box": {
                                    "comment": "",
                                    "id": "obj-10",
                                    "index": 1,
                                    "maxclass": "outlet",
                                    "numinlets": 1,
                                    "numoutlets": 0,
                                    "patching_rect": [ 50.0, 251.0, 30.0, 30.0 ]
                                }
                            }
                        ],
                        "lines": [
                            {
                                "patchline": {
                                    "destination": [ "obj-10", 0 ],
                                    "source": [ "obj-1", 0 ]
                                }
                            },
                            {
                                "patchline": {
                                    "destination": [ "obj-10", 0 ],
                                    "source": [ "obj-34", 0 ]
                                }
                            },
                            {
                                "patchline": {
                                    "destination": [ "obj-1", 0 ],
                                    "order": 1,
                                    "source": [ "obj-6", 0 ]
                                }
                            },
                            {
                                "patchline": {
                                    "destination": [ "obj-34", 0 ],
                                    "order": 0,
                                    "source": [ "obj-6", 0 ]
                                }
                            }
                        ]
                    },
                    "patching_rect": [ 521.0, 441.0, 108.0, 22.0 ],
                    "text": "p default-attributes"
                }
            },
            {
                "box": {
                    "id": "obj-26",
                    "maxclass": "newobj",
                    "numinlets": 1,
                    "numoutlets": 1,
                    "outlettype": [ "" ],
                    "patcher": {
                        "fileversion": 1,
                        "appversion": {
                            "major": 9,
                            "minor": 1,
                            "revision": 2,
                            "architecture": "x64",
                            "modernui": 1
                        },
                        "classnamespace": "box",
                        "rect": [ 59.0, 119.0, 478.0, 361.0 ],
                        "boxes": [
                            {
                                "box": {
                                    "id": "obj-3",
                                    "linecount": 3,
                                    "maxclass": "comment",
                                    "numinlets": 1,
                                    "numoutlets": 0,
                                    "patching_rect": [ 57.0, 73.0, 75.0, 47.0 ],
                                    "text": "If no arg, remove the attribute."
                                }
                            },
                            {
                                "box": {
                                    "id": "obj-14",
                                    "maxclass": "newobj",
                                    "numinlets": 1,
                                    "numoutlets": 1,
                                    "outlettype": [ "" ],
                                    "patching_rect": [ 153.0, 235.0, 95.0, 22.0 ],
                                    "text": "prepend replace"
                                }
                            },
                            {
                                "box": {
                                    "id": "obj-10",
                                    "maxclass": "newobj",
                                    "numinlets": 1,
                                    "numoutlets": 1,
                                    "outlettype": [ "" ],
                                    "patching_rect": [ 50.0, 235.0, 96.0, 22.0 ],
                                    "text": "prepend remove"
                                }
                            },
                            {
                                "box": {
                                    "id": "obj-1",
                                    "maxclass": "newobj",
                                    "numinlets": 2,
                                    "numoutlets": 1,
                                    "outlettype": [ "int" ],
                                    "patching_rect": [ 172.0, 175.0, 29.5, 22.0 ],
                                    "text": "+ 1"
                                }
                            },
                            {
                                "box": {
                                    "id": "obj-6",
                                    "maxclass": "newobj",
                                    "numinlets": 2,
                                    "numoutlets": 1,
                                    "outlettype": [ "int" ],
                                    "patching_rect": [ 172.0, 150.0, 29.5, 22.0 ],
                                    "text": "> 1"
                                }
                            },
                            {
                                "box": {
                                    "id": "obj-15",
                                    "maxclass": "newobj",
                                    "numinlets": 2,
                                    "numoutlets": 2,
                                    "outlettype": [ "", "" ],
                                    "patching_rect": [ 50.0, 208.0, 122.0, 22.0 ],
                                    "text": "gate 2 0"
                                }
                            },
                            {
                                "box": {
                                    "id": "obj-7",
                                    "maxclass": "newobj",
                                    "numinlets": 2,
                                    "numoutlets": 2,
                                    "outlettype": [ "", "" ],
                                    "patching_rect": [ 172.0, 125.0, 73.0, 22.0 ],
                                    "text": "zl 16000 len"
                                }
                            },
                            {
                                "box": {
                                    "id": "obj-12",
                                    "maxclass": "newobj",
                                    "numinlets": 1,
                                    "numoutlets": 2,
                                    "outlettype": [ "", "" ],
                                    "patching_rect": [ 153.0, 100.0, 37.5, 22.0 ],
                                    "text": "t l l"
                                }
                            },
                            {
                                "box": {
                                    "comment": "",
                                    "id": "obj-22",
                                    "index": 1,
                                    "maxclass": "inlet",
                                    "numinlets": 0,
                                    "numoutlets": 1,
                                    "outlettype": [ "" ],
                                    "patching_rect": [ 153.0, 40.0, 30.0, 30.0 ]
                                }
                            },
                            {
                                "box": {
                                    "comment": "",
                                    "id": "obj-25",
                                    "index": 1,
                                    "maxclass": "outlet",
                                    "numinlets": 1,
                                    "numoutlets": 0,
                                    "patching_rect": [ 50.0, 282.0, 30.0, 30.0 ]
                                }
                            }
                        ],
                        "lines": [
                            {
                                "patchline": {
                                    "destination": [ "obj-15", 0 ],
                                    "source": [ "obj-1", 0 ]
                                }
                            },
                            {
                                "patchline": {
                                    "destination": [ "obj-25", 0 ],
                                    "source": [ "obj-10", 0 ]
                                }
                            },
                            {
                                "patchline": {
                                    "destination": [ "obj-15", 1 ],
                                    "source": [ "obj-12", 0 ]
                                }
                            },
                            {
                                "patchline": {
                                    "destination": [ "obj-7", 0 ],
                                    "source": [ "obj-12", 1 ]
                                }
                            },
                            {
                                "patchline": {
                                    "destination": [ "obj-25", 0 ],
                                    "source": [ "obj-14", 0 ]
                                }
                            },
                            {
                                "patchline": {
                                    "destination": [ "obj-10", 0 ],
                                    "source": [ "obj-15", 0 ]
                                }
                            },
                            {
                                "patchline": {
                                    "destination": [ "obj-14", 0 ],
                                    "source": [ "obj-15", 1 ]
                                }
                            },
                            {
                                "patchline": {
                                    "destination": [ "obj-12", 0 ],
                                    "source": [ "obj-22", 0 ]
                                }
                            },
                            {
                                "patchline": {
                                    "destination": [ "obj-1", 0 ],
                                    "source": [ "obj-6", 0 ]
                                }
                            },
                            {
                                "patchline": {
                                    "destination": [ "obj-6", 0 ],
                                    "source": [ "obj-7", 0 ]
                                }
                            }
                        ]
                    },
                    "patching_rect": [ 494.0, 251.0, 104.0, 22.0 ],
                    "text": "p \"add or remove\""
                }
            },
            {
                "box": {
                    "id": "obj-21",
                    "maxclass": "newobj",
                    "numinlets": 1,
                    "numoutlets": 2,
                    "outlettype": [ "int", "" ],
                    "patching_rect": [ 201.0, 315.0, 29.5, 22.0 ],
                    "text": "t 0 l"
                }
            },
            {
                "box": {
                    "id": "obj-20",
                    "maxclass": "newobj",
                    "numinlets": 2,
                    "numoutlets": 1,
                    "outlettype": [ "" ],
                    "patching_rect": [ 85.0, 387.0, 52.0, 22.0 ],
                    "text": "gate 1 1"
                }
            },
            {
                "box": {
                    "id": "obj-2",
                    "maxclass": "newobj",
                    "numinlets": 1,
                    "numoutlets": 1,
                    "outlettype": [ "bang" ],
                    "patching_rect": [ 860.9999999999998, 237.0, 22.0, 22.0 ],
                    "text": "t b"
                }
            },
            {
                "box": {
                    "id": "obj-36",
                    "maxclass": "newobj",
                    "numinlets": 1,
                    "numoutlets": 4,
                    "outlettype": [ "", "", "int", "bang" ],
                    "patcher": {
                        "fileversion": 1,
                        "appversion": {
                            "major": 9,
                            "minor": 1,
                            "revision": 2,
                            "architecture": "x64",
                            "modernui": 1
                        },
                        "classnamespace": "box",
                        "rect": [ 59.0, 106.0, 640.0, 480.0 ],
                        "boxes": [
                            {
                                "box": {
                                    "comment": "",
                                    "id": "obj-3",
                                    "index": 3,
                                    "maxclass": "outlet",
                                    "numinlets": 1,
                                    "numoutlets": 0,
                                    "patching_rect": [ 89.0, 248.0, 30.0, 30.0 ]
                                }
                            },
                            {
                                "box": {
                                    "id": "obj-4",
                                    "linecount": 2,
                                    "maxclass": "comment",
                                    "numinlets": 1,
                                    "numoutlets": 0,
                                    "patching_rect": [ 89.0, 50.0, 305.0, 33.0 ],
                                    "text": "Retrigger declaration if parent, address or type changes\nReparse value if param clamping changes"
                                }
                            },
                            {
                                "box": {
                                    "id": "obj-2",
                                    "maxclass": "newobj",
                                    "numinlets": 1,
                                    "numoutlets": 1,
                                    "outlettype": [ "" ],
                                    "patching_rect": [ 151.0, 248.0, 54.0, 22.0 ],
                                    "text": "deferlow"
                                }
                            },
                            {
                                "box": {
                                    "id": "obj-1",
                                    "maxclass": "newobj",
                                    "numinlets": 1,
                                    "numoutlets": 2,
                                    "outlettype": [ "bang", "bang" ],
                                    "patching_rect": [ 151.0, 211.0, 76.0, 22.0 ],
                                    "text": "t b b"
                                }
                            },
                            {
                                "box": {
                                    "id": "obj-32",
                                    "maxclass": "newobj",
                                    "numinlets": 2,
                                    "numoutlets": 2,
                                    "outlettype": [ "", "" ],
                                    "patching_rect": [ 151.0, 285.0, 85.0, 22.0 ],
                                    "text": "zl.reg 0 #1"
                                }
                            },
                            {
                                "box": {
                                    "id": "obj-33",
                                    "maxclass": "newobj",
                                    "numinlets": 1,
                                    "numoutlets": 0,
                                    "patching_rect": [ 151.0, 315.0, 119.0, 22.0 ],
                                    "text": "s mvc.param-current"
                                }
                            },
                            {
                                "box": {
                                    "id": "obj-25",
                                    "maxclass": "newobj",
                                    "numinlets": 1,
                                    "numoutlets": 2,
                                    "outlettype": [ "bang", "" ],
                                    "patching_rect": [ 151.33333333333331, 137.0, 137.0, 22.0 ],
                                    "text": "t b l"
                                }
                            },
                            {
                                "box": {
                                    "id": "obj-21",
                                    "maxclass": "newobj",
                                    "numinlets": 2,
                                    "numoutlets": 1,
                                    "outlettype": [ "" ],
                                    "patching_rect": [ 50.0, 166.0, 41.0, 22.0 ],
                                    "text": "qlim 0"
                                }
                            },
                            {
                                "box": {
                                    "id": "obj-44",
                                    "maxclass": "newobj",
                                    "numinlets": 1,
                                    "numoutlets": 3,
                                    "outlettype": [ "bang", "", "int" ],
                                    "patching_rect": [ 50.0, 137.0, 40.0, 22.0 ],
                                    "text": "t b l 1"
                                }
                            },
                            {
                                "box": {
                                    "id": "obj-42",
                                    "maxclass": "newobj",
                                    "numinlets": 9,
                                    "numoutlets": 9,
                                    "outlettype": [ "", "", "", "", "", "", "", "", "" ],
                                    "patching_rect": [ 50.0, 100.0, 424.33333333333326, 22.0 ],
                                    "text": "routepass parent address type clip range min max options"
                                }
                            },
                            {
                                "box": {
                                    "id": "obj-36",
                                    "maxclass": "newobj",
                                    "numinlets": 2,
                                    "numoutlets": 1,
                                    "outlettype": [ "" ],
                                    "patching_rect": [ 151.33333333333331, 166.0, 41.0, 22.0 ],
                                    "text": "qlim 0"
                                }
                            },
                            {
                                "box": {
                                    "comment": "",
                                    "id": "obj-26",
                                    "index": 1,
                                    "maxclass": "inlet",
                                    "numinlets": 0,
                                    "numoutlets": 1,
                                    "outlettype": [ "" ],
                                    "patching_rect": [ 50.0, 40.0, 30.0, 30.0 ]
                                }
                            },
                            {
                                "box": {
                                    "comment": "",
                                    "id": "obj-27",
                                    "index": 1,
                                    "maxclass": "outlet",
                                    "numinlets": 1,
                                    "numoutlets": 0,
                                    "patching_rect": [ 14.0, 248.0, 30.0, 30.0 ]
                                }
                            },
                            {
                                "box": {
                                    "comment": "",
                                    "id": "obj-29",
                                    "index": 2,
                                    "maxclass": "outlet",
                                    "numinlets": 1,
                                    "numoutlets": 0,
                                    "patching_rect": [ 50.0, 248.0, 30.0, 30.0 ]
                                }
                            },
                            {
                                "box": {
                                    "comment": "",
                                    "id": "obj-30",
                                    "index": 4,
                                    "maxclass": "outlet",
                                    "numinlets": 1,
                                    "numoutlets": 0,
                                    "patching_rect": [ 208.0, 244.0, 30.0, 30.0 ]
                                }
                            }
                        ],
                        "lines": [
                            {
                                "patchline": {
                                    "destination": [ "obj-2", 0 ],
                                    "source": [ "obj-1", 0 ]
                                }
                            },
                            {
                                "patchline": {
                                    "destination": [ "obj-30", 0 ],
                                    "source": [ "obj-1", 1 ]
                                }
                            },
                            {
                                "patchline": {
                                    "destination": [ "obj-32", 0 ],
                                    "source": [ "obj-2", 0 ]
                                }
                            },
                            {
                                "patchline": {
                                    "destination": [ "obj-29", 0 ],
                                    "source": [ "obj-21", 0 ]
                                }
                            },
                            {
                                "patchline": {
                                    "destination": [ "obj-27", 0 ],
                                    "source": [ "obj-25", 1 ]
                                }
                            },
                            {
                                "patchline": {
                                    "destination": [ "obj-36", 0 ],
                                    "source": [ "obj-25", 0 ]
                                }
                            },
                            {
                                "patchline": {
                                    "destination": [ "obj-42", 0 ],
                                    "source": [ "obj-26", 0 ]
                                }
                            },
                            {
                                "patchline": {
                                    "destination": [ "obj-33", 0 ],
                                    "source": [ "obj-32", 0 ]
                                }
                            },
                            {
                                "patchline": {
                                    "destination": [ "obj-1", 0 ],
                                    "source": [ "obj-36", 0 ]
                                }
                            },
                            {
                                "patchline": {
                                    "destination": [ "obj-25", 0 ],
                                    "source": [ "obj-42", 7 ]
                                }
                            },
                            {
                                "patchline": {
                                    "destination": [ "obj-25", 0 ],
                                    "source": [ "obj-42", 6 ]
                                }
                            },
                            {
                                "patchline": {
                                    "destination": [ "obj-25", 0 ],
                                    "source": [ "obj-42", 5 ]
                                }
                            },
                            {
                                "patchline": {
                                    "destination": [ "obj-25", 0 ],
                                    "source": [ "obj-42", 4 ]
                                }
                            },
                            {
                                "patchline": {
                                    "destination": [ "obj-25", 0 ],
                                    "source": [ "obj-42", 3 ]
                                }
                            },
                            {
                                "patchline": {
                                    "destination": [ "obj-25", 0 ],
                                    "source": [ "obj-42", 2 ]
                                }
                            },
                            {
                                "patchline": {
                                    "destination": [ "obj-27", 0 ],
                                    "source": [ "obj-42", 8 ]
                                }
                            },
                            {
                                "patchline": {
                                    "destination": [ "obj-44", 0 ],
                                    "midpoints": [ 110.16666666666666, 129.0, 59.5, 129.0 ],
                                    "source": [ "obj-42", 1 ]
                                }
                            },
                            {
                                "patchline": {
                                    "destination": [ "obj-44", 0 ],
                                    "source": [ "obj-42", 0 ]
                                }
                            },
                            {
                                "patchline": {
                                    "destination": [ "obj-21", 0 ],
                                    "source": [ "obj-44", 0 ]
                                }
                            },
                            {
                                "patchline": {
                                    "destination": [ "obj-27", 0 ],
                                    "source": [ "obj-44", 1 ]
                                }
                            },
                            {
                                "patchline": {
                                    "destination": [ "obj-3", 0 ],
                                    "source": [ "obj-44", 2 ]
                                }
                            }
                        ]
                    },
                    "patching_rect": [ 243.0, 119.0, 65.0, 22.0 ],
                    "text": "p retrig-init"
                }
            },
            {
                "box": {
                    "id": "obj-53",
                    "maxclass": "comment",
                    "numinlets": 1,
                    "numoutlets": 0,
                    "patching_rect": [ 150.0, 97.0, 96.0, 20.0 ],
                    "text": "done comes last"
                }
            },
            {
                "box": {
                    "id": "obj-41",
                    "maxclass": "newobj",
                    "numinlets": 1,
                    "numoutlets": 1,
                    "outlettype": [ "" ],
                    "patcher": {
                        "fileversion": 1,
                        "appversion": {
                            "major": 9,
                            "minor": 1,
                            "revision": 2,
                            "architecture": "x64",
                            "modernui": 1
                        },
                        "classnamespace": "box",
                        "rect": [ 59.0, 106.0, 363.0, 349.0 ],
                        "boxes": [
                            {
                                "box": {
                                    "id": "obj-26",
                                    "linecount": 2,
                                    "maxclass": "comment",
                                    "numinlets": 1,
                                    "numoutlets": 0,
                                    "patching_rect": [ 120.0, 64.0, 150.0, 33.0 ],
                                    "text": "if only 1 arg, it's the address"
                                }
                            },
                            {
                                "box": {
                                    "id": "obj-8",
                                    "maxclass": "newobj",
                                    "numinlets": 1,
                                    "numoutlets": 2,
                                    "outlettype": [ "", "" ],
                                    "patching_rect": [ 50.0, 67.0, 29.5, 22.0 ],
                                    "text": "t l l"
                                }
                            },
                            {
                                "box": {
                                    "id": "obj-5",
                                    "maxclass": "newobj",
                                    "numinlets": 2,
                                    "numoutlets": 2,
                                    "outlettype": [ "int", "int" ],
                                    "patching_rect": [ 63.0, 127.0, 67.0, 22.0 ],
                                    "text": "minimum 2"
                                }
                            },
                            {
                                "box": {
                                    "id": "obj-4",
                                    "maxclass": "newobj",
                                    "numinlets": 2,
                                    "numoutlets": 2,
                                    "outlettype": [ "", "" ],
                                    "patching_rect": [ 17.0, 167.0, 52.0, 22.0 ],
                                    "text": "gate 2 1"
                                }
                            },
                            {
                                "box": {
                                    "id": "obj-1",
                                    "maxclass": "newobj",
                                    "numinlets": 2,
                                    "numoutlets": 2,
                                    "outlettype": [ "", "" ],
                                    "patching_rect": [ 63.0, 99.0, 37.0, 22.0 ],
                                    "text": "zl.len"
                                }
                            },
                            {
                                "box": {
                                    "id": "obj-20",
                                    "maxclass": "newobj",
                                    "numinlets": 1,
                                    "numoutlets": 1,
                                    "outlettype": [ "" ],
                                    "patching_rect": [ 50.0, 243.0, 90.0, 22.0 ],
                                    "text": "prepend parent"
                                }
                            },
                            {
                                "box": {
                                    "id": "obj-21",
                                    "maxclass": "newobj",
                                    "numinlets": 1,
                                    "numoutlets": 1,
                                    "outlettype": [ "" ],
                                    "patching_rect": [ 148.0, 243.0, 99.0, 22.0 ],
                                    "text": "prepend address"
                                }
                            },
                            {
                                "box": {
                                    "id": "obj-25",
                                    "maxclass": "newobj",
                                    "numinlets": 2,
                                    "numoutlets": 2,
                                    "outlettype": [ "", "" ],
                                    "patching_rect": [ 50.0, 199.0, 117.0, 22.0 ],
                                    "text": "zl slice 1"
                                }
                            },
                            {
                                "box": {
                                    "comment": "",
                                    "id": "obj-38",
                                    "index": 1,
                                    "maxclass": "inlet",
                                    "numinlets": 0,
                                    "numoutlets": 1,
                                    "outlettype": [ "" ],
                                    "patching_rect": [ 50.0, 33.0, 30.0, 30.0 ]
                                }
                            },
                            {
                                "box": {
                                    "comment": "",
                                    "id": "obj-40",
                                    "index": 1,
                                    "maxclass": "outlet",
                                    "numinlets": 1,
                                    "numoutlets": 0,
                                    "patching_rect": [ 50.0, 279.0, 30.0, 30.0 ]
                                }
                            }
                        ],
                        "lines": [
                            {
                                "patchline": {
                                    "destination": [ "obj-5", 0 ],
                                    "source": [ "obj-1", 0 ]
                                }
                            },
                            {
                                "patchline": {
                                    "destination": [ "obj-40", 0 ],
                                    "source": [ "obj-20", 0 ]
                                }
                            },
                            {
                                "patchline": {
                                    "destination": [ "obj-40", 0 ],
                                    "source": [ "obj-21", 0 ]
                                }
                            },
                            {
                                "patchline": {
                                    "destination": [ "obj-20", 0 ],
                                    "source": [ "obj-25", 0 ]
                                }
                            },
                            {
                                "patchline": {
                                    "destination": [ "obj-21", 0 ],
                                    "source": [ "obj-25", 1 ]
                                }
                            },
                            {
                                "patchline": {
                                    "destination": [ "obj-8", 0 ],
                                    "source": [ "obj-38", 0 ]
                                }
                            },
                            {
                                "patchline": {
                                    "destination": [ "obj-21", 0 ],
                                    "midpoints": [ 26.5, 234.5, 157.5, 234.5 ],
                                    "source": [ "obj-4", 0 ]
                                }
                            },
                            {
                                "patchline": {
                                    "destination": [ "obj-25", 0 ],
                                    "source": [ "obj-4", 1 ]
                                }
                            },
                            {
                                "patchline": {
                                    "destination": [ "obj-4", 0 ],
                                    "source": [ "obj-5", 0 ]
                                }
                            },
                            {
                                "patchline": {
                                    "destination": [ "obj-1", 0 ],
                                    "source": [ "obj-8", 1 ]
                                }
                            },
                            {
                                "patchline": {
                                    "destination": [ "obj-4", 1 ],
                                    "source": [ "obj-8", 0 ]
                                }
                            }
                        ]
                    },
                    "patching_rect": [ 12.0, 119.0, 102.0, 22.0 ],
                    "text": "p parent+address"
                }
            },
            {
                "box": {
                    "id": "obj-28",
                    "maxclass": "newobj",
                    "numinlets": 2,
                    "numoutlets": 2,
                    "outlettype": [ "bang", "" ],
                    "patching_rect": [ 118.0, 119.0, 102.0, 22.0 ],
                    "text": "sel done"
                }
            },
            {
                "box": {
                    "comment": "messages from input right inlet",
                    "id": "obj-16",
                    "index": 2,
                    "maxclass": "inlet",
                    "numinlets": 0,
                    "numoutlets": 1,
                    "outlettype": [ "" ],
                    "patching_rect": [ 118.0, 80.0, 30.0, 30.0 ]
                }
            },
            {
                "box": {
                    "comment": "messages from input right inlet",
                    "id": "obj-5",
                    "index": 3,
                    "maxclass": "inlet",
                    "numinlets": 0,
                    "numoutlets": 1,
                    "outlettype": [ "" ],
                    "patching_rect": [ 243.0, 81.0, 30.0, 30.0 ]
                }
            },
            {
                "box": {
                    "comment": "retrig type",
                    "id": "obj-35",
                    "index": 2,
                    "maxclass": "outlet",
                    "numinlets": 1,
                    "numoutlets": 0,
                    "patching_rect": [ 196.0, 476.0, 30.0, 30.0 ]
                }
            },
            {
                "box": {
                    "id": "obj-23",
                    "maxclass": "newobj",
                    "numinlets": 1,
                    "numoutlets": 1,
                    "outlettype": [ "" ],
                    "patcher": {
                        "fileversion": 1,
                        "appversion": {
                            "major": 9,
                            "minor": 1,
                            "revision": 2,
                            "architecture": "x64",
                            "modernui": 1
                        },
                        "classnamespace": "box",
                        "rect": [ 59.0, 106.0, 640.0, 480.0 ],
                        "boxes": [
                            {
                                "box": {
                                    "id": "obj-16",
                                    "maxclass": "newobj",
                                    "numinlets": 2,
                                    "numoutlets": 2,
                                    "outlettype": [ "", "" ],
                                    "patching_rect": [ 61.0, 131.0, 76.0, 22.0 ],
                                    "text": "zl.reg level 2"
                                }
                            },
                            {
                                "box": {
                                    "id": "obj-20",
                                    "maxclass": "newobj",
                                    "numinlets": 1,
                                    "numoutlets": 2,
                                    "outlettype": [ "", "bang" ],
                                    "patching_rect": [ 50.0, 100.0, 29.5, 22.0 ],
                                    "text": "t l b"
                                }
                            },
                            {
                                "box": {
                                    "comment": "",
                                    "id": "obj-21",
                                    "index": 1,
                                    "maxclass": "inlet",
                                    "numinlets": 0,
                                    "numoutlets": 1,
                                    "outlettype": [ "" ],
                                    "patching_rect": [ 50.0, 40.0, 30.0, 30.0 ]
                                }
                            },
                            {
                                "box": {
                                    "comment": "",
                                    "id": "obj-22",
                                    "index": 1,
                                    "maxclass": "outlet",
                                    "numinlets": 1,
                                    "numoutlets": 0,
                                    "patching_rect": [ 49.5, 213.0, 30.0, 30.0 ]
                                }
                            }
                        ],
                        "lines": [
                            {
                                "patchline": {
                                    "destination": [ "obj-22", 0 ],
                                    "source": [ "obj-16", 0 ]
                                }
                            },
                            {
                                "patchline": {
                                    "destination": [ "obj-16", 0 ],
                                    "source": [ "obj-20", 1 ]
                                }
                            },
                            {
                                "patchline": {
                                    "destination": [ "obj-22", 0 ],
                                    "source": [ "obj-20", 0 ]
                                }
                            },
                            {
                                "patchline": {
                                    "destination": [ "obj-20", 0 ],
                                    "source": [ "obj-21", 0 ]
                                }
                            }
                        ]
                    },
                    "patching_rect": [ 201.0, 287.0, 44.0, 22.0 ],
                    "text": "p error"
                }
            },
            {
                "box": {
                    "comment": "retrig init",
                    "id": "obj-3",
                    "index": 1,
                    "maxclass": "outlet",
                    "numinlets": 1,
                    "numoutlets": 0,
                    "patching_rect": [ 85.0, 476.0, 30.0, 30.0 ]
                }
            },
            {
                "box": {
                    "id": "obj-9",
                    "maxclass": "newobj",
                    "numinlets": 2,
                    "numoutlets": 2,
                    "outlettype": [ "", "" ],
                    "patching_rect": [ 930.0, 269.0, 76.0, 22.0 ],
                    "text": "zl.reg level 1"
                }
            },
            {
                "box": {
                    "id": "obj-4",
                    "maxclass": "newobj",
                    "numinlets": 1,
                    "numoutlets": 2,
                    "outlettype": [ "", "bang" ],
                    "patching_rect": [ 916.0, 237.0, 29.5, 22.0 ],
                    "text": "t l b"
                }
            },
            {
                "box": {
                    "fontsize": 12.0,
                    "id": "obj-8",
                    "maxclass": "newobj",
                    "numinlets": 1,
                    "numoutlets": 2,
                    "outlettype": [ "", "" ],
                    "patcher": {
                        "fileversion": 1,
                        "appversion": {
                            "major": 9,
                            "minor": 1,
                            "revision": 2,
                            "architecture": "x64",
                            "modernui": 1
                        },
                        "classnamespace": "box",
                        "rect": [ 423.0, 214.0, 739.0, 319.0 ],
                        "boxes": [
                            {
                                "box": {
                                    "id": "obj-39",
                                    "linecount": 2,
                                    "maxclass": "newobj",
                                    "numinlets": 1,
                                    "numoutlets": 1,
                                    "outlettype": [ "" ],
                                    "patching_rect": [ 419.1666666666667, 154.0, 155.0, 35.0 ],
                                    "text": "prepend parent contains illegal characters:"
                                }
                            },
                            {
                                "box": {
                                    "fontname": "Arial",
                                    "fontsize": 13.0,
                                    "id": "obj-21",
                                    "maxclass": "newobj",
                                    "numinlets": 1,
                                    "numoutlets": 5,
                                    "outlettype": [ "", "", "", "", "" ],
                                    "patching_rect": [ 419.1666666666667, 117.0, 228.0, 23.0 ],
                                    "saved_object_attributes": {
                                        "legacyoutputorder": 1
                                    },
                                    "text": "regexp :|/|\\\\\\\\|\\\\?|\\\\*|\\\\||\\\\s|\\\\t @tosymbol"
                                }
                            },
                            {
                                "box": {
                                    "id": "obj-5",
                                    "maxclass": "newobj",
                                    "numinlets": 1,
                                    "numoutlets": 1,
                                    "outlettype": [ "" ],
                                    "patching_rect": [ 326.5, 171.0, 57.0, 22.0 ],
                                    "text": "tosymbol"
                                }
                            },
                            {
                                "box": {
                                    "id": "obj-25",
                                    "maxclass": "newobj",
                                    "numinlets": 1,
                                    "numoutlets": 1,
                                    "outlettype": [ "" ],
                                    "patching_rect": [ 573.6666666666667, 224.0, 133.0, 22.0 ],
                                    "text": "prepend replace parent"
                                }
                            },
                            {
                                "box": {
                                    "id": "obj-18",
                                    "maxclass": "newobj",
                                    "numinlets": 2,
                                    "numoutlets": 2,
                                    "outlettype": [ "", "" ],
                                    "patching_rect": [ 50.5, 58.0, 47.0, 22.0 ],
                                    "text": "zl.nth 2"
                                }
                            },
                            {
                                "box": {
                                    "comment": "",
                                    "id": "obj-2",
                                    "index": 1,
                                    "maxclass": "inlet",
                                    "numinlets": 0,
                                    "numoutlets": 1,
                                    "outlettype": [ "" ],
                                    "patching_rect": [ 50.5, 22.0, 30.0, 30.0 ]
                                }
                            },
                            {
                                "box": {
                                    "comment": "",
                                    "id": "obj-4",
                                    "index": 2,
                                    "maxclass": "outlet",
                                    "numinlets": 1,
                                    "numoutlets": 0,
                                    "patching_rect": [ 573.6666666666667, 255.0, 30.0, 30.0 ]
                                }
                            },
                            {
                                "box": {
                                    "id": "obj-9",
                                    "maxclass": "newobj",
                                    "numinlets": 1,
                                    "numoutlets": 1,
                                    "outlettype": [ "" ],
                                    "patching_rect": [ 50.5, 131.0, 179.0, 22.0 ],
                                    "text": "append is not a valid parent uid."
                                }
                            },
                            {
                                "box": {
                                    "comment": "",
                                    "id": "obj-8",
                                    "index": 1,
                                    "maxclass": "outlet",
                                    "numinlets": 1,
                                    "numoutlets": 0,
                                    "patching_rect": [ 50.5, 224.0, 30.0, 30.0 ]
                                }
                            },
                            {
                                "box": {
                                    "id": "obj-1",
                                    "maxclass": "newobj",
                                    "numinlets": 5,
                                    "numoutlets": 5,
                                    "outlettype": [ "", "", "", "", "" ],
                                    "patching_rect": [ 50.5, 89.0, 387.6666666666667, 22.0 ],
                                    "text": "routepass float mode bang int"
                                }
                            }
                        ],
                        "lines": [
                            {
                                "patchline": {
                                    "destination": [ "obj-21", 0 ],
                                    "source": [ "obj-1", 4 ]
                                }
                            },
                            {
                                "patchline": {
                                    "destination": [ "obj-5", 0 ],
                                    "source": [ "obj-1", 3 ]
                                }
                            },
                            {
                                "patchline": {
                                    "destination": [ "obj-9", 0 ],
                                    "source": [ "obj-1", 2 ]
                                }
                            },
                            {
                                "patchline": {
                                    "destination": [ "obj-9", 0 ],
                                    "source": [ "obj-1", 1 ]
                                }
                            },
                            {
                                "patchline": {
                                    "destination": [ "obj-9", 0 ],
                                    "source": [ "obj-1", 0 ]
                                }
                            },
                            {
                                "patchline": {
                                    "destination": [ "obj-1", 0 ],
                                    "source": [ "obj-18", 0 ]
                                }
                            },
                            {
                                "patchline": {
                                    "destination": [ "obj-18", 0 ],
                                    "source": [ "obj-2", 0 ]
                                }
                            },
                            {
                                "patchline": {
                                    "destination": [ "obj-25", 0 ],
                                    "source": [ "obj-21", 3 ]
                                }
                            },
                            {
                                "patchline": {
                                    "destination": [ "obj-39", 0 ],
                                    "source": [ "obj-21", 2 ]
                                }
                            },
                            {
                                "patchline": {
                                    "destination": [ "obj-4", 0 ],
                                    "source": [ "obj-25", 0 ]
                                }
                            },
                            {
                                "patchline": {
                                    "destination": [ "obj-8", 0 ],
                                    "source": [ "obj-39", 0 ]
                                }
                            },
                            {
                                "patchline": {
                                    "destination": [ "obj-25", 0 ],
                                    "source": [ "obj-5", 0 ]
                                }
                            },
                            {
                                "patchline": {
                                    "destination": [ "obj-8", 0 ],
                                    "source": [ "obj-9", 0 ]
                                }
                            }
                        ]
                    },
                    "patching_rect": [ 201.0, 237.0, 53.0, 22.0 ],
                    "text": "p format"
                }
            },
            {
                "box": {
                    "id": "obj-13",
                    "maxclass": "newobj",
                    "numinlets": 1,
                    "numoutlets": 2,
                    "outlettype": [ "", "" ],
                    "patcher": {
                        "fileversion": 1,
                        "appversion": {
                            "major": 9,
                            "minor": 1,
                            "revision": 2,
                            "architecture": "x64",
                            "modernui": 1
                        },
                        "classnamespace": "box",
                        "rect": [ 50.0, 316.0, 771.0, 351.0 ],
                        "boxes": [
                            {
                                "box": {
                                    "id": "obj-5",
                                    "maxclass": "newobj",
                                    "numinlets": 1,
                                    "numoutlets": 1,
                                    "outlettype": [ "none" ],
                                    "patching_rect": [ 488.0, 120.5, 42.0, 22.0 ],
                                    "text": "t none"
                                }
                            },
                            {
                                "box": {
                                    "id": "obj-2",
                                    "maxclass": "newobj",
                                    "numinlets": 2,
                                    "numoutlets": 2,
                                    "outlettype": [ "", "" ],
                                    "patching_rect": [ 50.0, 65.0, 82.0, 22.0 ],
                                    "text": "route bang"
                                }
                            },
                            {
                                "box": {
                                    "id": "obj-4",
                                    "maxclass": "newobj",
                                    "numinlets": 2,
                                    "numoutlets": 2,
                                    "outlettype": [ "", "" ],
                                    "patching_rect": [ 488.0, 215.5, 60.0, 22.0 ],
                                    "text": "zl change"
                                }
                            },
                            {
                                "box": {
                                    "id": "obj-3",
                                    "maxclass": "newobj",
                                    "numinlets": 1,
                                    "numoutlets": 1,
                                    "outlettype": [ "" ],
                                    "patching_rect": [ 529.0, 276.0, 220.0, 22.0 ],
                                    "text": "prepend replace address_has_changed"
                                }
                            },
                            {
                                "box": {
                                    "id": "obj-39",
                                    "linecount": 3,
                                    "maxclass": "newobj",
                                    "numinlets": 1,
                                    "numoutlets": 1,
                                    "outlettype": [ "" ],
                                    "patching_rect": [ 308.0, 215.5, 141.0, 49.0 ],
                                    "text": "prepend address contains illegal characters:"
                                }
                            },
                            {
                                "box": {
                                    "fontname": "Arial",
                                    "fontsize": 13.0,
                                    "id": "obj-21",
                                    "maxclass": "newobj",
                                    "numinlets": 1,
                                    "numoutlets": 5,
                                    "outlettype": [ "", "", "", "", "" ],
                                    "patching_rect": [ 308.0, 179.0, 159.0, 23.0 ],
                                    "saved_object_attributes": {
                                        "legacyoutputorder": 1
                                    },
                                    "text": "regexp :|/|\\\\\\\\|\\\\?|\\\\*|\\\\||\\\\s|\\\\t"
                                }
                            },
                            {
                                "box": {
                                    "id": "obj-1",
                                    "maxclass": "newobj",
                                    "numinlets": 2,
                                    "numoutlets": 2,
                                    "outlettype": [ "", "" ],
                                    "patching_rect": [ 50.0, 37.0, 82.0, 22.0 ],
                                    "text": "route address"
                                }
                            },
                            {
                                "box": {
                                    "id": "obj-25",
                                    "maxclass": "newobj",
                                    "numinlets": 1,
                                    "numoutlets": 1,
                                    "outlettype": [ "" ],
                                    "patching_rect": [ 488.0, 247.0, 141.0, 22.0 ],
                                    "text": "prepend replace address"
                                }
                            },
                            {
                                "box": {
                                    "id": "obj-16",
                                    "maxclass": "newobj",
                                    "numinlets": 1,
                                    "numoutlets": 1,
                                    "outlettype": [ "" ],
                                    "patching_rect": [ 86.0, 179.0, 168.0, 22.0 ],
                                    "text": "append is not a valid address."
                                }
                            },
                            {
                                "box": {
                                    "comment": "",
                                    "id": "obj-17",
                                    "index": 1,
                                    "maxclass": "outlet",
                                    "numinlets": 1,
                                    "numoutlets": 0,
                                    "patching_rect": [ 86.0, 264.0, 30.0, 30.0 ]
                                }
                            },
                            {
                                "box": {
                                    "id": "obj-19",
                                    "linecount": 3,
                                    "maxclass": "newobj",
                                    "numinlets": 10,
                                    "numoutlets": 10,
                                    "outlettype": [ "", "", "", "", "", "", "", "", "", "" ],
                                    "patching_rect": [ 86.0, 107.0, 241.0, 49.0 ],
                                    "text": "routepass int float mode bang preset-name preset-description preset-editflag ON chained-ON"
                                }
                            },
                            {
                                "box": {
                                    "comment": "",
                                    "id": "obj-26",
                                    "index": 1,
                                    "maxclass": "inlet",
                                    "numinlets": 0,
                                    "numoutlets": 1,
                                    "outlettype": [ "" ],
                                    "patching_rect": [ 50.0, -1.0, 30.0, 30.0 ]
                                }
                            },
                            {
                                "box": {
                                    "comment": "",
                                    "id": "obj-27",
                                    "index": 2,
                                    "maxclass": "outlet",
                                    "numinlets": 1,
                                    "numoutlets": 0,
                                    "patching_rect": [ 488.0, 281.0, 30.0, 30.0 ]
                                }
                            }
                        ],
                        "lines": [
                            {
                                "patchline": {
                                    "destination": [ "obj-2", 0 ],
                                    "source": [ "obj-1", 0 ]
                                }
                            },
                            {
                                "patchline": {
                                    "destination": [ "obj-17", 0 ],
                                    "source": [ "obj-16", 0 ]
                                }
                            },
                            {
                                "patchline": {
                                    "destination": [ "obj-16", 0 ],
                                    "source": [ "obj-19", 8 ]
                                }
                            },
                            {
                                "patchline": {
                                    "destination": [ "obj-16", 0 ],
                                    "source": [ "obj-19", 7 ]
                                }
                            },
                            {
                                "patchline": {
                                    "destination": [ "obj-16", 0 ],
                                    "source": [ "obj-19", 6 ]
                                }
                            },
                            {
                                "patchline": {
                                    "destination": [ "obj-16", 0 ],
                                    "source": [ "obj-19", 5 ]
                                }
                            },
                            {
                                "patchline": {
                                    "destination": [ "obj-16", 0 ],
                                    "source": [ "obj-19", 4 ]
                                }
                            },
                            {
                                "patchline": {
                                    "destination": [ "obj-16", 0 ],
                                    "source": [ "obj-19", 3 ]
                                }
                            },
                            {
                                "patchline": {
                                    "destination": [ "obj-16", 0 ],
                                    "source": [ "obj-19", 2 ]
                                }
                            },
                            {
                                "patchline": {
                                    "destination": [ "obj-16", 0 ],
                                    "source": [ "obj-19", 1 ]
                                }
                            },
                            {
                                "patchline": {
                                    "destination": [ "obj-16", 0 ],
                                    "source": [ "obj-19", 0 ]
                                }
                            },
                            {
                                "patchline": {
                                    "destination": [ "obj-21", 0 ],
                                    "source": [ "obj-19", 9 ]
                                }
                            },
                            {
                                "patchline": {
                                    "destination": [ "obj-19", 0 ],
                                    "source": [ "obj-2", 1 ]
                                }
                            },
                            {
                                "patchline": {
                                    "destination": [ "obj-5", 0 ],
                                    "source": [ "obj-2", 0 ]
                                }
                            },
                            {
                                "patchline": {
                                    "destination": [ "obj-39", 0 ],
                                    "source": [ "obj-21", 2 ]
                                }
                            },
                            {
                                "patchline": {
                                    "destination": [ "obj-4", 0 ],
                                    "source": [ "obj-21", 3 ]
                                }
                            },
                            {
                                "patchline": {
                                    "destination": [ "obj-27", 0 ],
                                    "source": [ "obj-25", 0 ]
                                }
                            },
                            {
                                "patchline": {
                                    "destination": [ "obj-1", 0 ],
                                    "source": [ "obj-26", 0 ]
                                }
                            },
                            {
                                "patchline": {
                                    "destination": [ "obj-27", 0 ],
                                    "source": [ "obj-3", 0 ]
                                }
                            },
                            {
                                "patchline": {
                                    "destination": [ "obj-17", 0 ],
                                    "source": [ "obj-39", 0 ]
                                }
                            },
                            {
                                "patchline": {
                                    "destination": [ "obj-25", 0 ],
                                    "source": [ "obj-4", 0 ]
                                }
                            },
                            {
                                "patchline": {
                                    "destination": [ "obj-3", 0 ],
                                    "source": [ "obj-4", 1 ]
                                }
                            },
                            {
                                "patchline": {
                                    "destination": [ "obj-4", 0 ],
                                    "source": [ "obj-5", 0 ]
                                }
                            }
                        ]
                    },
                    "patching_rect": [ 256.0, 237.0, 53.0, 22.0 ],
                    "text": "p format"
                }
            },
            {
                "box": {
                    "id": "obj-11",
                    "maxclass": "newobj",
                    "numinlets": 1,
                    "numoutlets": 1,
                    "outlettype": [ "" ],
                    "patching_rect": [ 916.0, 298.0, 156.0, 22.0 ],
                    "text": "prepend Unknown attribute:"
                }
            },
            {
                "box": {
                    "id": "obj-24",
                    "maxclass": "newobj",
                    "numinlets": 14,
                    "numoutlets": 14,
                    "outlettype": [ "", "", "", "", "", "", "", "", "", "", "", "", "", "" ],
                    "patching_rect": [ 201.0, 198.0, 733.9999999999998, 22.0 ],
                    "text": "routepass parent address clip type range min max description default unit options isdefaultaddress init"
                }
            },
            {
                "box": {
                    "comment": "messages from patcherargs",
                    "id": "obj-17",
                    "index": 1,
                    "maxclass": "inlet",
                    "numinlets": 0,
                    "numoutlets": 1,
                    "outlettype": [ "" ],
                    "patching_rect": [ 12.0, 80.0, 30.0, 30.0 ]
                }
            },
            {
                "box": {
                    "comment": "to dictionary",
                    "id": "obj-18",
                    "index": 4,
                    "maxclass": "outlet",
                    "numinlets": 1,
                    "numoutlets": 0,
                    "patching_rect": [ 494.0, 481.0, 30.0, 30.0 ]
                }
            },
            {
                "box": {
                    "comment": "error message",
                    "id": "obj-19",
                    "index": 3,
                    "maxclass": "outlet",
                    "numinlets": 1,
                    "numoutlets": 0,
                    "patching_rect": [ 243.0, 476.0, 30.0, 30.0 ]
                }
            }
        ],
        "lines": [
            {
                "patchline": {
                    "destination": [ "obj-19", 0 ],
                    "source": [ "obj-11", 0 ]
                }
            },
            {
                "patchline": {
                    "destination": [ "obj-18", 0 ],
                    "source": [ "obj-12", 0 ]
                }
            },
            {
                "patchline": {
                    "destination": [ "obj-18", 0 ],
                    "source": [ "obj-13", 1 ]
                }
            },
            {
                "patchline": {
                    "destination": [ "obj-23", 0 ],
                    "source": [ "obj-13", 0 ]
                }
            },
            {
                "patchline": {
                    "destination": [ "obj-28", 0 ],
                    "source": [ "obj-16", 0 ]
                }
            },
            {
                "patchline": {
                    "destination": [ "obj-41", 0 ],
                    "source": [ "obj-17", 0 ]
                }
            },
            {
                "patchline": {
                    "destination": [ "obj-3", 0 ],
                    "source": [ "obj-2", 0 ]
                }
            },
            {
                "patchline": {
                    "destination": [ "obj-3", 0 ],
                    "source": [ "obj-20", 0 ]
                }
            },
            {
                "patchline": {
                    "destination": [ "obj-19", 0 ],
                    "source": [ "obj-21", 1 ]
                }
            },
            {
                "patchline": {
                    "destination": [ "obj-20", 0 ],
                    "source": [ "obj-21", 0 ]
                }
            },
            {
                "patchline": {
                    "destination": [ "obj-21", 0 ],
                    "source": [ "obj-23", 0 ]
                }
            },
            {
                "patchline": {
                    "destination": [ "obj-13", 0 ],
                    "source": [ "obj-24", 1 ]
                }
            },
            {
                "patchline": {
                    "destination": [ "obj-2", 0 ],
                    "source": [ "obj-24", 12 ]
                }
            },
            {
                "patchline": {
                    "destination": [ "obj-26", 0 ],
                    "source": [ "obj-24", 11 ]
                }
            },
            {
                "patchline": {
                    "destination": [ "obj-26", 0 ],
                    "source": [ "obj-24", 10 ]
                }
            },
            {
                "patchline": {
                    "destination": [ "obj-26", 0 ],
                    "source": [ "obj-24", 9 ]
                }
            },
            {
                "patchline": {
                    "destination": [ "obj-26", 0 ],
                    "source": [ "obj-24", 8 ]
                }
            },
            {
                "patchline": {
                    "destination": [ "obj-26", 0 ],
                    "source": [ "obj-24", 7 ]
                }
            },
            {
                "patchline": {
                    "destination": [ "obj-26", 0 ],
                    "source": [ "obj-24", 6 ]
                }
            },
            {
                "patchline": {
                    "destination": [ "obj-26", 0 ],
                    "source": [ "obj-24", 5 ]
                }
            },
            {
                "patchline": {
                    "destination": [ "obj-26", 0 ],
                    "source": [ "obj-24", 4 ]
                }
            },
            {
                "patchline": {
                    "destination": [ "obj-26", 0 ],
                    "source": [ "obj-24", 3 ]
                }
            },
            {
                "patchline": {
                    "destination": [ "obj-26", 0 ],
                    "source": [ "obj-24", 2 ]
                }
            },
            {
                "patchline": {
                    "destination": [ "obj-4", 0 ],
                    "source": [ "obj-24", 13 ]
                }
            },
            {
                "patchline": {
                    "destination": [ "obj-8", 0 ],
                    "source": [ "obj-24", 0 ]
                }
            },
            {
                "patchline": {
                    "destination": [ "obj-18", 0 ],
                    "source": [ "obj-26", 0 ]
                }
            },
            {
                "patchline": {
                    "destination": [ "obj-20", 1 ],
                    "source": [ "obj-28", 0 ]
                }
            },
            {
                "patchline": {
                    "destination": [ "obj-24", 0 ],
                    "source": [ "obj-28", 1 ]
                }
            },
            {
                "patchline": {
                    "destination": [ "obj-20", 0 ],
                    "source": [ "obj-36", 2 ]
                }
            },
            {
                "patchline": {
                    "destination": [ "obj-20", 1 ],
                    "source": [ "obj-36", 1 ]
                }
            },
            {
                "patchline": {
                    "destination": [ "obj-24", 0 ],
                    "source": [ "obj-36", 0 ]
                }
            },
            {
                "patchline": {
                    "destination": [ "obj-35", 0 ],
                    "source": [ "obj-36", 3 ]
                }
            },
            {
                "patchline": {
                    "destination": [ "obj-11", 0 ],
                    "source": [ "obj-4", 0 ]
                }
            },
            {
                "patchline": {
                    "destination": [ "obj-9", 0 ],
                    "source": [ "obj-4", 1 ]
                }
            },
            {
                "patchline": {
                    "destination": [ "obj-24", 0 ],
                    "source": [ "obj-41", 0 ]
                }
            },
            {
                "patchline": {
                    "destination": [ "obj-36", 0 ],
                    "source": [ "obj-5", 0 ]
                }
            },
            {
                "patchline": {
                    "destination": [ "obj-18", 0 ],
                    "source": [ "obj-8", 1 ]
                }
            },
            {
                "patchline": {
                    "destination": [ "obj-23", 0 ],
                    "source": [ "obj-8", 0 ]
                }
            },
            {
                "patchline": {
                    "destination": [ "obj-19", 0 ],
                    "source": [ "obj-9", 0 ]
                }
            }
        ]
    }
}