{
	"patcher" : 	{
		"fileversion" : 1,
		"appversion" : 		{
			"major" : 8,
			"minor" : 6,
			"revision" : 0,
			"architecture" : "x64",
			"modernui" : 1
		}
,
		"classnamespace" : "box",
		"rect" : [ 148.0, 626.0, 984.0, 352.0 ],
		"bglocked" : 0,
		"openinpresentation" : 0,
		"default_fontsize" : 12.0,
		"default_fontface" : 0,
		"default_fontname" : "Arial",
		"gridonopen" : 1,
		"gridsize" : [ 15.0, 15.0 ],
		"gridsnaponopen" : 1,
		"objectsnaponopen" : 1,
		"statusbarvisible" : 2,
		"toolbarvisible" : 1,
		"lefttoolbarpinned" : 0,
		"toptoolbarpinned" : 0,
		"righttoolbarpinned" : 0,
		"bottomtoolbarpinned" : 0,
		"toolbars_unpinned_last_save" : 1,
		"tallnewobj" : 0,
		"boxanimatetime" : 200,
		"enablehscroll" : 1,
		"enablevscroll" : 1,
		"devicewidth" : 0.0,
		"description" : "",
		"digest" : "",
		"tags" : "",
		"style" : "",
		"subpatcher_template" : "",
		"assistshowspatchername" : 0,
		"boxes" : [ 			{
				"box" : 				{
					"id" : "obj-59",
					"maxclass" : "newobj",
					"numinlets" : 0,
					"numoutlets" : 0,
					"patcher" : 					{
						"fileversion" : 1,
						"appversion" : 						{
							"major" : 8,
							"minor" : 6,
							"revision" : 0,
							"architecture" : "x64",
							"modernui" : 1
						}
,
						"classnamespace" : "box",
						"rect" : [ 503.0, 566.0, 640.0, 480.0 ],
						"bglocked" : 0,
						"openinpresentation" : 0,
						"default_fontsize" : 12.0,
						"default_fontface" : 0,
						"default_fontname" : "Arial",
						"gridonopen" : 1,
						"gridsize" : [ 15.0, 15.0 ],
						"gridsnaponopen" : 1,
						"objectsnaponopen" : 1,
						"statusbarvisible" : 2,
						"toolbarvisible" : 1,
						"lefttoolbarpinned" : 0,
						"toptoolbarpinned" : 0,
						"righttoolbarpinned" : 0,
						"bottomtoolbarpinned" : 0,
						"toolbars_unpinned_last_save" : 0,
						"tallnewobj" : 0,
						"boxanimatetime" : 200,
						"enablehscroll" : 1,
						"enablevscroll" : 1,
						"devicewidth" : 0.0,
						"description" : "",
						"digest" : "",
						"tags" : "",
						"style" : "",
						"subpatcher_template" : "",
						"assistshowspatchername" : 0,
						"visible" : 1,
						"boxes" : [ 							{
								"box" : 								{
									"id" : "obj-10",
									"maxclass" : "message",
									"numinlets" : 2,
									"numoutlets" : 1,
									"outlettype" : [ "" ],
									"patching_rect" : [ 340.0, 165.0, 186.0, 22.0 ],
									"presentation_linecount" : 2,
									"text" : "parent toto, address TestParam.2"
								}

							}
, 							{
								"box" : 								{
									"id" : "obj-14",
									"maxclass" : "message",
									"numinlets" : 2,
									"numoutlets" : 1,
									"outlettype" : [ "" ],
									"patching_rect" : [ 299.0, 9.0, 75.0, 22.0 ],
									"text" : "address beh"
								}

							}
, 							{
								"box" : 								{
									"id" : "obj-13",
									"maxclass" : "button",
									"numinlets" : 1,
									"numoutlets" : 1,
									"outlettype" : [ "bang" ],
									"parameter_enable" : 0,
									"patching_rect" : [ 105.0, 312.0, 24.0, 24.0 ]
								}

							}
, 							{
								"box" : 								{
									"id" : "obj-9",
									"maxclass" : "newobj",
									"numinlets" : 1,
									"numoutlets" : 0,
									"patching_rect" : [ 105.0, 342.0, 55.0, 22.0 ],
									"text" : "print -----"
								}

							}
, 							{
								"box" : 								{
									"id" : "obj-8",
									"maxclass" : "newobj",
									"numinlets" : 1,
									"numoutlets" : 0,
									"patching_rect" : [ 264.0, 296.0, 93.0, 22.0 ],
									"text" : "print remote-out"
								}

							}
, 							{
								"box" : 								{
									"id" : "obj-5",
									"maxclass" : "message",
									"numinlets" : 2,
									"numoutlets" : 1,
									"outlettype" : [ "" ],
									"patching_rect" : [ 291.0, 235.0, 74.0, 22.0 ],
									"text" : "address yap"
								}

							}
, 							{
								"box" : 								{
									"id" : "obj-3",
									"maxclass" : "message",
									"numinlets" : 2,
									"numoutlets" : 1,
									"outlettype" : [ "" ],
									"patching_rect" : [ 264.0, 202.0, 145.0, 22.0 ],
									"text" : "address toto/TestParam.2"
								}

							}
, 							{
								"box" : 								{
									"id" : "obj-12",
									"maxclass" : "number",
									"numinlets" : 1,
									"numoutlets" : 2,
									"outlettype" : [ "", "bang" ],
									"parameter_enable" : 0,
									"patching_rect" : [ 188.0, 302.0, 50.0, 22.0 ]
								}

							}
, 							{
								"box" : 								{
									"id" : "obj-11",
									"maxclass" : "number",
									"numinlets" : 1,
									"numoutlets" : 2,
									"outlettype" : [ "", "bang" ],
									"parameter_enable" : 0,
									"patching_rect" : [ 223.5, 139.0, 50.0, 22.0 ]
								}

							}
, 							{
								"box" : 								{
									"id" : "obj-7",
									"maxclass" : "message",
									"numinlets" : 2,
									"numoutlets" : 1,
									"outlettype" : [ "" ],
									"patching_rect" : [ 371.0, 67.0, 122.0, 22.0 ],
									"text" : "address TestParam.2"
								}

							}
, 							{
								"box" : 								{
									"id" : "obj-6",
									"maxclass" : "message",
									"numinlets" : 2,
									"numoutlets" : 1,
									"outlettype" : [ "" ],
									"patching_rect" : [ 336.0, 36.0, 143.0, 22.0 ],
									"text" : "address TestParam.{1..5}"
								}

							}
, 							{
								"box" : 								{
									"format" : 6,
									"id" : "obj-4",
									"maxclass" : "flonum",
									"numinlets" : 1,
									"numoutlets" : 2,
									"outlettype" : [ "", "bang" ],
									"parameter_enable" : 0,
									"patching_rect" : [ 53.0, 270.0, 50.0, 22.0 ]
								}

							}
, 							{
								"box" : 								{
									"id" : "obj-2",
									"maxclass" : "newobj",
									"numinlets" : 2,
									"numoutlets" : 3,
									"outlettype" : [ "", "int", "" ],
									"patching_rect" : [ 111.0, 270.0, 172.0, 22.0 ],
									"text" : "mvc.remote5 toto/TestParam.2"
								}

							}
, 							{
								"box" : 								{
									"format" : 6,
									"id" : "obj-30",
									"maxclass" : "flonum",
									"numinlets" : 1,
									"numoutlets" : 2,
									"outlettype" : [ "", "bang" ],
									"parameter_enable" : 0,
									"patching_rect" : [ 50.0, 106.48974609375, 50.0, 22.0 ]
								}

							}
, 							{
								"box" : 								{
									"id" : "obj-1",
									"maxclass" : "newobj",
									"numinlets" : 2,
									"numoutlets" : 3,
									"outlettype" : [ "", "int", "" ],
									"patching_rect" : [ 111.0, 106.48974609375, 244.0, 22.0 ],
									"text" : "mvc.parameter toto TestParam.2 @default 2"
								}

							}
 ],
						"lines" : [ 							{
								"patchline" : 								{
									"destination" : [ "obj-11", 0 ],
									"source" : [ "obj-1", 1 ]
								}

							}
, 							{
								"patchline" : 								{
									"destination" : [ "obj-30", 0 ],
									"source" : [ "obj-1", 0 ]
								}

							}
, 							{
								"patchline" : 								{
									"destination" : [ "obj-2", 1 ],
									"source" : [ "obj-10", 0 ]
								}

							}
, 							{
								"patchline" : 								{
									"destination" : [ "obj-9", 0 ],
									"source" : [ "obj-13", 0 ]
								}

							}
, 							{
								"patchline" : 								{
									"destination" : [ "obj-1", 1 ],
									"source" : [ "obj-14", 0 ]
								}

							}
, 							{
								"patchline" : 								{
									"destination" : [ "obj-12", 0 ],
									"source" : [ "obj-2", 1 ]
								}

							}
, 							{
								"patchline" : 								{
									"destination" : [ "obj-4", 0 ],
									"source" : [ "obj-2", 0 ]
								}

							}
, 							{
								"patchline" : 								{
									"destination" : [ "obj-8", 0 ],
									"source" : [ "obj-2", 2 ]
								}

							}
, 							{
								"patchline" : 								{
									"destination" : [ "obj-2", 1 ],
									"source" : [ "obj-3", 0 ]
								}

							}
, 							{
								"patchline" : 								{
									"destination" : [ "obj-1", 0 ],
									"source" : [ "obj-30", 0 ]
								}

							}
, 							{
								"patchline" : 								{
									"destination" : [ "obj-2", 0 ],
									"source" : [ "obj-4", 0 ]
								}

							}
, 							{
								"patchline" : 								{
									"destination" : [ "obj-2", 1 ],
									"source" : [ "obj-5", 0 ]
								}

							}
, 							{
								"patchline" : 								{
									"destination" : [ "obj-1", 1 ],
									"source" : [ "obj-6", 0 ]
								}

							}
, 							{
								"patchline" : 								{
									"destination" : [ "obj-1", 1 ],
									"source" : [ "obj-7", 0 ]
								}

							}
 ]
					}
,
					"patching_rect" : [ 91.0, 141.0, 133.0, 22.0 ],
					"saved_object_attributes" : 					{
						"description" : "",
						"digest" : "",
						"globalpatchername" : "",
						"tags" : ""
					}
,
					"text" : "p simple-param-remote"
				}

			}
, 			{
				"box" : 				{
					"id" : "obj-58",
					"maxclass" : "newobj",
					"numinlets" : 0,
					"numoutlets" : 0,
					"patcher" : 					{
						"fileversion" : 1,
						"appversion" : 						{
							"major" : 8,
							"minor" : 6,
							"revision" : 0,
							"architecture" : "x64",
							"modernui" : 1
						}
,
						"classnamespace" : "box",
						"rect" : [ 59.0, 106.0, 709.0, 680.0 ],
						"bglocked" : 0,
						"openinpresentation" : 0,
						"default_fontsize" : 12.0,
						"default_fontface" : 0,
						"default_fontname" : "Arial",
						"gridonopen" : 1,
						"gridsize" : [ 15.0, 15.0 ],
						"gridsnaponopen" : 1,
						"objectsnaponopen" : 1,
						"statusbarvisible" : 2,
						"toolbarvisible" : 1,
						"lefttoolbarpinned" : 0,
						"toptoolbarpinned" : 0,
						"righttoolbarpinned" : 0,
						"bottomtoolbarpinned" : 0,
						"toolbars_unpinned_last_save" : 0,
						"tallnewobj" : 0,
						"boxanimatetime" : 200,
						"enablehscroll" : 1,
						"enablevscroll" : 1,
						"devicewidth" : 0.0,
						"description" : "",
						"digest" : "",
						"tags" : "",
						"style" : "",
						"subpatcher_template" : "",
						"assistshowspatchername" : 0,
						"boxes" : [ 							{
								"box" : 								{
									"id" : "obj-73",
									"maxclass" : "newobj",
									"numinlets" : 1,
									"numoutlets" : 1,
									"outlettype" : [ "float" ],
									"patcher" : 									{
										"fileversion" : 1,
										"appversion" : 										{
											"major" : 8,
											"minor" : 6,
											"revision" : 0,
											"architecture" : "x64",
											"modernui" : 1
										}
,
										"classnamespace" : "box",
										"rect" : [ 59.0, 106.0, 640.0, 480.0 ],
										"bglocked" : 0,
										"openinpresentation" : 0,
										"default_fontsize" : 12.0,
										"default_fontface" : 0,
										"default_fontname" : "Arial",
										"gridonopen" : 1,
										"gridsize" : [ 15.0, 15.0 ],
										"gridsnaponopen" : 1,
										"objectsnaponopen" : 1,
										"statusbarvisible" : 2,
										"toolbarvisible" : 1,
										"lefttoolbarpinned" : 0,
										"toptoolbarpinned" : 0,
										"righttoolbarpinned" : 0,
										"bottomtoolbarpinned" : 0,
										"toolbars_unpinned_last_save" : 0,
										"tallnewobj" : 0,
										"boxanimatetime" : 200,
										"enablehscroll" : 1,
										"enablevscroll" : 1,
										"devicewidth" : 0.0,
										"description" : "",
										"digest" : "",
										"tags" : "",
										"style" : "",
										"subpatcher_template" : "",
										"assistshowspatchername" : 0,
										"boxes" : [ 											{
												"box" : 												{
													"fontname" : "Arial",
													"fontsize" : 11.595186999999999,
													"id" : "obj-47",
													"maxclass" : "newobj",
													"numinlets" : 1,
													"numoutlets" : 1,
													"outlettype" : [ "float" ],
													"patching_rect" : [ 44.5, 199.0, 55.0, 21.0 ],
													"text" : "cpuclock"
												}

											}
, 											{
												"box" : 												{
													"fontname" : "Arial",
													"fontsize" : 11.595186999999999,
													"id" : "obj-53",
													"maxclass" : "newobj",
													"numinlets" : 2,
													"numoutlets" : 1,
													"outlettype" : [ "float" ],
													"patching_rect" : [ 44.5, 230.0, 91.5, 21.0 ],
													"text" : "- 0."
												}

											}
, 											{
												"box" : 												{
													"fontname" : "Arial",
													"fontsize" : 11.595186999999999,
													"id" : "obj-55",
													"maxclass" : "newobj",
													"numinlets" : 1,
													"numoutlets" : 1,
													"outlettype" : [ "float" ],
													"patching_rect" : [ 118.5, 199.0, 55.0, 21.0 ],
													"text" : "cpuclock"
												}

											}
, 											{
												"box" : 												{
													"id" : "obj-58",
													"maxclass" : "newobj",
													"numinlets" : 3,
													"numoutlets" : 3,
													"outlettype" : [ "bang", "bang", "" ],
													"patching_rect" : [ 50.0, 158.83984375, 44.0, 22.0 ],
													"text" : "sel 1 0"
												}

											}
, 											{
												"box" : 												{
													"id" : "obj-57",
													"maxclass" : "newobj",
													"numinlets" : 2,
													"numoutlets" : 2,
													"outlettype" : [ "", "" ],
													"patching_rect" : [ 50.0, 128.83984375, 89.0, 22.0 ],
													"text" : "route initialized"
												}

											}
, 											{
												"box" : 												{
													"comment" : "",
													"id" : "obj-69",
													"index" : 1,
													"maxclass" : "inlet",
													"numinlets" : 0,
													"numoutlets" : 1,
													"outlettype" : [ "" ],
													"patching_rect" : [ 50.0, 39.999999750000029, 30.0, 30.0 ]
												}

											}
, 											{
												"box" : 												{
													"comment" : "",
													"id" : "obj-70",
													"index" : 1,
													"maxclass" : "outlet",
													"numinlets" : 1,
													"numoutlets" : 0,
													"patching_rect" : [ 44.5, 275.0, 30.0, 30.0 ]
												}

											}
 ],
										"lines" : [ 											{
												"patchline" : 												{
													"destination" : [ "obj-53", 0 ],
													"midpoints" : [ 54.0, 221.0, 54.0, 221.0 ],
													"source" : [ "obj-47", 0 ]
												}

											}
, 											{
												"patchline" : 												{
													"destination" : [ "obj-70", 0 ],
													"source" : [ "obj-53", 0 ]
												}

											}
, 											{
												"patchline" : 												{
													"destination" : [ "obj-53", 1 ],
													"midpoints" : [ 128.0, 221.0, 126.5, 221.0 ],
													"source" : [ "obj-55", 0 ]
												}

											}
, 											{
												"patchline" : 												{
													"destination" : [ "obj-58", 0 ],
													"source" : [ "obj-57", 0 ]
												}

											}
, 											{
												"patchline" : 												{
													"destination" : [ "obj-47", 0 ],
													"source" : [ "obj-58", 0 ]
												}

											}
, 											{
												"patchline" : 												{
													"destination" : [ "obj-55", 0 ],
													"source" : [ "obj-58", 1 ]
												}

											}
, 											{
												"patchline" : 												{
													"destination" : [ "obj-57", 0 ],
													"source" : [ "obj-69", 0 ]
												}

											}
 ]
									}
,
									"patching_rect" : [ 341.0, 703.0, 61.0, 22.0 ],
									"saved_object_attributes" : 									{
										"description" : "",
										"digest" : "",
										"globalpatchername" : "",
										"tags" : ""
									}
,
									"text" : "p init-time"
								}

							}
, 							{
								"box" : 								{
									"id" : "obj-71",
									"maxclass" : "newobj",
									"numinlets" : 1,
									"numoutlets" : 1,
									"outlettype" : [ "float" ],
									"patcher" : 									{
										"fileversion" : 1,
										"appversion" : 										{
											"major" : 8,
											"minor" : 6,
											"revision" : 0,
											"architecture" : "x64",
											"modernui" : 1
										}
,
										"classnamespace" : "box",
										"rect" : [ 59.0, 106.0, 640.0, 480.0 ],
										"bglocked" : 0,
										"openinpresentation" : 0,
										"default_fontsize" : 12.0,
										"default_fontface" : 0,
										"default_fontname" : "Arial",
										"gridonopen" : 1,
										"gridsize" : [ 15.0, 15.0 ],
										"gridsnaponopen" : 1,
										"objectsnaponopen" : 1,
										"statusbarvisible" : 2,
										"toolbarvisible" : 1,
										"lefttoolbarpinned" : 0,
										"toptoolbarpinned" : 0,
										"righttoolbarpinned" : 0,
										"bottomtoolbarpinned" : 0,
										"toolbars_unpinned_last_save" : 0,
										"tallnewobj" : 0,
										"boxanimatetime" : 200,
										"enablehscroll" : 1,
										"enablevscroll" : 1,
										"devicewidth" : 0.0,
										"description" : "",
										"digest" : "",
										"tags" : "",
										"style" : "",
										"subpatcher_template" : "",
										"assistshowspatchername" : 0,
										"boxes" : [ 											{
												"box" : 												{
													"fontname" : "Arial",
													"fontsize" : 11.595186999999999,
													"id" : "obj-47",
													"maxclass" : "newobj",
													"numinlets" : 1,
													"numoutlets" : 1,
													"outlettype" : [ "float" ],
													"patching_rect" : [ 44.5, 199.0, 55.0, 21.0 ],
													"text" : "cpuclock"
												}

											}
, 											{
												"box" : 												{
													"fontname" : "Arial",
													"fontsize" : 11.595186999999999,
													"id" : "obj-53",
													"maxclass" : "newobj",
													"numinlets" : 2,
													"numoutlets" : 1,
													"outlettype" : [ "float" ],
													"patching_rect" : [ 44.5, 230.0, 91.5, 21.0 ],
													"text" : "- 0."
												}

											}
, 											{
												"box" : 												{
													"fontname" : "Arial",
													"fontsize" : 11.595186999999999,
													"id" : "obj-55",
													"maxclass" : "newobj",
													"numinlets" : 1,
													"numoutlets" : 1,
													"outlettype" : [ "float" ],
													"patching_rect" : [ 118.5, 199.0, 55.0, 21.0 ],
													"text" : "cpuclock"
												}

											}
, 											{
												"box" : 												{
													"id" : "obj-58",
													"maxclass" : "newobj",
													"numinlets" : 3,
													"numoutlets" : 3,
													"outlettype" : [ "bang", "bang", "" ],
													"patching_rect" : [ 50.0, 158.83984375, 44.0, 22.0 ],
													"text" : "sel 1 0"
												}

											}
, 											{
												"box" : 												{
													"id" : "obj-57",
													"maxclass" : "newobj",
													"numinlets" : 2,
													"numoutlets" : 2,
													"outlettype" : [ "", "" ],
													"patching_rect" : [ 50.0, 128.83984375, 89.0, 22.0 ],
													"text" : "route initialized"
												}

											}
, 											{
												"box" : 												{
													"comment" : "",
													"id" : "obj-69",
													"index" : 1,
													"maxclass" : "inlet",
													"numinlets" : 0,
													"numoutlets" : 1,
													"outlettype" : [ "" ],
													"patching_rect" : [ 50.0, 39.999999750000029, 30.0, 30.0 ]
												}

											}
, 											{
												"box" : 												{
													"comment" : "",
													"id" : "obj-70",
													"index" : 1,
													"maxclass" : "outlet",
													"numinlets" : 1,
													"numoutlets" : 0,
													"patching_rect" : [ 44.5, 275.0, 30.0, 30.0 ]
												}

											}
 ],
										"lines" : [ 											{
												"patchline" : 												{
													"destination" : [ "obj-53", 0 ],
													"midpoints" : [ 54.0, 221.0, 54.0, 221.0 ],
													"source" : [ "obj-47", 0 ]
												}

											}
, 											{
												"patchline" : 												{
													"destination" : [ "obj-70", 0 ],
													"source" : [ "obj-53", 0 ]
												}

											}
, 											{
												"patchline" : 												{
													"destination" : [ "obj-53", 1 ],
													"midpoints" : [ 128.0, 221.0, 126.5, 221.0 ],
													"source" : [ "obj-55", 0 ]
												}

											}
, 											{
												"patchline" : 												{
													"destination" : [ "obj-58", 0 ],
													"source" : [ "obj-57", 0 ]
												}

											}
, 											{
												"patchline" : 												{
													"destination" : [ "obj-47", 0 ],
													"source" : [ "obj-58", 0 ]
												}

											}
, 											{
												"patchline" : 												{
													"destination" : [ "obj-55", 0 ],
													"source" : [ "obj-58", 1 ]
												}

											}
, 											{
												"patchline" : 												{
													"destination" : [ "obj-57", 0 ],
													"source" : [ "obj-69", 0 ]
												}

											}
 ]
									}
,
									"patching_rect" : [ 341.0, 476.0, 61.0, 22.0 ],
									"saved_object_attributes" : 									{
										"description" : "",
										"digest" : "",
										"globalpatchername" : "",
										"tags" : ""
									}
,
									"text" : "p init-time"
								}

							}
, 							{
								"box" : 								{
									"format" : 6,
									"id" : "obj-46",
									"maxclass" : "flonum",
									"numinlets" : 1,
									"numoutlets" : 2,
									"outlettype" : [ "", "bang" ],
									"parameter_enable" : 0,
									"patching_rect" : [ 341.0, 737.0, 117.0, 22.0 ]
								}

							}
, 							{
								"box" : 								{
									"format" : 6,
									"id" : "obj-40",
									"maxclass" : "flonum",
									"numinlets" : 1,
									"numoutlets" : 2,
									"outlettype" : [ "", "bang" ],
									"parameter_enable" : 0,
									"patching_rect" : [ 341.0, 504.0, 117.0, 22.0 ]
								}

							}
, 							{
								"box" : 								{
									"id" : "obj-68",
									"maxclass" : "button",
									"numinlets" : 1,
									"numoutlets" : 1,
									"outlettype" : [ "bang" ],
									"parameter_enable" : 0,
									"patching_rect" : [ 364.0, 335.0, 24.0, 24.0 ]
								}

							}
, 							{
								"box" : 								{
									"id" : "obj-52",
									"maxclass" : "button",
									"numinlets" : 1,
									"numoutlets" : 1,
									"outlettype" : [ "bang" ],
									"parameter_enable" : 0,
									"patching_rect" : [ 317.0, 604.0, 24.0, 24.0 ]
								}

							}
, 							{
								"box" : 								{
									"id" : "obj-17",
									"maxclass" : "message",
									"numinlets" : 2,
									"numoutlets" : 1,
									"outlettype" : [ "" ],
									"patching_rect" : [ 324.0, 633.0, 183.0, 22.0 ],
									"text" : "address channel.*/filter.*/{f*|gain}"
								}

							}
, 							{
								"box" : 								{
									"id" : "obj-20",
									"maxclass" : "message",
									"numinlets" : 2,
									"numoutlets" : 1,
									"outlettype" : [ "" ],
									"patching_rect" : [ 181.5, 633.0, 51.0, 22.0 ],
									"text" : "address"
								}

							}
, 							{
								"box" : 								{
									"id" : "obj-22",
									"maxclass" : "newobj",
									"numinlets" : 1,
									"numoutlets" : 0,
									"patching_rect" : [ 50.0, 770.0, 56.0, 22.0 ],
									"text" : "print +++"
								}

							}
, 							{
								"box" : 								{
									"id" : "obj-24",
									"maxclass" : "message",
									"numinlets" : 2,
									"numoutlets" : 1,
									"outlettype" : [ "" ],
									"patching_rect" : [ 119.0, 696.0, 60.0, 22.0 ],
									"text" : "set $1 val"
								}

							}
, 							{
								"box" : 								{
									"id" : "obj-26",
									"maxclass" : "newobj",
									"numinlets" : 1,
									"numoutlets" : 1,
									"outlettype" : [ "" ],
									"patching_rect" : [ 50.0, 730.0, 53.0, 22.0 ],
									"text" : "prepend"
								}

							}
, 							{
								"box" : 								{
									"id" : "obj-28",
									"maxclass" : "newobj",
									"numinlets" : 2,
									"numoutlets" : 3,
									"outlettype" : [ "", "int", "" ],
									"patching_rect" : [ 50.0, 672.0, 289.0, 22.0 ],
									"text" : "mvc.remote4 channel.*/filter.*/{f*|gain} @parent 5302"
								}

							}
, 							{
								"box" : 								{
									"id" : "obj-16",
									"maxclass" : "message",
									"numinlets" : 2,
									"numoutlets" : 1,
									"outlettype" : [ "" ],
									"patching_rect" : [ 330.0, 370.0, 135.0, 22.0 ],
									"text" : "address toto/TestParam"
								}

							}
, 							{
								"box" : 								{
									"id" : "obj-5",
									"maxclass" : "message",
									"numinlets" : 2,
									"numoutlets" : 1,
									"outlettype" : [ "" ],
									"patching_rect" : [ 253.0, 544.0, 293.0, 22.0 ],
									"text" : "address toto/myMcCascade/channel.1/filter.1/{f*|gain}"
								}

							}
, 							{
								"box" : 								{
									"id" : "obj-45",
									"maxclass" : "message",
									"numinlets" : 2,
									"numoutlets" : 1,
									"outlettype" : [ "" ],
									"patching_rect" : [ 417.0, 410.0, 51.0, 22.0 ],
									"text" : "address"
								}

							}
, 							{
								"box" : 								{
									"id" : "obj-13",
									"maxclass" : "message",
									"numinlets" : 2,
									"numoutlets" : 1,
									"outlettype" : [ "" ],
									"patching_rect" : [ 357.0, 410.0, 43.0, 22.0 ],
									"text" : "parent"
								}

							}
, 							{
								"box" : 								{
									"id" : "obj-11",
									"maxclass" : "message",
									"numinlets" : 2,
									"numoutlets" : 1,
									"outlettype" : [ "" ],
									"patching_rect" : [ 246.0, 410.0, 79.0, 22.0 ],
									"text" : "parent 3833"
								}

							}
, 							{
								"box" : 								{
									"id" : "obj-76",
									"maxclass" : "message",
									"numinlets" : 2,
									"numoutlets" : 1,
									"outlettype" : [ "" ],
									"patching_rect" : [ 374.0, 267.0, 35.0, 22.0 ],
									"text" : "7633"
								}

							}
, 							{
								"box" : 								{
									"id" : "obj-74",
									"maxclass" : "message",
									"numinlets" : 2,
									"numoutlets" : 1,
									"outlettype" : [ "" ],
									"patching_rect" : [ 200.0, 203.0, 29.5, 22.0 ],
									"text" : "init"
								}

							}
, 							{
								"box" : 								{
									"id" : "obj-72",
									"maxclass" : "newobj",
									"numinlets" : 1,
									"numoutlets" : 1,
									"outlettype" : [ "" ],
									"patching_rect" : [ 310.0, 299.0, 90.0, 22.0 ],
									"text" : "prepend parent"
								}

							}
, 							{
								"box" : 								{
									"id" : "obj-66",
									"maxclass" : "newobj",
									"numinlets" : 2,
									"numoutlets" : 2,
									"outlettype" : [ "", "" ],
									"patching_rect" : [ 310.0, 249.0, 55.0, 22.0 ],
									"text" : "route uid"
								}

							}
, 							{
								"box" : 								{
									"id" : "obj-61",
									"maxclass" : "newobj",
									"numinlets" : 2,
									"numoutlets" : 2,
									"outlettype" : [ "", "" ],
									"patching_rect" : [ 56.0, 370.0, 187.0, 22.0 ],
									"text" : "mvc.view 345 filter.* @parent 234"
								}

							}
, 							{
								"box" : 								{
									"id" : "obj-60",
									"maxclass" : "newobj",
									"numinlets" : 2,
									"numoutlets" : 2,
									"outlettype" : [ "", "" ],
									"patching_rect" : [ 56.0, 341.0, 209.0, 22.0 ],
									"text" : "mvc.view 234 channel.2 @parent 123"
								}

							}
, 							{
								"box" : 								{
									"id" : "obj-59",
									"maxclass" : "comment",
									"numinlets" : 1,
									"numoutlets" : 0,
									"patching_rect" : [ 449.0, 112.0, 150.0, 20.0 ],
									"text" : "toto/myCascade/filter.1/f*"
								}

							}
, 							{
								"box" : 								{
									"id" : "obj-48",
									"maxclass" : "newobj",
									"numinlets" : 1,
									"numoutlets" : 0,
									"patching_rect" : [ 56.0, 544.0, 51.0, 22.0 ],
									"text" : "print ----"
								}

							}
, 							{
								"box" : 								{
									"id" : "obj-49",
									"maxclass" : "message",
									"numinlets" : 2,
									"numoutlets" : 1,
									"outlettype" : [ "" ],
									"patching_rect" : [ 125.0, 470.0, 60.0, 22.0 ],
									"text" : "set $1 val"
								}

							}
, 							{
								"box" : 								{
									"id" : "obj-50",
									"maxclass" : "newobj",
									"numinlets" : 1,
									"numoutlets" : 1,
									"outlettype" : [ "" ],
									"patching_rect" : [ 56.0, 504.0, 53.0, 22.0 ],
									"text" : "prepend"
								}

							}
, 							{
								"box" : 								{
									"id" : "obj-51",
									"maxclass" : "newobj",
									"numinlets" : 2,
									"numoutlets" : 3,
									"outlettype" : [ "", "int", "" ],
									"patching_rect" : [ 56.0, 446.0, 289.0, 22.0 ],
									"text" : "mvc.remote5 channel.*/filter.*/{f*|gain} @parent 2475"
								}

							}
, 							{
								"box" : 								{
									"id" : "obj-54",
									"maxclass" : "message",
									"numinlets" : 2,
									"numoutlets" : 1,
									"outlettype" : [ "" ],
									"patching_rect" : [ 297.0, 200.0, 97.0, 22.0 ],
									"text" : "preset recall tutu"
								}

							}
, 							{
								"box" : 								{
									"id" : "obj-44",
									"maxclass" : "message",
									"numinlets" : 2,
									"numoutlets" : 1,
									"outlettype" : [ "" ],
									"patching_rect" : [ 289.0, 150.0, 100.0, 22.0 ],
									"text" : "preset recall blug"
								}

							}
, 							{
								"box" : 								{
									"id" : "obj-43",
									"maxclass" : "message",
									"numinlets" : 2,
									"numoutlets" : 1,
									"outlettype" : [ "" ],
									"patching_rect" : [ 297.0, 175.0, 107.0, 22.0 ],
									"text" : "preset saveas toto"
								}

							}
, 							{
								"box" : 								{
									"id" : "obj-41",
									"maxclass" : "message",
									"numinlets" : 2,
									"numoutlets" : 1,
									"outlettype" : [ "" ],
									"patching_rect" : [ 289.0, 125.0, 97.0, 22.0 ],
									"text" : "preset recall toto"
								}

							}
, 							{
								"box" : 								{
									"id" : "obj-36",
									"maxclass" : "message",
									"numinlets" : 2,
									"numoutlets" : 1,
									"outlettype" : [ "" ],
									"patching_rect" : [ 272.0, 100.0, 72.0, 22.0 ],
									"text" : "preset reset"
								}

							}
, 							{
								"box" : 								{
									"id" : "obj-19",
									"maxclass" : "newobj",
									"numinlets" : 2,
									"numoutlets" : 2,
									"outlettype" : [ "", "" ],
									"patching_rect" : [ 56.0, 307.0, 213.0, 22.0 ],
									"text" : "mvc.view 123 @parent myMcCascade"
								}

							}
, 							{
								"box" : 								{
									"id" : "obj-38",
									"maxclass" : "message",
									"numinlets" : 2,
									"numoutlets" : 1,
									"outlettype" : [ "" ],
									"patching_rect" : [ 228.0, 143.0, 30.0, 22.0 ],
									"text" : "GUI"
								}

							}
, 							{
								"box" : 								{
									"color" : [ 0.501961, 0.501961, 0.501961, 1.0 ],
									"id" : "obj-6",
									"maxclass" : "newobj",
									"numinlets" : 2,
									"numoutlets" : 2,
									"outlettype" : [ "multichannelsignal", "" ],
									"patching_rect" : [ 63.0, 235.0, 211.0, 22.0 ],
									"text" : "mvc.mc.cascade~ toto myMcCascade",
									"varname" : "mvc.mc.cascade~"
								}

							}
, 							{
								"box" : 								{
									"id" : "obj-12",
									"maxclass" : "newobj",
									"numinlets" : 1,
									"numoutlets" : 0,
									"patching_rect" : [ 187.5, 940.0, 32.0, 22.0 ],
									"text" : "print"
								}

							}
, 							{
								"box" : 								{
									"id" : "obj-10",
									"maxclass" : "newobj",
									"numinlets" : 1,
									"numoutlets" : 5,
									"outlettype" : [ "", "", "", "", "" ],
									"patching_rect" : [ 160.5, 880.0, 72.0, 22.0 ],
									"text" : "regexp [^][]*"
								}

							}
, 							{
								"box" : 								{
									"id" : "obj-8",
									"maxclass" : "newobj",
									"numinlets" : 1,
									"numoutlets" : 1,
									"outlettype" : [ "" ],
									"patching_rect" : [ 187.5, 911.0, 25.0, 22.0 ],
									"text" : "iter"
								}

							}
, 							{
								"box" : 								{
									"id" : "obj-7",
									"maxclass" : "newobj",
									"numinlets" : 1,
									"numoutlets" : 5,
									"outlettype" : [ "", "", "", "", "" ],
									"patching_rect" : [ 52.5, 880.0, 91.0, 22.0 ],
									"text" : "regexp \\\\[[^\\\\[]\\\\]"
								}

							}
, 							{
								"box" : 								{
									"id" : "obj-3",
									"linecount" : 2,
									"maxclass" : "message",
									"numinlets" : 2,
									"numoutlets" : 1,
									"outlettype" : [ "" ],
									"patching_rect" : [ 52.5, 822.0, 499.0, 35.0 ],
									"text" : "myMcCascade.{stereo|surround}/[channel.{1..2} channel.{1..6}]/[filter.{1..3} filter.{1..2} filter.1 filter.{1..2} filter.{1..3} filter.{1..4} filter.{1..5} filter.{1..6}]"
								}

							}
 ],
						"lines" : [ 							{
								"patchline" : 								{
									"destination" : [ "obj-8", 0 ],
									"source" : [ "obj-10", 2 ]
								}

							}
, 							{
								"patchline" : 								{
									"destination" : [ "obj-51", 1 ],
									"source" : [ "obj-11", 0 ]
								}

							}
, 							{
								"patchline" : 								{
									"destination" : [ "obj-51", 1 ],
									"source" : [ "obj-13", 0 ]
								}

							}
, 							{
								"patchline" : 								{
									"destination" : [ "obj-51", 1 ],
									"source" : [ "obj-16", 0 ]
								}

							}
, 							{
								"patchline" : 								{
									"destination" : [ "obj-28", 1 ],
									"source" : [ "obj-17", 0 ]
								}

							}
, 							{
								"patchline" : 								{
									"destination" : [ "obj-28", 1 ],
									"midpoints" : [ 191.0, 664.5, 329.5, 664.5 ],
									"source" : [ "obj-20", 0 ]
								}

							}
, 							{
								"patchline" : 								{
									"destination" : [ "obj-26", 0 ],
									"source" : [ "obj-24", 0 ]
								}

							}
, 							{
								"patchline" : 								{
									"destination" : [ "obj-22", 0 ],
									"source" : [ "obj-26", 0 ]
								}

							}
, 							{
								"patchline" : 								{
									"destination" : [ "obj-24", 0 ],
									"source" : [ "obj-28", 1 ]
								}

							}
, 							{
								"patchline" : 								{
									"destination" : [ "obj-26", 0 ],
									"source" : [ "obj-28", 0 ]
								}

							}
, 							{
								"patchline" : 								{
									"destination" : [ "obj-73", 0 ],
									"source" : [ "obj-28", 2 ]
								}

							}
, 							{
								"patchline" : 								{
									"destination" : [ "obj-10", 0 ],
									"order" : 0,
									"source" : [ "obj-3", 0 ]
								}

							}
, 							{
								"patchline" : 								{
									"destination" : [ "obj-7", 0 ],
									"order" : 1,
									"source" : [ "obj-3", 0 ]
								}

							}
, 							{
								"patchline" : 								{
									"destination" : [ "obj-6", 1 ],
									"source" : [ "obj-36", 0 ]
								}

							}
, 							{
								"patchline" : 								{
									"destination" : [ "obj-6", 1 ],
									"source" : [ "obj-38", 0 ]
								}

							}
, 							{
								"patchline" : 								{
									"destination" : [ "obj-6", 1 ],
									"source" : [ "obj-41", 0 ]
								}

							}
, 							{
								"patchline" : 								{
									"destination" : [ "obj-6", 1 ],
									"source" : [ "obj-43", 0 ]
								}

							}
, 							{
								"patchline" : 								{
									"destination" : [ "obj-6", 1 ],
									"source" : [ "obj-44", 0 ]
								}

							}
, 							{
								"patchline" : 								{
									"destination" : [ "obj-51", 1 ],
									"midpoints" : [ 426.5, 438.5, 335.5, 438.5 ],
									"source" : [ "obj-45", 0 ]
								}

							}
, 							{
								"patchline" : 								{
									"destination" : [ "obj-50", 0 ],
									"source" : [ "obj-49", 0 ]
								}

							}
, 							{
								"patchline" : 								{
									"destination" : [ "obj-51", 1 ],
									"source" : [ "obj-5", 0 ]
								}

							}
, 							{
								"patchline" : 								{
									"destination" : [ "obj-48", 0 ],
									"source" : [ "obj-50", 0 ]
								}

							}
, 							{
								"patchline" : 								{
									"destination" : [ "obj-49", 0 ],
									"source" : [ "obj-51", 1 ]
								}

							}
, 							{
								"patchline" : 								{
									"destination" : [ "obj-50", 0 ],
									"source" : [ "obj-51", 0 ]
								}

							}
, 							{
								"patchline" : 								{
									"destination" : [ "obj-71", 0 ],
									"source" : [ "obj-51", 2 ]
								}

							}
, 							{
								"patchline" : 								{
									"destination" : [ "obj-17", 0 ],
									"source" : [ "obj-52", 0 ]
								}

							}
, 							{
								"patchline" : 								{
									"destination" : [ "obj-6", 1 ],
									"source" : [ "obj-54", 0 ]
								}

							}
, 							{
								"patchline" : 								{
									"destination" : [ "obj-66", 0 ],
									"source" : [ "obj-6", 1 ]
								}

							}
, 							{
								"patchline" : 								{
									"destination" : [ "obj-72", 0 ],
									"order" : 1,
									"source" : [ "obj-66", 0 ]
								}

							}
, 							{
								"patchline" : 								{
									"destination" : [ "obj-76", 1 ],
									"order" : 0,
									"source" : [ "obj-66", 0 ]
								}

							}
, 							{
								"patchline" : 								{
									"destination" : [ "obj-16", 0 ],
									"source" : [ "obj-68", 0 ]
								}

							}
, 							{
								"patchline" : 								{
									"destination" : [ "obj-40", 0 ],
									"source" : [ "obj-71", 0 ]
								}

							}
, 							{
								"patchline" : 								{
									"destination" : [ "obj-19", 1 ],
									"order" : 1,
									"source" : [ "obj-72", 0 ]
								}

							}
, 							{
								"patchline" : 								{
									"destination" : [ "obj-51", 1 ],
									"order" : 0,
									"source" : [ "obj-72", 0 ]
								}

							}
, 							{
								"patchline" : 								{
									"destination" : [ "obj-46", 0 ],
									"source" : [ "obj-73", 0 ]
								}

							}
, 							{
								"patchline" : 								{
									"destination" : [ "obj-6", 1 ],
									"source" : [ "obj-74", 0 ]
								}

							}
, 							{
								"patchline" : 								{
									"destination" : [ "obj-72", 0 ],
									"source" : [ "obj-76", 0 ]
								}

							}
, 							{
								"patchline" : 								{
									"destination" : [ "obj-12", 0 ],
									"source" : [ "obj-8", 0 ]
								}

							}
 ]
					}
,
					"patching_rect" : [ 91.0, 93.0, 127.0, 22.0 ],
					"saved_object_attributes" : 					{
						"description" : "",
						"digest" : "",
						"globalpatchername" : "",
						"tags" : ""
					}
,
					"text" : "p model-view-remotes"
				}

			}
, 			{
				"box" : 				{
					"id" : "obj-15",
					"maxclass" : "message",
					"numinlets" : 2,
					"numoutlets" : 1,
					"outlettype" : [ "" ],
					"patching_rect" : [ 232.0, 17.0, 29.5, 22.0 ],
					"text" : "init"
				}

			}
, 			{
				"box" : 				{
					"color" : [ 0.501961, 0.501961, 0.501961, 1.0 ],
					"id" : "obj-2",
					"maxclass" : "newobj",
					"numinlets" : 2,
					"numoutlets" : 2,
					"outlettype" : [ "", "" ],
					"patching_rect" : [ 91.0, 50.0, 160.0, 22.0 ],
					"text" : "mvc.device toto @type gabu"
				}

			}
 ],
		"lines" : [ 			{
				"patchline" : 				{
					"destination" : [ "obj-2", 1 ],
					"source" : [ "obj-15", 0 ]
				}

			}
 ],
		"dependency_cache" : [ 			{
				"name" : "LAM.f.recurse.maxpat",
				"bootpath" : "~/Documents/Max 8/Packages/lam-lib/patchers",
				"patcherrelativepath" : "../../lam-lib/patchers",
				"type" : "JSON",
				"implicit" : 1
			}
, 			{
				"name" : "fit_jweb_to_bounds.js",
				"bootpath" : "C74:/packages/Node for Max/patchers/debug-monitor",
				"type" : "TEXT",
				"implicit" : 1
			}
, 			{
				"name" : "mvc.DSPrefresh.maxpat",
				"bootpath" : "~/Documents/Max 8/Packages/MVC/patchers/core",
				"patcherrelativepath" : "../patchers/core",
				"type" : "JSON",
				"implicit" : 1
			}
, 			{
				"name" : "mvc.GUI.listselector.maxpat",
				"bootpath" : "~/Documents/Max 8/Packages/MVC/patchers/GUI",
				"patcherrelativepath" : "../patchers/GUI",
				"type" : "JSON",
				"implicit" : 1
			}
, 			{
				"name" : "mvc.GUI.windowsettings.maxpat",
				"bootpath" : "~/Documents/Max 8/Packages/MVC/patchers/GUI",
				"patcherrelativepath" : "../patchers/GUI",
				"type" : "JSON",
				"implicit" : 1
			}
, 			{
				"name" : "mvc.address.expandconcat.maxpat",
				"bootpath" : "~/Documents/Max 8/Packages/MVC/patchers/core",
				"patcherrelativepath" : "../patchers/core",
				"type" : "JSON",
				"implicit" : 1
			}
, 			{
				"name" : "mvc.benchmarker.maxpat",
				"bootpath" : "~/Documents/Max 8/Packages/MVC/patchers/lib",
				"patcherrelativepath" : "../patchers/lib",
				"type" : "JSON",
				"implicit" : 1
			}
, 			{
				"name" : "mvc.biquad~.model.maxpat",
				"bootpath" : "~/Documents/Max 8/Packages/MVC-Components/patchers/components",
				"patcherrelativepath" : "../../MVC-Components/patchers/components",
				"type" : "JSON",
				"implicit" : 1
			}
, 			{
				"name" : "mvc.brace.expansion.js",
				"bootpath" : "~/Documents/Max 8/Packages/MVC/javascript",
				"patcherrelativepath" : "../javascript",
				"type" : "TEXT",
				"implicit" : 1
			}
, 			{
				"name" : "mvc.cascade~.model.maxpat",
				"bootpath" : "~/Documents/Max 8/Packages/MVC-Components/patchers/components",
				"patcherrelativepath" : "../../MVC-Components/patchers/components",
				"type" : "JSON",
				"implicit" : 1
			}
, 			{
				"name" : "mvc.channellayout2channelcount.maxpat",
				"bootpath" : "~/Documents/Max 8/Packages/MVC/patchers/core",
				"patcherrelativepath" : "../patchers/core",
				"type" : "JSON",
				"implicit" : 1
			}
, 			{
				"name" : "mvc.core.address.expand.maxpat",
				"bootpath" : "~/Documents/Max 8/Packages/MVC/patchers/core",
				"patcherrelativepath" : "../patchers/core",
				"type" : "JSON",
				"implicit" : 1
			}
, 			{
				"name" : "mvc.core.address.expandOnParentAndFilter.maxpat",
				"bootpath" : "~/Documents/Max 8/Packages/MVC/patchers/core",
				"patcherrelativepath" : "../patchers/core",
				"type" : "JSON",
				"implicit" : 1
			}
, 			{
				"name" : "mvc.core.model.expand-declare.maxpat",
				"bootpath" : "~/Documents/Max 8/Packages/MVC/patchers/core",
				"patcherrelativepath" : "../patchers/core",
				"type" : "JSON",
				"implicit" : 1
			}
, 			{
				"name" : "mvc.core.param.declare.maxpat",
				"bootpath" : "~/Documents/Max 8/Packages/MVC/patchers/core",
				"patcherrelativepath" : "../patchers/core",
				"type" : "JSON",
				"implicit" : 1
			}
, 			{
				"name" : "mvc.core.param.expand-declare.maxpat",
				"bootpath" : "~/Documents/Max 8/Packages/MVC/patchers/core",
				"patcherrelativepath" : "../patchers/core",
				"type" : "JSON",
				"implicit" : 1
			}
, 			{
				"name" : "mvc.core.param.sender.maxpat",
				"bootpath" : "~/Documents/Max 8/Packages/MVC/patchers/core",
				"patcherrelativepath" : "../patchers/core",
				"type" : "JSON",
				"implicit" : 1
			}
, 			{
				"name" : "mvc.core.state.declare.maxpat",
				"bootpath" : "~/Documents/Max 8/Packages/MVC/patchers/core",
				"patcherrelativepath" : "../patchers/core",
				"type" : "JSON",
				"implicit" : 1
			}
, 			{
				"name" : "mvc.core.state.expand-declare.maxpat",
				"bootpath" : "~/Documents/Max 8/Packages/MVC/patchers/core",
				"patcherrelativepath" : "../patchers/core",
				"type" : "JSON",
				"implicit" : 1
			}
, 			{
				"name" : "mvc.core.state.sender.maxpat",
				"bootpath" : "~/Documents/Max 8/Packages/MVC/patchers/core",
				"patcherrelativepath" : "../patchers/core",
				"type" : "JSON",
				"implicit" : 1
			}
, 			{
				"name" : "mvc.createfolder.js",
				"bootpath" : "~/Documents/Max 8/Packages/MVC/javascript",
				"patcherrelativepath" : "../javascript",
				"type" : "TEXT",
				"implicit" : 1
			}
, 			{
				"name" : "mvc.device.js",
				"bootpath" : "~/Documents/Max 8/Packages/MVC/javascript",
				"patcherrelativepath" : "../javascript",
				"type" : "TEXT",
				"implicit" : 1
			}
, 			{
				"name" : "mvc.device.maxpat",
				"bootpath" : "~/Documents/Max 8/Packages/MVC/patchers/core",
				"patcherrelativepath" : "../patchers/core",
				"type" : "JSON",
				"implicit" : 1
			}
, 			{
				"name" : "mvc.dict.flatten.js",
				"bootpath" : "~/Documents/Max 8/Packages/MVC/javascript",
				"patcherrelativepath" : "../javascript",
				"type" : "TEXT",
				"implicit" : 1
			}
, 			{
				"name" : "mvc.dict.flatten.maxpat",
				"bootpath" : "~/Documents/Max 8/Packages/MVC/patchers/core",
				"patcherrelativepath" : "../patchers/core",
				"type" : "JSON",
				"implicit" : 1
			}
, 			{
				"name" : "mvc.dict.interpolate.js",
				"bootpath" : "~/Documents/Max 8/Packages/MVC/javascript",
				"patcherrelativepath" : "../javascript",
				"type" : "TEXT",
				"implicit" : 1
			}
, 			{
				"name" : "mvc.dict.join.js",
				"bootpath" : "~/Documents/Max 8/Packages/MVC/javascript",
				"patcherrelativepath" : "../javascript",
				"type" : "TEXT",
				"implicit" : 1
			}
, 			{
				"name" : "mvc.dict.route.js",
				"bootpath" : "~/Documents/Max 8/Packages/MVC/javascript",
				"patcherrelativepath" : "../javascript",
				"type" : "TEXT",
				"implicit" : 1
			}
, 			{
				"name" : "mvc.dict2osc.maxpat",
				"bootpath" : "~/Documents/Max 8/Packages/MVC/patchers/core",
				"patcherrelativepath" : "../patchers/core",
				"type" : "JSON",
				"implicit" : 1
			}
, 			{
				"name" : "mvc.dllb.maxpat",
				"bootpath" : "~/Documents/Max 8/Packages/MVC/patchers/core",
				"patcherrelativepath" : "../patchers/core",
				"type" : "JSON",
				"implicit" : 1
			}
, 			{
				"name" : "mvc.f.call.maxpat",
				"bootpath" : "~/Documents/Max 8/Packages/MVC/patchers/core",
				"patcherrelativepath" : "../patchers/core",
				"type" : "JSON",
				"implicit" : 1
			}
, 			{
				"name" : "mvc.f.io.maxpat",
				"bootpath" : "~/Documents/Max 8/Packages/MVC/patchers/core",
				"patcherrelativepath" : "../patchers/core",
				"type" : "JSON",
				"implicit" : 1
			}
, 			{
				"name" : "mvc.filtergraph~.p.maxpat",
				"bootpath" : "~/Documents/Max 8/Packages/MVC-Components/patchers/lib",
				"patcherrelativepath" : "../../MVC-Components/patchers/lib",
				"type" : "JSON",
				"implicit" : 1
			}
, 			{
				"name" : "mvc.input.attr.format.maxpat",
				"bootpath" : "~/Documents/Max 8/Packages/MVC/patchers/core",
				"patcherrelativepath" : "../patchers/core",
				"type" : "JSON",
				"implicit" : 1
			}
, 			{
				"name" : "mvc.input.i.initialized.maxpat",
				"bootpath" : "~/Documents/Max 8/Packages/MVC/patchers/core",
				"patcherrelativepath" : "../patchers/core",
				"type" : "JSON",
				"implicit" : 1
			}
, 			{
				"name" : "mvc.intnogap.maxpat",
				"bootpath" : "~/Documents/Max 8/Packages/MVC/patchers/core",
				"patcherrelativepath" : "../patchers/core",
				"type" : "JSON",
				"implicit" : 1
			}
, 			{
				"name" : "mvc.isloading.maxpat",
				"bootpath" : "~/Documents/Max 8/Packages/MVC/patchers/core",
				"patcherrelativepath" : "../patchers/core",
				"type" : "JSON",
				"implicit" : 1
			}
, 			{
				"name" : "mvc.list.thindex.maxpat",
				"bootpath" : "~/Documents/Max 8/Packages/MVC/patchers/core",
				"patcherrelativepath" : "../patchers/core",
				"type" : "JSON",
				"implicit" : 1
			}
, 			{
				"name" : "mvc.mc.cascade~.maxpat",
				"bootpath" : "~/Documents/Max 8/Packages/MVC-Components/patchers/components",
				"patcherrelativepath" : "../../MVC-Components/patchers/components",
				"type" : "JSON",
				"implicit" : 1
			}
, 			{
				"name" : "mvc.message.declare.js",
				"bootpath" : "~/Documents/Max 8/Packages/MVC/javascript",
				"patcherrelativepath" : "../javascript",
				"type" : "TEXT",
				"implicit" : 1
			}
, 			{
				"name" : "mvc.model-view.initialized.maxpat",
				"bootpath" : "~/Documents/Max 8/Packages/MVC/patchers/core",
				"patcherrelativepath" : "../patchers/core",
				"type" : "JSON",
				"implicit" : 1
			}
, 			{
				"name" : "mvc.model.declareWithAttr.js",
				"bootpath" : "~/Documents/Max 8/Packages/MVC/javascript",
				"patcherrelativepath" : "../javascript",
				"type" : "TEXT",
				"implicit" : 1
			}
, 			{
				"name" : "mvc.model.i.initialized.maxpat",
				"bootpath" : "~/Documents/Max 8/Packages/MVC/patchers/core",
				"patcherrelativepath" : "../patchers/core",
				"type" : "JSON",
				"implicit" : 1
			}
, 			{
				"name" : "mvc.model.initialized.maxpat",
				"bootpath" : "~/Documents/Max 8/Packages/MVC/patchers/core",
				"patcherrelativepath" : "../patchers/core",
				"type" : "JSON",
				"implicit" : 1
			}
, 			{
				"name" : "mvc.model.maxpat",
				"bootpath" : "~/Documents/Max 8/Packages/MVC/patchers/core",
				"patcherrelativepath" : "../patchers/core",
				"type" : "JSON",
				"implicit" : 1
			}
, 			{
				"name" : "mvc.model.presets.load.maxpat",
				"bootpath" : "~/Documents/Max 8/Packages/MVC/patchers/core",
				"patcherrelativepath" : "../patchers/core",
				"type" : "JSON",
				"implicit" : 1
			}
, 			{
				"name" : "mvc.noblabang.maxpat",
				"bootpath" : "~/Documents/Max 8/Packages/MVC/patchers/core",
				"patcherrelativepath" : "../patchers/core",
				"type" : "JSON",
				"implicit" : 1
			}
, 			{
				"name" : "mvc.noblabla.maxpat",
				"bootpath" : "~/Documents/Max 8/Packages/MVC/patchers/core",
				"patcherrelativepath" : "../patchers/core",
				"type" : "JSON",
				"implicit" : 1
			}
, 			{
				"name" : "mvc.osc2dict.maxpat",
				"bootpath" : "~/Documents/Max 8/Packages/MVC/patchers/core",
				"patcherrelativepath" : "../patchers/core",
				"type" : "JSON",
				"implicit" : 1
			}
, 			{
				"name" : "mvc.parameter.channel-layout.maxpat",
				"bootpath" : "~/Documents/Max 8/Packages/MVC/patchers/core",
				"patcherrelativepath" : "../patchers/core",
				"type" : "JSON",
				"implicit" : 1
			}
, 			{
				"name" : "mvc.parameter.decimal.maxpat",
				"bootpath" : "~/Documents/Max 8/Packages/MVC/patchers/core",
				"patcherrelativepath" : "../patchers/core",
				"type" : "JSON",
				"implicit" : 1
			}
, 			{
				"name" : "mvc.parameter.declareWithAttr.js",
				"bootpath" : "~/Documents/Max 8/Packages/MVC/javascript",
				"patcherrelativepath" : "../javascript",
				"type" : "TEXT",
				"implicit" : 1
			}
, 			{
				"name" : "mvc.parameter.integer.maxpat",
				"bootpath" : "~/Documents/Max 8/Packages/MVC/patchers/core",
				"patcherrelativepath" : "../patchers/core",
				"type" : "JSON",
				"implicit" : 1
			}
, 			{
				"name" : "mvc.parameter.internal.ON.maxpat",
				"bootpath" : "~/Documents/Max 8/Packages/MVC/patchers/core",
				"patcherrelativepath" : "../patchers/core",
				"type" : "JSON",
				"implicit" : 1
			}
, 			{
				"name" : "mvc.parameter.internal.preset-description.maxpat",
				"bootpath" : "~/Documents/Max 8/Packages/MVC/patchers/core",
				"patcherrelativepath" : "../patchers/core",
				"type" : "JSON",
				"implicit" : 1
			}
, 			{
				"name" : "mvc.parameter.internal.preset-name.maxpat",
				"bootpath" : "~/Documents/Max 8/Packages/MVC/patchers/core",
				"patcherrelativepath" : "../patchers/core",
				"type" : "JSON",
				"implicit" : 1
			}
, 			{
				"name" : "mvc.parameter.maxpat",
				"bootpath" : "~/Documents/Max 8/Packages/MVC/patchers/core",
				"patcherrelativepath" : "../patchers/core",
				"type" : "JSON",
				"implicit" : 1
			}
, 			{
				"name" : "mvc.parameter.string.maxpat",
				"bootpath" : "~/Documents/Max 8/Packages/MVC/patchers/core",
				"patcherrelativepath" : "../patchers/core",
				"type" : "JSON",
				"implicit" : 1
			}
, 			{
				"name" : "mvc.parameters.values.presetinit.maxpat",
				"bootpath" : "~/Documents/Max 8/Packages/MVC/patchers/core",
				"patcherrelativepath" : "../patchers/core",
				"type" : "JSON",
				"implicit" : 1
			}
, 			{
				"name" : "mvc.remote4.maxpat",
				"bootpath" : "~/Documents/Max 8/Packages/MVC/patchers/core",
				"patcherrelativepath" : "../patchers/core",
				"type" : "JSON",
				"implicit" : 1
			}
, 			{
				"name" : "mvc.remote5.maxpat",
				"bootpath" : "~/Documents/Max 8/Packages/MVC/patchers/core",
				"patcherrelativepath" : "../patchers/core",
				"type" : "JSON",
				"implicit" : 1
			}
, 			{
				"name" : "mvc.setMaxObjColor.js",
				"bootpath" : "~/Documents/Max 8/Packages/MVC/javascript",
				"patcherrelativepath" : "../javascript",
				"type" : "TEXT",
				"implicit" : 1
			}
, 			{
				"name" : "mvc.state.declareWithAttr.js",
				"bootpath" : "~/Documents/Max 8/Packages/MVC/javascript",
				"patcherrelativepath" : "../javascript",
				"type" : "TEXT",
				"implicit" : 1
			}
, 			{
				"name" : "mvc.state.internal.chained-ON.maxpat",
				"bootpath" : "~/Documents/Max 8/Packages/MVC/patchers/core",
				"patcherrelativepath" : "../patchers/core",
				"type" : "JSON",
				"implicit" : 1
			}
, 			{
				"name" : "mvc.state.internal.preset-editflag.maxpat",
				"bootpath" : "~/Documents/Max 8/Packages/MVC/patchers/core",
				"patcherrelativepath" : "../patchers/core",
				"type" : "JSON",
				"implicit" : 1
			}
, 			{
				"name" : "mvc.type.undefined.maxpat",
				"bootpath" : "~/Documents/Max 8/Packages/MVC/patchers/core",
				"patcherrelativepath" : "../patchers/core",
				"type" : "JSON",
				"implicit" : 1
			}
, 			{
				"name" : "mvc.view.maxpat",
				"bootpath" : "~/Documents/Max 8/Packages/MVC/patchers/core",
				"patcherrelativepath" : "../patchers/core",
				"type" : "JSON",
				"implicit" : 1
			}
, 			{
				"name" : "mvc.wildcard-matching.js",
				"bootpath" : "~/Documents/Max 8/Packages/MVC/javascript",
				"patcherrelativepath" : "../javascript",
				"type" : "TEXT",
				"implicit" : 1
			}
, 			{
				"name" : "mvc.wildcard-node.js",
				"bootpath" : "~/Documents/Max 8/Packages/MVC/javascript",
				"patcherrelativepath" : "../javascript",
				"type" : "TEXT",
				"implicit" : 1
			}
, 			{
				"name" : "n4m.monitor.maxpat",
				"bootpath" : "C74:/packages/Node for Max/patchers/debug-monitor",
				"type" : "JSON",
				"implicit" : 1
			}
, 			{
				"name" : "resize_n4m_monitor_patcher.js",
				"bootpath" : "C74:/packages/Node for Max/patchers/debug-monitor",
				"type" : "TEXT",
				"implicit" : 1
			}
 ],
		"autosave" : 0,
		"bgcolor" : [ 0.898039215686275, 0.898039215686275, 0.898039215686275, 1.0 ]
	}

}
