{
    "patcher": {
        "fileversion": 1,
        "appversion": {
            "major": 9,
            "minor": 1,
            "revision": 2,
            "architecture": "x64",
            "modernui": 1
        },
        "classnamespace": "box",
        "rect": [ 59.0, 119.0, 527.0, 495.0 ],
        "boxes": [
            {
                "box": {
                    "comment": "",
                    "id": "obj-2",
                    "index": 2,
                    "maxclass": "outlet",
                    "numinlets": 1,
                    "numoutlets": 0,
                    "patching_rect": [ 273.0, 444.0, 30.0, 30.0 ]
                }
            },
            {
                "box": {
                    "id": "obj-1",
                    "maxclass": "newobj",
                    "numinlets": 1,
                    "numoutlets": 1,
                    "outlettype": [ "bang" ],
                    "patching_rect": [ 38.0, 121.0, 58.0, 22.0 ],
                    "text": "loadbang"
                }
            },
            {
                "box": {
                    "id": "obj-44",
                    "maxclass": "newobj",
                    "numinlets": 3,
                    "numoutlets": 1,
                    "outlettype": [ "" ],
                    "patching_rect": [ 273.0, 83.0, 184.0, 22.0 ],
                    "text": "mvc.miniparameter.parser #0"
                }
            },
            {
                "box": {
                    "comment": "",
                    "id": "obj-26",
                    "index": 1,
                    "maxclass": "outlet",
                    "numinlets": 1,
                    "numoutlets": 0,
                    "patching_rect": [ 38.0, 451.0, 30.0, 30.0 ]
                }
            },
            {
                "box": {
                    "id": "obj-4",
                    "maxclass": "newobj",
                    "numinlets": 0,
                    "numoutlets": 1,
                    "outlettype": [ "" ],
                    "patching_rect": [ 38.0, 411.0, 138.0, 22.0 ],
                    "text": "r #0.init"
                }
            },
            {
                "box": {
                    "id": "obj-30",
                    "maxclass": "button",
                    "numinlets": 1,
                    "numoutlets": 1,
                    "outlettype": [ "bang" ],
                    "parameter_enable": 0,
                    "patching_rect": [ 38.0, 154.0, 24.0, 24.0 ]
                }
            },
            {
                "box": {
                    "id": "obj-32",
                    "maxclass": "newobj",
                    "numinlets": 2,
                    "numoutlets": 5,
                    "outlettype": [ "dictionary", "", "", "", "" ],
                    "patching_rect": [ 38.0, 184.0, 121.0, 22.0 ],
                    "saved_object_attributes": {
                        "legacy": 0,
                        "parameter_enable": 0,
                        "parameter_mappable": 0
                    },
                    "text": "dict #0.attr"
                }
            },
            {
                "box": {
                    "id": "obj-41",
                    "maxclass": "dict.view",
                    "numinlets": 1,
                    "numoutlets": 0,
                    "patching_rect": [ 38.0, 215.0, 223.0, 184.0 ]
                }
            },
            {
                "box": {
                    "id": "obj-23",
                    "linecount": 2,
                    "maxclass": "newobj",
                    "numinlets": 1,
                    "numoutlets": 2,
                    "outlettype": [ "", "" ],
                    "patching_rect": [ 274.0, 32.0, 101.0, 35.0 ],
                    "text": "patcherargs @mvc-type state"
                }
            },
            {
                "box": {
                    "comment": "",
                    "id": "obj-5",
                    "index": 1,
                    "maxclass": "inlet",
                    "numinlets": 0,
                    "numoutlets": 1,
                    "outlettype": [ "" ],
                    "patching_rect": [ 439.0, 32.0, 30.0, 30.0 ]
                }
            }
        ],
        "lines": [
            {
                "patchline": {
                    "destination": [ "obj-30", 0 ],
                    "source": [ "obj-1", 0 ]
                }
            },
            {
                "patchline": {
                    "destination": [ "obj-44", 1 ],
                    "source": [ "obj-23", 1 ]
                }
            },
            {
                "patchline": {
                    "destination": [ "obj-44", 0 ],
                    "source": [ "obj-23", 0 ]
                }
            },
            {
                "patchline": {
                    "destination": [ "obj-32", 0 ],
                    "source": [ "obj-30", 0 ]
                }
            },
            {
                "patchline": {
                    "destination": [ "obj-41", 0 ],
                    "source": [ "obj-32", 0 ]
                }
            },
            {
                "patchline": {
                    "destination": [ "obj-26", 0 ],
                    "source": [ "obj-4", 0 ]
                }
            },
            {
                "patchline": {
                    "destination": [ "obj-2", 0 ],
                    "source": [ "obj-44", 0 ]
                }
            },
            {
                "patchline": {
                    "destination": [ "obj-44", 2 ],
                    "source": [ "obj-5", 0 ]
                }
            }
        ]
    }
}