{
    "patcher": {
        "fileversion": 1,
        "appversion": {
            "major": 9,
            "minor": 1,
            "revision": 2,
            "architecture": "x64",
            "modernui": 1
        },
        "classnamespace": "box",
        "rect": [ 243.0, 133.0, 1176.0, 740.0 ],
        "boxes": [
            {
                "box": {
                    "id": "obj-2",
                    "maxclass": "newobj",
                    "numinlets": 1,
                    "numoutlets": 1,
                    "outlettype": [ "bang" ],
                    "patching_rect": [ 908.0, 2.0, 58.0, 22.0 ],
                    "text": "loadbang"
                }
            },
            {
                "box": {
                    "id": "obj-31",
                    "maxclass": "message",
                    "numinlets": 2,
                    "numoutlets": 1,
                    "outlettype": [ "" ],
                    "patching_rect": [ 942.0, 38.0, 50.0, 22.0 ],
                    "text": "clear"
                }
            },
            {
                "box": {
                    "id": "obj-39",
                    "maxclass": "button",
                    "numinlets": 1,
                    "numoutlets": 1,
                    "outlettype": [ "bang" ],
                    "parameter_enable": 0,
                    "patching_rect": [ 907.0, 38.0, 24.0, 24.0 ]
                }
            },
            {
                "box": {
                    "id": "obj-44",
                    "maxclass": "newobj",
                    "numinlets": 2,
                    "numoutlets": 5,
                    "outlettype": [ "dictionary", "", "", "", "" ],
                    "patching_rect": [ 909.0, 66.0, 118.0, 22.0 ],
                    "saved_object_attributes": {
                        "legacy": 0,
                        "parameter_enable": 0,
                        "parameter_mappable": 0
                    },
                    "text": "dict myModel.attr"
                }
            },
            {
                "box": {
                    "id": "obj-53",
                    "maxclass": "dict.view",
                    "numinlets": 1,
                    "numoutlets": 0,
                    "patching_rect": [ 909.0, 96.0, 143.0, 271.0 ]
                }
            },
            {
                "box": {
                    "id": "obj-68",
                    "linecount": 2,
                    "maxclass": "comment",
                    "numinlets": 1,
                    "numoutlets": 0,
                    "patching_rect": [ 361.0, 43.0, 150.0, 33.0 ],
                    "text": "TODO: a t on besoin du initialized?"
                }
            },
            {
                "box": {
                    "id": "obj-66",
                    "maxclass": "button",
                    "numinlets": 1,
                    "numoutlets": 1,
                    "outlettype": [ "bang" ],
                    "parameter_enable": 0,
                    "patching_rect": [ 172.0, 445.0, 24.0, 24.0 ]
                }
            },
            {
                "box": {
                    "id": "obj-64",
                    "maxclass": "button",
                    "numinlets": 1,
                    "numoutlets": 1,
                    "outlettype": [ "bang" ],
                    "parameter_enable": 0,
                    "patching_rect": [ 495.0, 466.0, 24.0, 24.0 ]
                }
            },
            {
                "box": {
                    "id": "obj-57",
                    "maxclass": "message",
                    "numinlets": 2,
                    "numoutlets": 1,
                    "outlettype": [ "" ],
                    "patching_rect": [ 139.0, 590.0, 65.0, 22.0 ],
                    "text": "address to"
                }
            },
            {
                "box": {
                    "id": "obj-56",
                    "linecount": 2,
                    "maxclass": "newobj",
                    "numinlets": 2,
                    "numoutlets": 3,
                    "outlettype": [ "", "int", "" ],
                    "patching_rect": [ 23.0, 636.0, 187.0, 35.0 ],
                    "text": "mvc.miniparameter myModel tralala @default 3"
                }
            },
            {
                "box": {
                    "id": "obj-36",
                    "maxclass": "message",
                    "numinlets": 2,
                    "numoutlets": 1,
                    "outlettype": [ "" ],
                    "patching_rect": [ 444.0, 597.0, 71.0, 22.0 ],
                    "text": "address top"
                }
            },
            {
                "box": {
                    "format": 6,
                    "id": "obj-21",
                    "maxclass": "flonum",
                    "numinlets": 1,
                    "numoutlets": 2,
                    "outlettype": [ "", "bang" ],
                    "parameter_enable": 0,
                    "patching_rect": [ 453.0, 536.0, 61.0, 22.0 ]
                }
            },
            {
                "box": {
                    "id": "obj-22",
                    "maxclass": "button",
                    "numinlets": 1,
                    "numoutlets": 1,
                    "outlettype": [ "bang" ],
                    "parameter_enable": 0,
                    "patching_rect": [ 410.0, 527.0, 24.0, 24.0 ]
                }
            },
            {
                "box": {
                    "id": "obj-25",
                    "maxclass": "message",
                    "numinlets": 2,
                    "numoutlets": 1,
                    "outlettype": [ "" ],
                    "patching_rect": [ 410.0, 474.0, 29.5, 22.0 ],
                    "text": "1"
                }
            },
            {
                "box": {
                    "id": "obj-26",
                    "maxclass": "newobj",
                    "numinlets": 2,
                    "numoutlets": 3,
                    "outlettype": [ "int", "float", "bang" ],
                    "patching_rect": [ 410.0, 503.0, 104.0, 22.0 ],
                    "text": "mvc.benchmarker"
                }
            },
            {
                "box": {
                    "id": "obj-30",
                    "maxclass": "message",
                    "numinlets": 2,
                    "numoutlets": 1,
                    "outlettype": [ "" ],
                    "patching_rect": [ 410.0, 576.0, 113.0, 22.0 ],
                    "text": "address ga.{1..100}"
                }
            },
            {
                "box": {
                    "id": "obj-33",
                    "linecount": 2,
                    "maxclass": "newobj",
                    "numinlets": 2,
                    "numoutlets": 3,
                    "outlettype": [ "", "int", "" ],
                    "patching_rect": [ 304.0, 636.0, 160.0, 35.0 ],
                    "text": "mvc.parameter myoldModel tralala @default 3"
                }
            },
            {
                "box": {
                    "id": "obj-3",
                    "linecount": 2,
                    "maxclass": "message",
                    "numinlets": 2,
                    "numoutlets": 1,
                    "outlettype": [ "" ],
                    "patching_rect": [ 376.0, 281.0, 101.0, 35.0 ],
                    "text": "address ga bu.{1..4} zo"
                }
            },
            {
                "box": {
                    "id": "obj-4",
                    "maxclass": "message",
                    "numinlets": 2,
                    "numoutlets": 1,
                    "outlettype": [ "" ],
                    "patching_rect": [ 376.0, 247.0, 160.0, 22.0 ],
                    "text": "address myOldModel.{1..10}"
                }
            },
            {
                "box": {
                    "format": 6,
                    "id": "obj-6",
                    "maxclass": "flonum",
                    "numinlets": 1,
                    "numoutlets": 2,
                    "outlettype": [ "", "bang" ],
                    "parameter_enable": 0,
                    "patching_rect": [ 418.0, 184.0, 50.0, 22.0 ]
                }
            },
            {
                "box": {
                    "id": "obj-7",
                    "maxclass": "button",
                    "numinlets": 1,
                    "numoutlets": 1,
                    "outlettype": [ "bang" ],
                    "parameter_enable": 0,
                    "patching_rect": [ 375.0, 175.0, 24.0, 24.0 ]
                }
            },
            {
                "box": {
                    "id": "obj-8",
                    "maxclass": "message",
                    "numinlets": 2,
                    "numoutlets": 1,
                    "outlettype": [ "" ],
                    "patching_rect": [ 375.0, 122.0, 29.5, 22.0 ],
                    "text": "1"
                }
            },
            {
                "box": {
                    "id": "obj-9",
                    "maxclass": "newobj",
                    "numinlets": 2,
                    "numoutlets": 3,
                    "outlettype": [ "int", "float", "bang" ],
                    "patching_rect": [ 375.0, 151.0, 104.0, 22.0 ],
                    "text": "mvc.benchmarker"
                }
            },
            {
                "box": {
                    "id": "obj-11",
                    "maxclass": "message",
                    "numinlets": 2,
                    "numoutlets": 1,
                    "outlettype": [ "" ],
                    "patching_rect": [ 495.0, 277.0, 51.0, 22.0 ],
                    "text": "address"
                }
            },
            {
                "box": {
                    "id": "obj-14",
                    "maxclass": "newobj",
                    "numinlets": 1,
                    "numoutlets": 0,
                    "patching_rect": [ 342.0, 353.0, 100.0, 22.0 ],
                    "text": "print ---myModel"
                }
            },
            {
                "box": {
                    "id": "obj-16",
                    "maxclass": "button",
                    "numinlets": 1,
                    "numoutlets": 1,
                    "outlettype": [ "bang" ],
                    "parameter_enable": 0,
                    "patching_rect": [ 304.0, 353.0, 24.0, 24.0 ]
                }
            },
            {
                "box": {
                    "id": "obj-17",
                    "maxclass": "message",
                    "numinlets": 2,
                    "numoutlets": 1,
                    "outlettype": [ "" ],
                    "patching_rect": [ 375.0, 215.0, 122.0, 22.0 ],
                    "text": "address myOldModel"
                }
            },
            {
                "box": {
                    "id": "obj-19",
                    "maxclass": "newobj",
                    "numinlets": 2,
                    "numoutlets": 2,
                    "outlettype": [ "", "" ],
                    "patching_rect": [ 304.0, 318.0, 157.0, 22.0 ],
                    "text": "mvc.model myoldModel test"
                }
            },
            {
                "box": {
                    "id": "obj-1",
                    "maxclass": "newobj",
                    "numinlets": 2,
                    "numoutlets": 5,
                    "outlettype": [ "dictionary", "", "", "", "" ],
                    "patching_rect": [ 213.0, 53.0, 100.0, 22.0 ],
                    "saved_object_attributes": {
                        "legacy": 0,
                        "parameter_enable": 0,
                        "parameter_mappable": 0
                    },
                    "text": "dict test.attr"
                }
            },
            {
                "box": {
                    "format": 6,
                    "id": "obj-28",
                    "maxclass": "flonum",
                    "numinlets": 1,
                    "numoutlets": 2,
                    "outlettype": [ "", "bang" ],
                    "parameter_enable": 0,
                    "patching_rect": [ 130.0, 508.0, 66.0, 22.0 ]
                }
            },
            {
                "box": {
                    "id": "obj-40",
                    "maxclass": "button",
                    "numinlets": 1,
                    "numoutlets": 1,
                    "outlettype": [ "bang" ],
                    "parameter_enable": 0,
                    "patching_rect": [ 87.0, 499.0, 24.0, 24.0 ]
                }
            },
            {
                "box": {
                    "id": "obj-41",
                    "maxclass": "message",
                    "numinlets": 2,
                    "numoutlets": 1,
                    "outlettype": [ "" ],
                    "patching_rect": [ 87.0, 446.0, 29.5, 22.0 ],
                    "text": "1"
                }
            },
            {
                "box": {
                    "id": "obj-43",
                    "maxclass": "newobj",
                    "numinlets": 2,
                    "numoutlets": 3,
                    "outlettype": [ "int", "float", "bang" ],
                    "patching_rect": [ 87.0, 475.0, 104.0, 22.0 ],
                    "text": "mvc.benchmarker"
                }
            },
            {
                "box": {
                    "id": "obj-55",
                    "linecount": 2,
                    "maxclass": "message",
                    "numinlets": 2,
                    "numoutlets": 1,
                    "outlettype": [ "" ],
                    "patching_rect": [ 87.0, 539.0, 71.0, 35.0 ],
                    "text": "address bu.{1..100}"
                }
            },
            {
                "box": {
                    "format": 6,
                    "id": "obj-38",
                    "maxclass": "flonum",
                    "numinlets": 1,
                    "numoutlets": 2,
                    "outlettype": [ "", "bang" ],
                    "parameter_enable": 0,
                    "patching_rect": [ 23.0, 603.0, 50.0, 22.0 ]
                }
            },
            {
                "box": {
                    "id": "obj-24",
                    "maxclass": "message",
                    "numinlets": 2,
                    "numoutlets": 1,
                    "outlettype": [ "" ],
                    "patching_rect": [ 801.0, 379.0, 50.0, 22.0 ],
                    "text": "clear"
                }
            },
            {
                "box": {
                    "id": "obj-42",
                    "maxclass": "button",
                    "numinlets": 1,
                    "numoutlets": 1,
                    "outlettype": [ "bang" ],
                    "parameter_enable": 0,
                    "patching_rect": [ 765.0, 379.0, 24.0, 24.0 ]
                }
            },
            {
                "box": {
                    "id": "obj-45",
                    "maxclass": "newobj",
                    "numinlets": 2,
                    "numoutlets": 5,
                    "outlettype": [ "dictionary", "", "", "", "" ],
                    "patching_rect": [ 767.0, 407.0, 148.0, 22.0 ],
                    "saved_object_attributes": {
                        "legacy": 0,
                        "parameter_enable": 0,
                        "parameter_mappable": 0
                    },
                    "text": "dict mvc.states.values.dict"
                }
            },
            {
                "box": {
                    "id": "obj-51",
                    "maxclass": "dict.view",
                    "numinlets": 1,
                    "numoutlets": 0,
                    "patching_rect": [ 766.0, 437.0, 143.0, 271.0 ]
                }
            },
            {
                "box": {
                    "id": "obj-10",
                    "maxclass": "newobj",
                    "numinlets": 1,
                    "numoutlets": 1,
                    "outlettype": [ "bang" ],
                    "patching_rect": [ 753.0, 2.0, 58.0, 22.0 ],
                    "text": "loadbang"
                }
            },
            {
                "box": {
                    "id": "obj-29",
                    "maxclass": "message",
                    "numinlets": 2,
                    "numoutlets": 1,
                    "outlettype": [ "" ],
                    "patching_rect": [ 638.0, 380.0, 50.0, 22.0 ],
                    "text": "clear"
                }
            },
            {
                "box": {
                    "id": "obj-12",
                    "maxclass": "button",
                    "numinlets": 1,
                    "numoutlets": 1,
                    "outlettype": [ "bang" ],
                    "parameter_enable": 0,
                    "patching_rect": [ 602.0, 380.0, 24.0, 24.0 ]
                }
            },
            {
                "box": {
                    "id": "obj-32",
                    "maxclass": "newobj",
                    "numinlets": 2,
                    "numoutlets": 5,
                    "outlettype": [ "dictionary", "", "", "", "" ],
                    "patching_rect": [ 604.0, 408.0, 177.0, 22.0 ],
                    "saved_object_attributes": {
                        "legacy": 0,
                        "parameter_enable": 0,
                        "parameter_mappable": 0
                    },
                    "text": "dict mvc.parameters.values.dict"
                }
            },
            {
                "box": {
                    "id": "obj-13",
                    "maxclass": "dict.view",
                    "numinlets": 1,
                    "numoutlets": 0,
                    "patching_rect": [ 604.0, 438.0, 143.0, 271.0 ]
                }
            },
            {
                "box": {
                    "id": "obj-18",
                    "linecount": 2,
                    "maxclass": "message",
                    "numinlets": 2,
                    "numoutlets": 1,
                    "outlettype": [ "" ],
                    "patching_rect": [ 95.0, 281.0, 101.0, 35.0 ],
                    "text": "address ga bu.{1..4} zo"
                }
            },
            {
                "box": {
                    "id": "obj-23",
                    "maxclass": "message",
                    "numinlets": 2,
                    "numoutlets": 1,
                    "outlettype": [ "" ],
                    "patching_rect": [ 95.0, 247.0, 141.0, 22.0 ],
                    "text": "address myModel.{1..10}"
                }
            },
            {
                "box": {
                    "id": "obj-34",
                    "maxclass": "message",
                    "numinlets": 2,
                    "numoutlets": 1,
                    "outlettype": [ "" ],
                    "patching_rect": [ 787.0, 38.0, 50.0, 22.0 ],
                    "text": "clear"
                }
            },
            {
                "box": {
                    "id": "obj-35",
                    "maxclass": "button",
                    "numinlets": 1,
                    "numoutlets": 1,
                    "outlettype": [ "bang" ],
                    "parameter_enable": 0,
                    "patching_rect": [ 752.0, 38.0, 24.0, 24.0 ]
                }
            },
            {
                "box": {
                    "id": "obj-48",
                    "maxclass": "newobj",
                    "numinlets": 2,
                    "numoutlets": 5,
                    "outlettype": [ "dictionary", "", "", "", "" ],
                    "patching_rect": [ 754.0, 66.0, 118.0, 22.0 ],
                    "saved_object_attributes": {
                        "legacy": 0,
                        "parameter_enable": 0,
                        "parameter_mappable": 0
                    },
                    "text": "dict mvc.inputs.dict"
                }
            },
            {
                "box": {
                    "id": "obj-52",
                    "maxclass": "dict.view",
                    "numinlets": 1,
                    "numoutlets": 0,
                    "patching_rect": [ 754.0, 96.0, 143.0, 271.0 ]
                }
            },
            {
                "box": {
                    "format": 6,
                    "id": "obj-61",
                    "maxclass": "flonum",
                    "numinlets": 1,
                    "numoutlets": 2,
                    "outlettype": [ "", "bang" ],
                    "parameter_enable": 0,
                    "patching_rect": [ 137.0, 184.0, 50.0, 22.0 ]
                }
            },
            {
                "box": {
                    "id": "obj-54",
                    "maxclass": "button",
                    "numinlets": 1,
                    "numoutlets": 1,
                    "outlettype": [ "bang" ],
                    "parameter_enable": 0,
                    "patching_rect": [ 94.0, 175.0, 24.0, 24.0 ]
                }
            },
            {
                "box": {
                    "id": "obj-50",
                    "maxclass": "message",
                    "numinlets": 2,
                    "numoutlets": 1,
                    "outlettype": [ "" ],
                    "patching_rect": [ 94.0, 122.0, 29.5, 22.0 ],
                    "text": "1"
                }
            },
            {
                "box": {
                    "id": "obj-47",
                    "maxclass": "newobj",
                    "numinlets": 2,
                    "numoutlets": 3,
                    "outlettype": [ "int", "float", "bang" ],
                    "patching_rect": [ 94.0, 151.0, 104.0, 22.0 ],
                    "text": "mvc.benchmarker"
                }
            },
            {
                "box": {
                    "id": "obj-97",
                    "maxclass": "message",
                    "numinlets": 2,
                    "numoutlets": 1,
                    "outlettype": [ "" ],
                    "patching_rect": [ 23.0, 189.0, 51.0, 22.0 ],
                    "text": "address"
                }
            },
            {
                "box": {
                    "id": "obj-62",
                    "maxclass": "message",
                    "numinlets": 2,
                    "numoutlets": 1,
                    "outlettype": [ "" ],
                    "patching_rect": [ 637.0, 38.0, 50.0, 22.0 ],
                    "text": "clear"
                }
            },
            {
                "box": {
                    "id": "obj-58",
                    "maxclass": "button",
                    "numinlets": 1,
                    "numoutlets": 1,
                    "outlettype": [ "bang" ],
                    "parameter_enable": 0,
                    "patching_rect": [ 602.0, 38.0, 24.0, 24.0 ]
                }
            },
            {
                "box": {
                    "id": "obj-59",
                    "maxclass": "newobj",
                    "numinlets": 2,
                    "numoutlets": 5,
                    "outlettype": [ "dictionary", "", "", "", "" ],
                    "patching_rect": [ 604.0, 66.0, 118.0, 22.0 ],
                    "saved_object_attributes": {
                        "legacy": 0,
                        "parameter_enable": 0,
                        "parameter_mappable": 0
                    },
                    "text": "dict mvc.models.dict"
                }
            },
            {
                "box": {
                    "id": "obj-60",
                    "maxclass": "dict.view",
                    "numinlets": 1,
                    "numoutlets": 0,
                    "patching_rect": [ 604.0, 96.0, 143.0, 271.0 ]
                }
            },
            {
                "box": {
                    "id": "obj-49",
                    "maxclass": "newobj",
                    "numinlets": 1,
                    "numoutlets": 0,
                    "patching_rect": [ 61.0, 353.0, 100.0, 22.0 ],
                    "text": "print ---myModel"
                }
            },
            {
                "box": {
                    "id": "obj-46",
                    "maxclass": "button",
                    "numinlets": 1,
                    "numoutlets": 1,
                    "outlettype": [ "bang" ],
                    "parameter_enable": 0,
                    "patching_rect": [ 23.0, 353.0, 24.0, 24.0 ]
                }
            },
            {
                "box": {
                    "id": "obj-20",
                    "maxclass": "message",
                    "numinlets": 2,
                    "numoutlets": 1,
                    "outlettype": [ "" ],
                    "patching_rect": [ 94.0, 215.0, 103.0, 22.0 ],
                    "text": "address myModel"
                }
            },
            {
                "box": {
                    "id": "obj-27",
                    "maxclass": "newobj",
                    "numinlets": 1,
                    "numoutlets": 1,
                    "outlettype": [ "" ],
                    "patching_rect": [ 23.0, 318.0, 163.0, 22.0 ],
                    "text": "mvc.minimodel myModel test"
                }
            },
            {
                "box": {
                    "id": "obj-15",
                    "maxclass": "newobj",
                    "numinlets": 1,
                    "numoutlets": 0,
                    "patching_rect": [ 156.25, 85.0, 32.0, 22.0 ],
                    "text": "print"
                }
            },
            {
                "box": {
                    "id": "obj-5",
                    "maxclass": "message",
                    "numinlets": 2,
                    "numoutlets": 1,
                    "outlettype": [ "" ],
                    "patching_rect": [ 156.25, 18.0, 30.0, 22.0 ],
                    "text": "GUI"
                }
            },
            {
                "box": {
                    "color": [ 0.23921568627451, 0.345098039215686, 0.505882352941176, 1.0 ],
                    "fontsize": 18.0,
                    "id": "obj-37",
                    "maxclass": "newobj",
                    "numinlets": 2,
                    "numoutlets": 2,
                    "outlettype": [ "", "" ],
                    "patching_rect": [ 42.25, 45.0, 133.0, 29.0 ],
                    "text": "mvc.device test",
                    "varname": "mvc.device"
                }
            }
        ],
        "lines": [
            {
                "patchline": {
                    "destination": [ "obj-12", 0 ],
                    "order": 2,
                    "source": [ "obj-10", 0 ]
                }
            },
            {
                "patchline": {
                    "destination": [ "obj-35", 0 ],
                    "order": 1,
                    "source": [ "obj-10", 0 ]
                }
            },
            {
                "patchline": {
                    "destination": [ "obj-42", 0 ],
                    "order": 0,
                    "source": [ "obj-10", 0 ]
                }
            },
            {
                "patchline": {
                    "destination": [ "obj-58", 0 ],
                    "order": 3,
                    "source": [ "obj-10", 0 ]
                }
            },
            {
                "patchline": {
                    "destination": [ "obj-19", 1 ],
                    "source": [ "obj-11", 0 ]
                }
            },
            {
                "patchline": {
                    "destination": [ "obj-32", 0 ],
                    "source": [ "obj-12", 0 ]
                }
            },
            {
                "patchline": {
                    "destination": [ "obj-9", 1 ],
                    "midpoints": [ 313.5, 401.3828125, 523.79296875, 401.3828125, 523.79296875, 141.0, 469.5, 141.0 ],
                    "source": [ "obj-16", 0 ]
                }
            },
            {
                "patchline": {
                    "destination": [ "obj-19", 1 ],
                    "source": [ "obj-17", 0 ]
                }
            },
            {
                "patchline": {
                    "destination": [ "obj-27", 0 ],
                    "source": [ "obj-18", 0 ]
                }
            },
            {
                "patchline": {
                    "destination": [ "obj-16", 0 ],
                    "source": [ "obj-19", 0 ]
                }
            },
            {
                "patchline": {
                    "destination": [ "obj-39", 0 ],
                    "source": [ "obj-2", 0 ]
                }
            },
            {
                "patchline": {
                    "destination": [ "obj-27", 0 ],
                    "source": [ "obj-20", 0 ]
                }
            },
            {
                "patchline": {
                    "destination": [ "obj-30", 0 ],
                    "source": [ "obj-22", 0 ]
                }
            },
            {
                "patchline": {
                    "destination": [ "obj-27", 0 ],
                    "source": [ "obj-23", 0 ]
                }
            },
            {
                "patchline": {
                    "destination": [ "obj-45", 0 ],
                    "source": [ "obj-24", 0 ]
                }
            },
            {
                "patchline": {
                    "destination": [ "obj-26", 0 ],
                    "source": [ "obj-25", 0 ]
                }
            },
            {
                "patchline": {
                    "destination": [ "obj-21", 0 ],
                    "source": [ "obj-26", 1 ]
                }
            },
            {
                "patchline": {
                    "destination": [ "obj-22", 0 ],
                    "source": [ "obj-26", 0 ]
                }
            },
            {
                "patchline": {
                    "destination": [ "obj-46", 0 ],
                    "source": [ "obj-27", 0 ]
                }
            },
            {
                "patchline": {
                    "destination": [ "obj-32", 0 ],
                    "source": [ "obj-29", 0 ]
                }
            },
            {
                "patchline": {
                    "destination": [ "obj-19", 1 ],
                    "source": [ "obj-3", 0 ]
                }
            },
            {
                "patchline": {
                    "destination": [ "obj-33", 1 ],
                    "source": [ "obj-30", 0 ]
                }
            },
            {
                "patchline": {
                    "destination": [ "obj-44", 0 ],
                    "source": [ "obj-31", 0 ]
                }
            },
            {
                "patchline": {
                    "destination": [ "obj-13", 0 ],
                    "source": [ "obj-32", 0 ]
                }
            },
            {
                "patchline": {
                    "destination": [ "obj-64", 0 ],
                    "midpoints": [ 313.5, 696.0, 535.86328125, 696.0, 535.86328125, 456.0, 504.5, 456.0 ],
                    "source": [ "obj-33", 0 ]
                }
            },
            {
                "patchline": {
                    "destination": [ "obj-48", 0 ],
                    "source": [ "obj-34", 0 ]
                }
            },
            {
                "patchline": {
                    "destination": [ "obj-48", 0 ],
                    "source": [ "obj-35", 0 ]
                }
            },
            {
                "patchline": {
                    "destination": [ "obj-33", 1 ],
                    "source": [ "obj-36", 0 ]
                }
            },
            {
                "patchline": {
                    "destination": [ "obj-15", 0 ],
                    "source": [ "obj-37", 1 ]
                }
            },
            {
                "patchline": {
                    "destination": [ "obj-56", 0 ],
                    "source": [ "obj-38", 0 ]
                }
            },
            {
                "patchline": {
                    "destination": [ "obj-44", 0 ],
                    "source": [ "obj-39", 0 ]
                }
            },
            {
                "patchline": {
                    "destination": [ "obj-19", 1 ],
                    "source": [ "obj-4", 0 ]
                }
            },
            {
                "patchline": {
                    "destination": [ "obj-55", 0 ],
                    "source": [ "obj-40", 0 ]
                }
            },
            {
                "patchline": {
                    "destination": [ "obj-43", 0 ],
                    "source": [ "obj-41", 0 ]
                }
            },
            {
                "patchline": {
                    "destination": [ "obj-45", 0 ],
                    "source": [ "obj-42", 0 ]
                }
            },
            {
                "patchline": {
                    "destination": [ "obj-28", 0 ],
                    "source": [ "obj-43", 1 ]
                }
            },
            {
                "patchline": {
                    "destination": [ "obj-40", 0 ],
                    "source": [ "obj-43", 0 ]
                }
            },
            {
                "patchline": {
                    "destination": [ "obj-53", 0 ],
                    "source": [ "obj-44", 0 ]
                }
            },
            {
                "patchline": {
                    "destination": [ "obj-51", 0 ],
                    "source": [ "obj-45", 0 ]
                }
            },
            {
                "patchline": {
                    "destination": [ "obj-47", 1 ],
                    "midpoints": [ 32.5, 401.3828125, 242.79296875, 401.3828125, 242.79296875, 141.0, 188.5, 141.0 ],
                    "source": [ "obj-46", 0 ]
                }
            },
            {
                "patchline": {
                    "destination": [ "obj-54", 0 ],
                    "source": [ "obj-47", 0 ]
                }
            },
            {
                "patchline": {
                    "destination": [ "obj-61", 0 ],
                    "source": [ "obj-47", 1 ]
                }
            },
            {
                "patchline": {
                    "destination": [ "obj-52", 0 ],
                    "source": [ "obj-48", 0 ]
                }
            },
            {
                "patchline": {
                    "destination": [ "obj-37", 1 ],
                    "source": [ "obj-5", 0 ]
                }
            },
            {
                "patchline": {
                    "destination": [ "obj-47", 0 ],
                    "source": [ "obj-50", 0 ]
                }
            },
            {
                "patchline": {
                    "destination": [ "obj-23", 0 ],
                    "source": [ "obj-54", 0 ]
                }
            },
            {
                "patchline": {
                    "destination": [ "obj-56", 1 ],
                    "source": [ "obj-55", 0 ]
                }
            },
            {
                "patchline": {
                    "destination": [ "obj-66", 0 ],
                    "midpoints": [ 32.5, 681.0, 218.6015625, 681.0, 218.6015625, 435.0, 181.5, 435.0 ],
                    "source": [ "obj-56", 0 ]
                }
            },
            {
                "patchline": {
                    "destination": [ "obj-56", 1 ],
                    "source": [ "obj-57", 0 ]
                }
            },
            {
                "patchline": {
                    "destination": [ "obj-59", 0 ],
                    "source": [ "obj-58", 0 ]
                }
            },
            {
                "patchline": {
                    "destination": [ "obj-60", 0 ],
                    "source": [ "obj-59", 0 ]
                }
            },
            {
                "patchline": {
                    "destination": [ "obj-59", 0 ],
                    "source": [ "obj-62", 0 ]
                }
            },
            {
                "patchline": {
                    "destination": [ "obj-26", 1 ],
                    "source": [ "obj-64", 0 ]
                }
            },
            {
                "patchline": {
                    "destination": [ "obj-43", 1 ],
                    "source": [ "obj-66", 0 ]
                }
            },
            {
                "patchline": {
                    "destination": [ "obj-4", 0 ],
                    "source": [ "obj-7", 0 ]
                }
            },
            {
                "patchline": {
                    "destination": [ "obj-9", 0 ],
                    "source": [ "obj-8", 0 ]
                }
            },
            {
                "patchline": {
                    "destination": [ "obj-6", 0 ],
                    "source": [ "obj-9", 1 ]
                }
            },
            {
                "patchline": {
                    "destination": [ "obj-7", 0 ],
                    "source": [ "obj-9", 0 ]
                }
            },
            {
                "patchline": {
                    "destination": [ "obj-27", 0 ],
                    "source": [ "obj-97", 0 ]
                }
            }
        ],
        "autosave": 0
    }
}